<?xml version="1.0" encoding="UTF-8" ?>
<!DOCTYPE svg PUBLIC "-//W3C//DTD SVG 1.1//EN" "http://www.w3.org/Graphics/SVG/1.1/DTD/svg11.dtd">
<svg width="1351pt" height="525pt" viewBox="0 0 1351 525" version="1.1" xmlns="http://www.w3.org/2000/svg">
<g id="#ffffffff">
<path fill="#ffffff" opacity="1.00" d=" M 634.78 0.00 L 714.00 0.00 C 724.28 1.76 733.70 7.75 739.97 16.04 C 755.98 37.88 771.75 59.88 787.83 81.66 C 777.85 82.11 767.85 81.58 757.87 81.92 C 751.81 82.34 746.71 86.34 743.21 91.07 C 735.06 102.28 726.90 113.49 718.75 124.71 C 709.24 137.27 701.40 151.52 698.33 167.10 C 697.42 173.05 696.66 180.19 700.97 185.07 C 704.41 188.47 709.64 187.45 714.00 187.60 C 753.61 187.67 793.22 187.42 832.82 187.73 C 832.31 194.80 831.00 202.55 825.68 207.72 C 821.86 211.54 816.22 212.54 811.03 212.30 C 719.02 212.25 627.02 212.32 535.01 212.26 C 528.76 212.35 522.64 208.84 519.83 203.22 C 515.20 194.24 515.71 183.68 517.01 173.95 C 520.30 152.55 529.01 132.35 539.61 113.61 C 547.40 99.79 557.17 87.28 566.41 74.45 C 579.20 56.88 591.98 39.31 604.76 21.74 C 611.46 10.98 621.99 2.11 634.78 0.00 Z" />
<path fill="#ffffff" opacity="1.00" d=" M 157.84 249.50 C 169.22 249.49 180.61 249.51 191.99 249.49 C 192.02 287.99 191.98 326.49 192.01 364.98 C 191.84 371.05 195.63 377.57 201.88 378.81 C 208.99 380.02 215.93 375.99 220.06 370.39 C 224.30 378.33 228.53 386.28 232.78 394.22 C 225.72 400.67 217.27 405.94 207.80 407.85 C 196.27 410.08 183.66 407.88 174.15 400.79 C 166.88 395.61 161.54 387.83 159.40 379.16 C 157.51 372.25 157.83 365.04 157.84 357.96 C 157.84 321.81 157.84 285.66 157.84 249.50 Z" />
<path fill="#ffffff" opacity="1.00" d=" M 19.76 298.78 C 32.11 287.48 49.42 281.79 66.05 284.07 C 75.21 285.21 83.85 289.40 90.71 295.53 C 90.69 292.22 90.70 288.90 90.70 285.59 C 102.11 285.59 113.51 285.58 124.91 285.59 C 124.91 326.03 124.92 366.47 124.91 406.91 C 113.51 406.91 102.11 406.91 90.71 406.91 C 90.70 403.67 90.69 400.43 90.71 397.19 C 80.28 405.78 66.44 409.80 53.02 408.47 C 35.46 407.24 19.49 396.54 9.89 382.07 C 0.74 368.01 -1.34 350.38 0.92 334.03 C 2.72 320.52 9.36 307.66 19.76 298.78 M 57.56 312.75 C 49.90 314.38 43.55 319.86 39.50 326.41 C 34.32 334.87 33.27 345.37 35.10 354.99 C 36.79 364.21 42.90 372.41 51.10 376.89 C 57.28 380.19 64.83 380.82 71.49 378.65 C 79.98 375.77 86.41 368.30 89.19 359.92 C 93.50 346.25 91.29 329.61 80.66 319.35 C 74.79 313.29 65.73 310.89 57.56 312.75 Z" />
<path fill="#ffffff" opacity="1.00" d=" M 284.64 298.94 C 295.30 288.11 310.75 282.17 325.94 283.83 C 340.44 285.02 353.26 293.77 362.17 304.90 C 371.51 316.34 375.84 331.32 375.52 345.97 C 375.76 359.71 371.94 373.69 363.79 384.85 C 356.01 395.51 344.98 404.34 331.93 407.36 C 321.79 409.66 310.77 409.11 301.24 404.75 C 294.65 401.72 289.06 396.83 284.64 391.12 C 284.68 410.91 284.66 430.71 284.66 450.50 C 273.34 450.50 262.02 450.51 250.70 450.50 C 250.70 395.53 250.69 340.56 250.70 285.59 C 262.02 285.58 273.34 285.59 284.65 285.59 C 284.66 290.04 284.68 294.48 284.64 298.94 M 307.50 312.61 C 299.47 314.11 292.90 319.98 288.97 326.93 C 284.31 335.11 283.45 344.97 284.88 354.14 C 286.25 362.73 291.12 370.80 298.42 375.62 C 303.77 379.20 310.51 380.39 316.82 379.32 C 327.33 377.48 336.01 369.05 339.44 359.13 C 343.93 345.48 341.01 328.88 330.03 319.09 C 324.12 313.46 315.50 311.00 307.50 312.61 Z" />
<path fill="#ffffff" opacity="1.00" d=" M 767.08 443.95 C 772.09 441.95 777.99 446.63 776.98 452.00 C 776.62 457.82 768.64 460.59 764.58 456.58 C 760.44 453.12 761.84 445.50 767.08 443.95 Z" />
<path fill="#ffffff" opacity="1.00" d=" M 900.04 443.99 C 905.11 441.86 911.15 446.67 910.06 452.10 C 909.57 457.83 901.68 460.60 897.67 456.55 C 893.49 453.15 894.92 445.65 900.04 443.99 Z" />
<path fill="#ffffff" opacity="1.00" d=" M 1155.22 444.26 C 1159.90 441.78 1166.35 445.67 1165.95 451.06 C 1166.31 456.75 1159.13 460.51 1154.52 457.35 C 1149.62 454.59 1150.04 446.48 1155.22 444.26 Z" />
<path fill="#ffffff" opacity="1.00" d=" M 1235.17 444.21 C 1240.25 441.58 1246.85 446.42 1245.73 452.06 C 1245.27 457.50 1238.18 460.39 1233.94 457.08 C 1229.42 454.08 1230.11 446.28 1235.17 444.21 Z" />
<path fill="#ffffff" opacity="1.00" d=" M 840.84 444.84 C 845.06 444.83 849.27 444.83 853.50 444.84 C 853.48 452.08 853.54 459.32 853.47 466.57 C 856.99 462.99 861.90 460.86 866.95 461.07 C 876.42 461.00 884.74 468.76 886.59 477.83 C 887.94 484.63 887.20 492.18 883.17 498.00 C 879.35 503.60 872.97 507.98 865.96 507.52 C 861.03 507.58 856.62 504.84 853.49 501.23 C 853.49 503.12 853.48 505.00 853.50 506.91 C 849.28 506.91 845.06 506.91 840.84 506.91 C 840.83 486.22 840.83 465.53 840.84 444.84 M 861.16 472.13 C 851.00 475.46 850.59 492.58 860.72 496.22 C 867.33 498.54 874.17 492.43 874.39 485.84 C 875.54 478.55 869.08 469.78 861.16 472.13 Z" />
<path fill="#ffffff" opacity="1.00" d=" M 920.70 444.84 C 924.93 444.83 929.17 444.83 933.41 444.84 C 933.41 455.35 933.42 465.85 933.40 476.36 C 937.98 471.47 942.58 466.61 947.14 461.71 C 952.48 461.70 957.83 461.68 963.19 461.71 C 957.51 467.86 951.74 473.91 946.02 480.01 C 951.90 489.00 957.91 497.91 963.82 506.90 C 958.81 506.94 953.81 506.86 948.82 506.95 C 944.91 501.28 941.16 495.50 937.33 489.78 C 936.03 491.15 934.73 492.50 933.42 493.84 C 933.40 498.19 933.41 502.55 933.41 506.90 C 929.17 506.92 924.94 506.91 920.71 506.91 C 920.69 486.22 920.70 465.53 920.70 444.84 Z" />
<path fill="#ffffff" opacity="1.00" d=" M 1207.70 444.84 C 1211.93 444.83 1216.17 444.83 1220.41 444.84 C 1220.41 465.53 1220.41 486.22 1220.41 506.91 C 1216.16 506.91 1211.93 506.91 1207.70 506.91 C 1207.69 505.01 1207.68 503.10 1207.74 501.22 C 1204.57 504.96 1199.94 507.64 1194.93 507.52 C 1188.51 507.85 1182.61 504.09 1178.84 499.11 C 1173.97 492.89 1172.98 484.32 1174.86 476.80 C 1177.06 468.26 1184.99 461.11 1194.01 461.07 C 1199.14 460.81 1204.18 462.91 1207.73 466.59 C 1207.66 459.34 1207.71 452.09 1207.70 444.84 M 1193.49 472.66 C 1184.01 477.12 1184.61 493.63 1195.12 496.39 C 1202.82 498.53 1209.02 490.09 1207.79 482.99 C 1207.75 476.03 1200.41 469.17 1193.49 472.66 Z" />
<path fill="#ffffff" opacity="1.00" d=" M 673.01 448.49 C 677.22 448.50 681.44 448.49 685.66 448.50 C 685.66 452.94 685.66 457.39 685.66 461.84 C 689.27 461.83 692.88 461.83 696.50 461.84 C 696.50 465.16 696.50 468.48 696.50 471.80 C 692.88 471.80 689.27 471.80 685.66 471.80 C 685.74 478.53 685.50 485.27 685.78 491.99 C 685.83 494.57 688.38 497.02 691.02 496.38 C 693.14 496.19 694.66 494.63 696.12 493.26 C 697.69 496.25 699.28 499.22 700.86 502.21 C 697.09 505.56 692.20 508.05 687.03 507.49 C 679.54 507.27 672.91 500.63 673.02 493.08 C 672.98 478.22 673.00 463.36 673.01 448.49 Z" />
<path fill="#ffffff" opacity="1.00" d=" M 442.98 466.72 C 446.08 463.39 450.35 460.84 455.04 461.07 C 460.48 461.05 465.17 464.82 467.72 469.40 C 473.36 460.86 486.22 458.37 494.57 464.33 C 499.28 467.58 501.19 473.52 501.15 479.03 C 501.18 488.32 501.16 497.61 501.16 506.91 C 496.88 506.91 492.61 506.92 488.34 506.91 C 488.31 498.27 488.38 489.64 488.31 481.01 C 488.31 477.47 486.84 473.06 482.93 472.26 C 477.52 470.76 471.79 475.45 471.82 480.99 C 471.46 489.62 471.76 498.27 471.66 506.90 C 467.44 506.92 463.22 506.91 459.00 506.91 C 458.94 498.23 459.11 489.55 458.92 480.88 C 458.74 477.68 458.06 473.42 454.48 472.37 C 449.10 470.60 443.27 475.30 443.13 480.81 C 442.82 489.50 443.09 498.21 443.00 506.91 C 438.77 506.91 434.56 506.92 430.34 506.91 C 430.34 491.88 430.33 476.86 430.34 461.84 C 434.56 461.83 438.78 461.83 443.00 461.84 C 442.99 463.46 442.99 465.09 442.98 466.72 Z" />
<path fill="#ffffff" opacity="1.00" d=" M 527.46 461.72 C 535.46 459.91 544.56 461.71 550.43 467.69 C 559.29 475.95 559.69 491.43 551.25 500.13 C 542.16 510.27 524.12 510.06 515.30 499.67 C 509.72 493.62 508.38 484.52 510.79 476.81 C 513.25 469.37 519.78 463.37 527.46 461.72 M 531.10 472.18 C 521.77 474.17 519.62 487.77 526.18 493.85 C 530.20 497.84 537.53 497.61 541.29 493.36 C 545.04 489.26 545.43 482.78 543.10 477.90 C 541.03 473.52 535.81 471.01 531.10 472.18 Z" />
<path fill="#ffffff" opacity="1.00" d=" M 632.40 466.54 C 639.18 459.10 652.51 459.17 658.36 467.72 C 660.98 471.23 661.88 475.73 661.81 480.04 C 661.79 489.00 661.81 497.95 661.80 506.91 C 657.56 506.91 653.32 506.91 649.09 506.91 C 649.05 497.93 649.15 488.94 649.05 479.96 C 648.96 476.56 647.59 472.39 643.89 471.48 C 638.43 469.86 632.55 474.43 632.46 480.04 C 632.34 489.00 632.45 497.95 632.41 506.91 C 628.17 506.91 623.94 506.91 619.71 506.91 C 619.69 491.89 619.70 476.86 619.70 461.84 C 623.94 461.83 628.17 461.83 632.41 461.84 C 632.40 463.40 632.40 464.97 632.40 466.54 Z" />
<path fill="#ffffff" opacity="1.00" d=" M 710.91 467.84 C 717.79 460.38 730.62 458.42 738.52 465.40 C 738.51 464.51 738.50 462.73 738.49 461.84 C 742.71 461.83 746.93 461.83 751.16 461.84 C 751.16 476.86 751.17 491.89 751.16 506.91 C 746.93 506.91 742.70 506.92 738.48 506.90 C 738.50 506.02 738.53 504.27 738.54 503.39 C 735.16 505.82 731.16 507.57 726.92 507.52 C 717.02 508.06 707.71 500.45 705.58 490.90 C 703.78 483.00 704.95 473.77 710.91 467.84 M 724.43 472.58 C 715.01 476.89 715.33 493.11 725.47 496.33 C 732.87 498.87 739.42 491.07 738.61 484.06 C 739.07 476.85 731.80 469.06 724.43 472.58 Z" />
<path fill="#ffffff" opacity="1.00" d=" M 800.28 466.58 C 804.56 462.31 810.86 459.98 816.85 461.48 C 824.31 463.02 829.57 470.34 829.63 477.80 C 829.71 487.50 829.63 497.20 829.66 506.91 C 825.44 506.92 821.22 506.91 817.00 506.91 C 816.96 497.88 817.06 488.84 816.96 479.81 C 816.83 476.48 815.48 472.45 811.89 471.52 C 806.47 469.82 800.55 474.33 800.39 479.92 C 800.17 488.91 800.37 497.91 800.29 506.91 C 796.06 506.91 791.82 506.91 787.59 506.91 C 787.58 491.89 787.59 476.86 787.59 461.84 C 791.82 461.83 796.06 461.83 800.30 461.84 C 800.28 463.41 800.29 464.99 800.28 466.58 Z" />
<path fill="#ffffff" opacity="1.00" d=" M 985.48 461.74 C 993.63 459.83 1003.10 461.83 1008.78 468.29 C 1012.07 471.76 1013.39 476.61 1013.50 481.30 C 1003.52 485.47 993.48 489.51 983.53 493.74 C 989.26 499.90 999.59 496.85 1003.90 490.50 C 1006.36 493.14 1008.84 495.76 1011.22 498.48 C 1007.26 502.40 1002.53 505.83 996.98 506.98 C 988.78 508.64 979.30 506.78 973.66 500.23 C 968.23 494.35 966.98 485.70 968.56 478.08 C 970.45 469.98 977.54 463.71 985.48 461.74 M 980.34 484.70 C 986.88 482.03 993.50 479.55 999.94 476.64 C 998.43 472.60 993.78 471.63 989.98 472.27 C 984.04 472.99 979.49 478.71 980.34 484.70 Z" />
<path fill="#ffffff" opacity="1.00" d=" M 1042.71 476.49 C 1044.73 468.59 1051.68 461.96 1059.94 461.23 C 1064.99 460.39 1070.05 462.29 1074.03 465.35 C 1074.02 464.47 1074.00 462.72 1073.99 461.84 C 1078.26 461.83 1082.53 461.83 1086.80 461.84 C 1086.81 474.23 1086.79 486.63 1086.81 499.02 C 1086.82 504.48 1085.97 510.16 1082.99 514.84 C 1079.55 520.64 1073.15 523.61 1066.81 525.00 L 1062.43 525.00 C 1057.84 523.92 1053.10 522.58 1049.45 519.46 C 1046.26 516.89 1044.12 513.31 1042.54 509.60 C 1046.17 508.00 1049.81 506.42 1053.46 504.85 C 1054.71 507.34 1055.89 510.06 1058.25 511.74 C 1062.30 514.83 1068.89 514.29 1071.96 510.04 C 1074.24 507.25 1074.60 503.55 1074.86 500.10 C 1067.44 507.51 1054.15 506.30 1047.50 498.48 C 1042.03 492.69 1040.92 484.00 1042.71 476.49 M 1061.39 471.58 C 1053.02 474.64 1052.14 487.92 1059.43 492.67 C 1063.05 494.91 1068.22 494.17 1071.06 490.97 C 1074.56 487.09 1074.87 481.00 1072.53 476.46 C 1070.61 472.38 1065.69 470.15 1061.39 471.58 Z" />
<path fill="#ffffff" opacity="1.00" d=" M 1268.99 466.58 C 1274.89 460.36 1285.52 458.98 1292.20 464.73 C 1297.37 468.79 1298.88 475.75 1298.42 482.02 C 1298.39 490.31 1298.42 498.61 1298.41 506.91 C 1294.17 506.91 1289.93 506.91 1285.71 506.91 C 1285.65 497.70 1285.78 488.48 1285.64 479.28 C 1285.53 475.83 1283.66 471.84 1279.88 471.34 C 1274.64 470.21 1269.31 474.58 1269.13 479.89 C 1268.82 488.89 1269.09 497.91 1269.00 506.91 C 1264.77 506.91 1260.55 506.92 1256.34 506.91 C 1256.34 491.88 1256.32 476.86 1256.35 461.84 C 1260.56 461.83 1264.78 461.83 1269.00 461.84 C 1268.98 463.41 1268.98 464.99 1268.99 466.58 Z" />
<path fill="#ffffff" opacity="1.00" d=" M 1308.08 477.00 C 1309.96 468.72 1317.27 461.75 1325.89 461.17 C 1330.82 460.46 1335.66 462.41 1339.53 465.36 C 1339.52 464.48 1339.50 462.72 1339.49 461.84 C 1343.32 461.83 1347.16 461.83 1351.00 461.84 L 1351.00 510.48 C 1349.30 513.50 1347.63 516.63 1345.03 518.99 C 1341.43 522.45 1336.50 524.06 1331.71 525.00 L 1328.28 525.00 C 1319.38 523.89 1311.02 518.27 1308.07 509.58 C 1311.69 507.99 1315.32 506.42 1318.97 504.85 C 1320.16 507.24 1321.28 509.82 1323.44 511.52 C 1327.42 514.77 1334.12 514.44 1337.31 510.22 C 1339.71 507.43 1340.13 503.63 1340.30 500.10 C 1332.84 507.67 1319.29 506.20 1312.73 498.20 C 1307.59 492.54 1306.52 484.26 1308.08 477.00 M 1326.48 471.72 C 1320.20 474.33 1318.44 482.93 1321.37 488.63 C 1323.32 493.12 1328.99 495.26 1333.45 493.20 C 1341.32 489.62 1341.48 477.02 1334.45 472.49 C 1332.10 471.01 1329.06 470.83 1326.48 471.72 Z" />
<path fill="#ffffff" opacity="1.00" d=" M 565.84 461.84 C 570.10 461.83 574.36 461.85 578.63 461.82 C 578.74 470.54 578.58 479.27 578.70 487.99 C 578.75 491.42 580.28 495.61 584.07 496.37 C 589.35 497.81 595.02 493.37 595.14 487.96 C 595.29 479.25 595.15 470.55 595.20 461.84 C 599.46 461.83 603.73 461.83 608.00 461.84 C 608.00 476.86 608.00 491.89 608.00 506.91 C 603.73 506.91 599.46 506.92 595.19 506.91 C 595.19 505.07 595.20 503.24 595.24 501.42 C 589.34 509.92 575.73 509.21 569.53 501.50 C 566.65 498.03 565.81 493.38 565.83 489.00 C 565.84 479.94 565.83 470.89 565.84 461.84 Z" />
<path fill="#ffffff" opacity="1.00" d=" M 763.20 461.84 C 767.43 461.83 771.67 461.83 775.91 461.84 C 775.91 476.86 775.91 491.89 775.91 506.91 C 771.67 506.91 767.43 506.91 763.20 506.91 C 763.20 491.88 763.20 476.86 763.20 461.84 Z" />
<path fill="#ffffff" opacity="1.00" d=" M 896.34 506.91 C 896.37 491.87 896.26 476.84 896.39 461.81 C 900.59 461.86 904.79 461.83 909.00 461.84 C 909.00 476.86 909.00 491.89 909.00 506.91 C 904.77 506.91 900.55 506.92 896.34 506.91 Z" />
<path fill="#ffffff" opacity="1.00" d=" M 1098.34 461.85 C 1102.61 461.83 1106.88 461.83 1111.16 461.84 C 1111.19 470.56 1111.10 479.29 1111.20 488.02 C 1111.26 491.27 1112.55 495.14 1115.99 496.21 C 1121.41 498.13 1127.54 493.55 1127.64 487.89 C 1127.79 479.21 1127.65 470.52 1127.70 461.84 C 1131.96 461.83 1136.23 461.83 1140.50 461.84 C 1140.51 476.86 1140.49 491.88 1140.51 506.90 C 1136.23 506.92 1131.96 506.91 1127.70 506.91 C 1127.70 505.07 1127.67 503.21 1127.76 501.38 C 1122.53 508.96 1111.08 509.32 1104.30 503.75 C 1100.08 500.54 1098.36 495.08 1098.35 489.96 C 1098.31 480.58 1098.35 471.21 1098.34 461.85 Z" />
<path fill="#ffffff" opacity="1.00" d=" M 1152.20 461.84 C 1156.43 461.83 1160.67 461.83 1164.91 461.84 C 1164.91 476.86 1164.91 491.89 1164.91 506.91 C 1160.67 506.91 1156.43 506.91 1152.20 506.91 C 1152.19 491.89 1152.20 476.86 1152.20 461.84 Z" />
<path fill="#ffffff" opacity="1.00" d=" M 1232.00 461.84 C 1236.21 461.83 1240.43 461.83 1244.66 461.84 C 1244.67 476.86 1244.66 491.88 1244.66 506.91 C 1240.44 506.92 1236.22 506.91 1232.00 506.91 C 1232.00 491.89 1232.00 476.86 1232.00 461.84 Z" />
</g>
<g id="#1a8bb6ff">
<path fill="#1a8bb6" opacity="1.00" d=" M 743.21 91.07 C 746.71 86.34 751.81 82.34 757.87 81.92 C 767.85 81.58 777.85 82.11 787.83 81.66 C 790.87 81.55 793.95 81.35 796.98 81.87 C 802.09 82.91 806.62 86.11 809.64 90.31 C 815.54 98.41 821.42 106.52 827.32 114.62 C 834.32 124.38 841.95 133.81 847.16 144.71 C 851.84 154.46 855.82 165.02 855.55 175.99 C 855.48 180.79 853.28 186.80 847.89 187.60 C 842.88 188.04 837.84 187.77 832.82 187.73 C 793.22 187.42 753.61 187.67 714.00 187.60 C 709.64 187.45 704.41 188.47 700.97 185.07 C 696.66 180.19 697.42 173.05 698.33 167.10 C 701.40 151.52 709.24 137.27 718.75 124.71 C 726.90 113.49 735.06 102.28 743.21 91.07 Z" />
<path fill="#1a8bb6" opacity="1.00" d=" M 400.63 239.75 C 411.92 239.74 423.20 239.75 434.49 239.75 C 434.49 259.49 434.54 279.23 434.47 298.98 C 442.06 290.59 452.70 285.04 463.99 283.99 C 478.00 282.21 492.65 286.41 503.39 295.64 C 515.34 305.25 523.09 319.68 524.78 334.91 C 526.82 351.31 524.14 368.80 514.70 382.64 C 506.91 393.96 495.72 403.57 482.23 407.12 C 470.66 410.08 457.75 408.88 447.46 402.59 C 442.43 399.62 438.17 395.53 434.48 391.05 C 434.52 396.32 434.50 401.60 434.50 406.87 C 423.21 406.87 411.92 406.88 400.63 406.87 C 400.62 351.17 400.62 295.46 400.63 239.75 M 457.44 312.57 C 449.62 313.96 443.17 319.56 439.18 326.22 C 434.14 334.65 433.14 344.98 434.76 354.52 C 436.26 363.27 441.39 371.45 449.01 376.13 C 456.43 380.69 466.19 380.87 473.92 376.96 C 480.80 373.41 486.30 367.23 489.02 359.98 C 493.80 346.41 491.27 329.64 480.44 319.61 C 474.54 313.65 465.67 310.91 457.44 312.57 Z" />
<path fill="#1a8bb6" opacity="1.00" d=" M 881.25 239.76 C 892.54 239.74 903.83 239.75 915.12 239.75 C 915.12 259.51 915.14 279.27 915.11 299.04 C 922.34 291.65 931.59 285.90 941.91 284.26 C 955.28 281.96 969.78 285.80 979.61 295.32 C 989.59 304.30 994.35 317.86 994.49 331.07 C 994.52 356.34 994.50 381.61 994.50 406.88 C 983.20 406.87 971.92 406.88 960.63 406.87 C 960.61 384.25 960.64 361.63 960.62 339.01 C 960.41 330.59 958.80 320.69 951.23 315.68 C 942.54 310.45 930.66 312.55 923.41 319.36 C 917.56 324.44 915.25 332.42 915.14 339.94 C 915.10 362.25 915.14 384.56 915.12 406.87 C 903.83 406.88 892.54 406.88 881.25 406.87 C 881.25 351.16 881.25 295.46 881.25 239.76 Z" />
<path fill="#1a8bb6" opacity="1.00" d=" M 789.01 249.49 C 800.38 249.53 811.76 249.45 823.13 249.53 C 823.12 261.56 823.12 273.60 823.13 285.63 C 832.88 285.62 842.62 285.62 852.37 285.63 C 852.38 294.46 852.38 303.29 852.37 312.12 C 842.62 312.13 832.87 312.12 823.13 312.13 C 823.15 330.09 823.07 348.05 823.16 366.01 C 823.22 372.04 827.57 378.30 833.86 378.96 C 840.73 379.72 847.14 375.78 851.20 370.48 C 855.40 378.39 859.63 386.30 863.85 394.21 C 854.94 402.48 843.40 408.66 831.00 408.64 C 819.74 408.96 808.38 404.70 800.44 396.64 C 792.58 388.99 789.00 377.84 789.00 367.04 C 789.01 327.86 788.98 288.68 789.01 249.49 Z" />
<path fill="#1a8bb6" opacity="1.00" d=" M 584.37 301.42 C 593.70 291.37 606.68 284.02 620.62 283.58 C 620.55 294.22 620.84 304.86 620.74 315.51 C 612.55 315.24 603.55 315.38 596.85 320.79 C 587.88 328.08 584.85 340.23 584.41 351.31 C 584.32 369.83 584.40 388.35 584.37 406.87 C 573.08 406.88 561.79 406.87 550.50 406.88 C 550.49 366.46 550.50 326.04 550.50 285.63 C 561.79 285.62 573.08 285.62 584.37 285.63 C 584.38 290.89 584.38 296.16 584.37 301.42 Z" />
<path fill="#1a8bb6" opacity="1.00" d=" M 687.48 284.65 C 702.43 282.26 718.41 283.90 731.84 291.21 C 747.07 299.60 758.90 314.45 762.59 331.57 C 764.73 341.63 764.68 352.20 762.29 362.22 C 758.40 378.44 747.12 392.47 732.70 400.65 C 718.30 408.77 700.86 410.28 684.83 407.15 C 666.68 403.55 650.76 391.02 642.38 374.62 C 635.91 361.85 634.60 346.86 637.24 332.91 C 641.86 308.51 662.98 288.40 687.48 284.65 M 691.47 313.73 C 681.14 316.62 673.52 325.98 671.19 336.24 C 669.62 343.24 669.67 350.66 671.53 357.60 C 674.10 367.09 681.34 375.53 690.90 378.41 C 698.10 380.55 706.14 380.16 712.97 376.93 C 721.45 372.83 727.37 364.35 729.15 355.19 C 731.72 342.56 729.00 327.88 718.78 319.24 C 711.45 312.74 700.73 311.18 691.47 313.73 Z" />
<path fill="#1a8bb6" opacity="1.00" d=" M 1051.13 291.18 C 1064.72 283.66 1081.00 282.09 1096.11 284.98 C 1109.97 287.54 1122.96 295.18 1131.47 306.49 C 1138.18 315.47 1141.38 326.83 1141.01 337.99 C 1114.17 349.10 1087.30 360.16 1060.47 371.30 C 1064.12 375.73 1069.19 378.97 1074.85 380.08 C 1090.20 383.34 1106.79 375.88 1115.53 363.05 C 1122.02 370.05 1128.51 377.05 1134.97 384.08 C 1127.28 392.19 1118.26 399.22 1107.90 403.56 C 1093.03 409.92 1075.96 410.04 1060.55 405.65 C 1043.06 400.65 1028.69 386.64 1022.63 369.58 C 1017.82 355.71 1017.34 340.26 1021.39 326.14 C 1025.79 310.90 1037.43 298.67 1051.13 291.18 M 1057.78 324.89 C 1052.71 331.18 1051.36 339.64 1052.02 347.50 C 1069.60 340.44 1087.13 333.26 1104.69 326.14 C 1103.77 322.89 1102.24 319.70 1099.54 317.56 C 1094.93 313.83 1088.74 313.01 1083.00 313.00 C 1073.39 313.01 1063.88 317.46 1057.78 324.89 Z" />
<path fill="#1a8bb6" opacity="1.00" d=" M 1198.88 301.31 C 1208.26 291.40 1221.10 284.06 1234.97 283.57 C 1235.20 294.21 1235.18 304.85 1235.25 315.50 C 1226.91 315.22 1217.70 315.40 1210.98 321.05 C 1202.35 328.31 1199.37 340.13 1198.90 350.97 C 1198.83 369.61 1198.90 388.24 1198.87 406.87 C 1187.58 406.88 1176.29 406.87 1165.01 406.88 C 1165.00 366.46 1165.00 326.04 1165.00 285.63 C 1176.29 285.62 1187.58 285.62 1198.87 285.63 C 1198.88 290.85 1198.86 296.08 1198.88 301.31 Z" />
<path fill="#1a8bb6" opacity="1.00" d=" M 1291.42 284.59 C 1310.72 281.03 1330.58 287.05 1346.47 298.05 C 1342.25 305.61 1338.03 313.17 1333.77 320.71 C 1324.17 314.10 1312.77 309.47 1300.96 309.88 C 1296.87 310.07 1292.40 310.44 1289.08 313.10 C 1286.11 315.61 1286.05 320.53 1288.64 323.33 C 1290.80 325.72 1293.94 326.82 1296.83 328.06 C 1309.49 333.16 1323.33 335.51 1335.02 342.87 C 1341.25 346.20 1345.87 352.24 1347.51 359.11 C 1349.41 367.27 1349.07 376.10 1345.96 383.93 C 1342.01 393.69 1333.35 400.93 1323.73 404.80 C 1308.30 410.82 1290.95 409.16 1275.44 404.33 C 1265.29 401.19 1255.71 396.18 1247.47 389.48 C 1252.42 382.38 1257.42 375.30 1262.39 368.20 C 1274.70 377.82 1290.32 383.99 1306.11 382.66 C 1310.58 382.18 1315.85 379.80 1316.69 374.90 C 1317.46 371.22 1314.89 367.97 1312.04 366.03 C 1304.78 360.96 1296.00 359.07 1287.79 356.14 C 1279.59 353.37 1271.72 349.42 1264.89 344.09 C 1253.52 334.68 1252.52 316.92 1259.46 304.60 C 1266.12 293.27 1278.74 286.62 1291.42 284.59 Z" />
</g>
</svg>
