<?xml version="1.0" encoding="UTF-8" ?>
<!DOCTYPE svg PUBLIC "-//W3C//DTD SVG 1.1//EN" "http://www.w3.org/Graphics/SVG/1.1/DTD/svg11.dtd">
<svg width="1353pt" height="955pt" viewBox="0 0 1353 955" version="1.1" xmlns="http://www.w3.org/2000/svg">
<g id="#ffffffff">
<path fill="#ffffff" opacity="1.00" d=" M 1300.00 0.00 L 1304.94 0.00 C 1320.70 290.64 1335.79 581.32 1350.99 871.99 C 1351.30 876.56 1350.90 881.34 1352.99 885.58 C 1326.67 886.29 1300.38 887.91 1274.09 889.35 C 919.72 907.84 565.36 926.48 211.00 945.02 C 169.99 947.08 129.01 949.57 87.98 951.25 C 74.09 951.86 60.20 952.52 46.31 953.28 C 30.80 659.91 15.61 366.53 0.00 73.16 L 0.00 68.27 C 70.71 65.09 141.37 61.10 212.06 57.43 C 354.21 50.00 496.35 42.55 638.50 35.07 C 648.94 33.85 659.45 33.84 669.93 33.16 C 879.95 22.05 1089.99 11.28 1300.00 0.00 M 1125.99 15.05 C 752.63 34.73 379.24 54.09 5.88 73.88 C 21.39 364.98 36.38 656.10 51.75 947.20 C 267.81 935.67 483.89 924.58 699.95 913.16 C 914.94 901.86 1129.94 890.57 1344.94 879.47 C 1344.47 860.30 1343.05 841.17 1342.15 822.02 C 1328.04 549.96 1313.48 277.93 1299.55 5.87 C 1241.71 9.13 1183.85 12.02 1125.99 15.05 Z" />
<path fill="#ffffff" opacity="1.00" d=" M 439.97 93.93 C 441.78 90.70 445.97 88.16 449.36 90.80 C 448.85 92.84 447.62 94.55 446.28 96.12 C 447.25 100.23 448.15 104.35 448.65 108.54 C 449.25 112.49 453.74 113.33 456.08 115.94 C 458.58 118.72 460.79 121.81 462.65 125.06 C 463.96 128.98 461.11 132.91 462.03 136.91 C 463.04 143.80 464.52 152.35 458.49 157.47 C 458.25 160.83 457.99 164.25 458.63 167.59 C 460.79 170.07 463.56 172.05 466.63 173.29 C 468.60 174.00 468.47 176.33 468.46 178.02 C 469.54 178.96 470.30 180.86 472.14 180.26 C 472.44 181.16 472.75 182.06 473.07 182.97 C 471.68 183.18 470.30 183.40 468.92 183.63 C 470.41 181.26 467.44 180.96 466.25 179.92 C 465.48 183.99 464.31 187.98 463.08 191.94 C 456.44 189.29 449.76 183.80 449.25 176.19 C 449.37 171.54 446.67 167.50 444.53 163.58 C 442.48 161.85 440.20 164.73 438.61 165.91 C 439.68 169.20 438.01 172.25 435.63 174.43 C 434.92 177.99 432.87 181.93 428.70 181.87 C 427.04 174.91 427.80 167.18 423.49 161.05 C 422.21 144.44 430.30 129.21 436.14 114.18 C 439.41 107.86 436.48 100.17 439.97 93.93 Z" />
<path fill="#ffffff" opacity="1.00" d=" M 1027.05 92.00 C 1031.12 89.05 1036.07 91.38 1040.58 91.53 C 1041.88 94.33 1044.41 96.29 1045.73 99.08 C 1047.26 102.40 1050.91 104.28 1052.01 107.86 C 1053.50 112.52 1053.94 117.73 1057.36 121.53 C 1057.31 122.30 1057.21 123.85 1057.16 124.62 C 1059.58 127.54 1062.41 131.21 1061.54 135.24 C 1060.87 139.58 1063.66 143.37 1065.07 147.27 C 1063.04 148.85 1061.11 150.55 1059.31 152.38 C 1061.71 153.60 1064.48 154.64 1065.96 157.07 C 1067.42 159.44 1066.42 162.33 1066.81 164.93 C 1067.27 169.52 1068.39 174.33 1066.49 178.76 C 1069.85 182.40 1069.41 187.64 1068.08 192.05 C 1068.69 193.16 1069.32 194.27 1069.96 195.38 C 1066.31 204.46 1069.25 214.27 1068.52 223.69 C 1066.96 225.02 1065.42 226.37 1063.87 227.71 C 1065.20 228.56 1066.55 229.41 1067.90 230.27 C 1067.55 233.39 1067.59 236.83 1065.52 239.42 C 1063.57 241.82 1063.87 245.12 1063.15 247.97 C 1062.71 253.81 1057.89 258.41 1058.45 264.43 C 1053.43 268.29 1054.38 275.06 1053.27 280.56 C 1052.70 282.98 1051.55 285.88 1048.89 286.57 C 1043.26 287.49 1037.50 286.30 1032.03 288.14 C 1029.10 285.22 1025.69 282.80 1023.09 279.56 C 1021.95 279.25 1020.81 278.95 1019.69 278.66 C 1019.60 277.38 1019.54 276.11 1019.48 274.85 C 1014.60 273.43 1008.32 273.23 1005.79 268.00 C 1008.59 265.48 1012.70 264.74 1015.83 267.13 C 1015.80 266.46 1015.74 265.12 1015.71 264.45 C 1012.54 260.11 1011.67 253.30 1005.88 251.53 C 1003.60 251.96 1001.60 253.22 999.52 254.16 C 1001.22 259.78 1000.74 265.92 997.72 270.98 C 996.85 276.53 995.38 283.87 988.81 285.14 C 989.97 286.02 991.25 286.81 992.07 288.06 C 992.07 289.76 990.26 289.59 989.07 289.74 C 986.08 289.70 983.16 288.93 980.23 288.51 C 979.91 289.14 979.28 290.41 978.97 291.04 C 980.00 291.11 982.06 291.25 983.09 291.32 C 982.10 293.00 980.83 294.48 979.20 295.56 C 977.67 294.54 976.16 293.50 974.66 292.47 C 972.65 292.59 970.63 292.66 968.63 292.71 C 968.05 294.15 967.49 295.58 966.92 297.02 C 965.22 296.31 963.21 295.23 963.27 293.09 C 962.91 288.94 964.01 284.87 965.03 280.89 C 970.19 277.30 967.58 270.58 969.39 265.55 C 970.71 261.97 970.79 258.06 972.31 254.55 C 973.05 252.31 974.46 249.84 973.38 247.49 C 971.49 243.68 973.39 239.49 973.49 235.50 C 976.83 235.09 979.35 232.97 981.55 230.58 C 982.30 224.20 981.93 217.21 985.65 211.63 C 987.74 208.49 989.64 205.21 991.08 201.70 C 988.40 197.04 983.79 191.30 986.95 185.84 C 989.55 180.77 993.92 176.86 998.48 173.59 C 999.54 172.78 1001.11 173.13 1002.11 173.91 C 1006.32 177.15 1008.48 182.21 1010.17 187.09 C 1013.35 196.40 1014.36 206.58 1019.62 215.10 C 1023.75 221.52 1027.63 228.14 1030.66 235.16 C 1032.31 239.35 1036.52 241.47 1040.00 243.92 C 1038.48 236.76 1039.26 229.31 1041.83 222.49 C 1040.92 211.33 1040.87 200.07 1039.30 188.97 C 1038.67 184.42 1040.95 180.28 1042.05 176.01 C 1042.34 171.70 1037.33 168.59 1038.59 164.13 C 1039.60 161.59 1042.58 160.83 1044.63 159.31 C 1043.28 155.16 1038.32 155.14 1035.75 152.25 C 1034.52 149.95 1035.43 147.23 1035.26 144.76 C 1034.44 142.72 1033.15 140.92 1032.07 139.03 C 1033.11 138.14 1034.19 137.26 1035.26 136.37 C 1034.35 131.92 1032.31 127.61 1032.96 122.98 C 1031.53 118.76 1030.64 114.40 1030.70 109.92 C 1032.97 108.42 1035.17 106.66 1036.15 104.01 C 1037.28 104.77 1037.91 107.14 1039.53 106.69 C 1040.98 103.34 1037.25 100.24 1034.08 100.71 C 1032.13 101.06 1031.90 103.15 1031.21 104.62 C 1029.33 100.56 1029.34 95.90 1027.05 92.00 Z" />
<path fill="#ffffff" opacity="1.00" d=" M 894.99 188.26 C 897.13 188.37 899.00 187.06 900.93 186.30 C 904.27 188.58 908.34 186.02 911.62 188.39 C 917.11 187.88 922.29 189.96 927.53 191.22 C 930.39 189.85 933.71 189.06 936.82 190.11 C 939.49 190.80 940.93 193.36 943.05 194.92 C 946.02 196.80 945.96 200.69 947.16 203.66 C 945.55 206.41 946.82 209.37 947.82 212.06 C 944.57 212.57 941.29 212.84 938.00 212.89 C 934.69 213.49 932.15 215.97 929.12 217.26 C 928.39 216.26 927.69 215.26 926.99 214.25 C 923.74 214.12 920.49 214.16 917.27 214.44 C 915.32 216.79 912.84 218.69 909.79 219.30 C 908.79 218.55 907.80 217.81 906.81 217.07 C 902.93 217.11 899.06 217.06 895.20 216.97 C 893.00 219.51 889.48 219.36 886.66 220.74 C 883.22 222.34 879.29 221.82 875.82 220.64 C 873.60 222.34 871.11 223.90 869.55 226.26 C 869.17 230.90 867.98 235.40 866.96 239.92 C 870.42 239.24 872.84 236.55 875.84 234.94 C 878.08 234.17 880.56 233.57 882.94 233.97 C 885.44 235.01 887.92 236.35 890.74 235.98 C 891.57 236.67 892.42 237.38 893.27 238.09 C 894.31 237.14 895.37 236.19 896.45 235.25 C 900.82 236.57 905.50 236.71 909.81 238.19 C 913.95 240.63 918.78 241.63 923.56 241.14 C 924.91 243.62 926.92 246.11 929.96 246.39 C 932.66 246.13 935.31 245.24 938.07 245.52 C 938.56 247.32 938.94 249.16 939.45 250.96 C 940.38 253.42 942.92 255.23 942.87 258.06 C 942.14 260.40 940.79 262.46 939.66 264.61 C 936.86 265.54 933.97 266.90 930.97 266.25 C 928.03 265.39 925.10 266.47 922.19 266.82 C 921.23 265.59 920.27 264.35 919.34 263.13 C 918.48 264.89 917.62 266.65 916.77 268.42 C 916.05 268.67 914.61 269.18 913.89 269.44 C 905.33 266.88 896.80 263.47 887.72 263.63 C 886.56 264.64 885.55 266.04 883.93 266.26 C 880.80 266.88 878.07 264.48 874.97 264.76 C 871.73 264.95 868.30 265.45 865.44 263.55 C 863.81 267.91 861.90 272.24 861.17 276.87 C 861.69 280.02 863.55 282.79 863.79 286.01 C 863.88 289.03 867.29 289.93 869.65 290.66 C 873.61 291.70 876.54 294.79 880.27 296.34 C 886.58 296.24 893.00 296.14 899.18 294.62 C 903.41 293.50 907.73 294.72 912.00 294.76 C 913.76 293.93 914.81 292.21 916.06 290.79 C 919.58 290.51 923.13 290.91 926.48 292.05 C 929.04 290.66 931.62 288.86 934.70 289.14 C 934.66 291.78 932.72 293.60 931.30 295.59 C 932.06 297.67 933.63 299.78 932.35 302.02 C 930.35 301.88 928.36 301.76 926.39 301.61 C 923.45 308.51 917.01 312.74 912.14 318.13 C 910.38 318.00 908.63 317.88 906.90 317.75 C 906.27 319.10 905.64 320.45 905.04 321.81 C 902.89 321.36 900.60 320.63 898.48 321.52 C 896.13 322.37 895.27 325.23 892.91 326.01 C 890.56 326.69 888.09 326.84 885.70 327.27 C 883.46 325.37 881.16 322.86 877.99 322.87 C 874.43 323.25 870.79 325.18 867.24 323.82 C 864.82 322.49 864.70 319.37 863.86 317.05 C 862.30 317.18 860.76 317.31 859.22 317.45 C 857.17 314.23 854.72 310.12 850.26 310.68 C 848.77 308.72 846.67 307.41 844.21 307.11 C 843.79 305.80 843.42 304.50 843.02 303.20 C 838.51 301.13 838.15 295.83 836.15 291.91 C 834.70 288.97 834.24 285.71 833.68 282.53 C 835.98 278.00 836.35 272.89 836.43 267.90 C 836.42 262.27 842.07 257.01 838.44 251.45 C 840.80 246.98 842.28 242.11 844.36 237.51 C 847.03 231.90 850.73 226.64 852.54 220.72 C 850.19 220.96 846.17 221.95 845.63 218.61 C 843.84 213.86 847.11 209.47 850.27 206.27 C 853.17 203.20 855.38 199.24 859.41 197.46 C 865.43 194.95 871.58 192.71 877.39 189.74 C 883.14 188.42 889.09 187.95 894.99 188.26 Z" />
<path fill="#ffffff" opacity="1.00" d=" M 780.04 194.33 C 789.98 195.56 800.14 189.84 809.84 194.11 C 813.58 195.14 814.21 199.41 815.76 202.40 C 817.44 202.12 819.13 201.82 820.83 201.51 C 824.36 205.17 827.76 208.96 831.29 212.62 C 829.52 215.51 827.80 218.43 826.07 221.34 C 821.03 220.76 815.93 221.53 810.92 220.50 C 807.89 219.80 806.60 223.18 804.66 224.77 C 802.56 227.35 799.05 227.11 796.17 228.05 C 794.12 228.66 792.56 230.18 791.09 231.65 C 792.43 236.26 793.43 241.31 791.38 245.89 C 793.97 251.21 791.89 257.20 793.26 262.77 C 792.75 263.37 791.74 264.59 791.23 265.19 C 793.73 271.52 792.95 278.38 792.87 284.99 C 795.07 293.07 796.31 303.42 789.21 309.51 C 786.78 308.33 784.11 307.79 781.43 308.37 C 778.76 306.28 776.02 304.22 772.81 303.06 C 772.64 301.99 772.49 300.92 772.34 299.86 C 770.65 298.56 768.98 297.25 767.34 295.91 C 766.61 293.60 765.55 291.39 765.05 289.02 C 764.77 286.34 765.51 283.65 765.08 280.97 C 764.69 276.94 762.85 273.28 761.86 269.41 C 761.98 266.59 761.85 263.73 760.52 261.18 C 761.12 258.12 761.79 255.04 761.59 251.91 C 760.94 248.59 764.55 246.33 764.14 243.04 C 763.95 239.13 763.78 235.22 764.18 231.31 C 758.46 229.58 751.67 231.38 746.82 227.22 C 744.15 224.95 738.82 224.58 739.06 220.11 C 750.79 214.36 757.37 202.02 768.79 195.85 C 772.18 193.83 776.25 194.04 780.04 194.33 Z" />
<path fill="#ffffff" opacity="1.00" d=" M 501.41 209.44 C 504.91 204.04 511.44 201.63 515.16 196.37 C 518.91 197.22 521.43 199.99 523.72 202.88 C 527.37 200.83 531.42 197.61 535.87 199.12 C 539.12 200.61 541.91 202.93 545.10 204.57 C 547.63 203.49 550.87 200.97 553.40 203.42 C 555.92 205.78 559.49 206.42 562.67 205.05 C 568.54 208.29 574.49 211.61 579.31 216.34 C 579.32 217.63 579.34 218.92 579.38 220.21 C 584.23 223.87 578.97 229.38 580.03 234.05 C 580.52 236.65 577.99 238.22 576.60 240.01 C 577.85 242.28 577.52 244.83 575.20 246.20 C 572.65 249.91 567.93 251.69 566.31 256.06 C 563.42 256.03 560.49 255.93 557.74 256.90 C 559.31 258.64 560.64 260.58 561.50 262.78 C 558.02 262.86 554.52 262.87 551.08 263.45 C 552.78 271.35 557.00 278.68 563.18 283.92 C 565.48 285.52 563.85 288.33 563.31 290.42 C 570.37 301.25 577.87 311.83 586.42 321.53 C 587.93 323.37 590.03 324.64 592.44 324.78 C 595.80 320.37 598.28 315.37 600.07 310.14 C 600.76 307.60 603.17 306.28 605.13 304.83 C 604.52 309.27 604.86 313.78 606.15 318.08 C 607.31 322.00 605.72 326.00 606.10 329.97 C 606.90 335.02 603.68 339.44 603.22 344.35 C 599.78 347.17 599.58 351.83 597.66 355.54 C 596.05 356.56 594.20 355.52 592.55 355.26 C 589.54 357.27 586.02 358.28 582.41 358.43 C 581.89 357.58 581.38 356.72 580.88 355.88 C 576.88 357.31 572.66 356.52 568.75 355.27 C 567.35 351.99 564.18 350.27 561.16 348.76 C 557.35 341.75 552.33 335.49 548.80 328.33 C 540.06 320.37 541.67 306.57 532.99 298.59 C 532.90 297.94 532.74 296.64 532.66 295.99 C 528.52 292.25 529.81 286.25 528.32 281.43 C 527.85 279.69 525.63 278.82 524.10 279.77 C 522.16 280.37 523.12 282.62 523.12 284.05 C 523.47 287.07 524.14 290.05 524.69 293.04 C 523.79 293.74 522.90 294.45 522.01 295.15 C 524.00 301.03 524.64 308.82 518.98 312.91 C 521.23 315.65 524.42 318.14 524.87 321.89 C 524.48 325.75 522.19 329.07 520.61 332.53 C 518.98 333.38 517.03 332.46 515.31 332.51 C 514.47 336.89 518.67 339.19 522.36 339.57 C 518.49 342.62 512.96 341.05 509.19 344.24 C 507.07 345.89 504.36 346.16 501.80 345.65 C 498.59 333.87 500.79 321.60 499.92 309.61 C 501.67 302.52 500.46 295.21 500.98 288.01 C 502.14 270.13 497.66 252.55 496.87 234.75 C 497.79 233.90 498.72 233.05 499.65 232.21 C 498.96 229.27 498.11 226.37 496.89 223.61 C 498.22 218.83 499.67 214.08 501.41 209.44 M 538.48 227.27 C 535.21 231.56 529.90 233.16 525.12 235.12 C 524.13 233.71 523.15 232.30 522.16 230.90 C 519.96 232.17 518.14 233.95 516.67 236.01 C 519.32 238.34 521.83 240.93 523.42 244.14 C 521.12 247.20 521.14 251.13 520.36 254.71 C 521.87 255.43 523.38 256.15 524.91 256.88 C 527.64 252.90 530.15 248.78 532.78 244.74 C 535.21 240.89 539.54 238.25 540.46 233.52 C 541.75 232.92 543.06 232.34 544.37 231.76 C 542.13 230.66 539.96 229.33 538.48 227.27 Z" />
<path fill="#ffffff" opacity="1.00" d=" M 274.17 199.37 C 274.77 199.05 275.97 198.42 276.57 198.11 C 277.10 203.47 275.39 208.80 276.20 214.14 C 281.25 236.35 282.39 259.24 282.23 281.94 C 282.49 286.02 279.30 289.35 279.80 293.47 C 283.56 294.12 286.85 291.76 288.71 288.67 C 292.41 283.95 292.29 277.70 293.70 272.14 C 294.64 267.23 296.68 262.47 300.29 258.93 C 301.20 259.68 302.12 260.42 303.04 261.17 C 302.08 262.55 301.12 263.92 300.18 265.31 C 302.06 266.08 303.99 266.75 305.94 267.34 C 309.80 261.84 313.29 255.99 318.55 251.63 C 323.18 248.50 325.45 243.05 330.07 239.87 C 331.38 240.23 332.69 240.59 334.01 240.95 C 334.52 238.52 334.21 234.97 337.23 234.20 C 342.78 232.29 346.22 225.60 352.78 226.59 C 353.78 225.75 354.78 224.90 355.78 224.05 C 356.04 227.91 360.12 227.84 363.01 227.40 C 366.50 226.64 368.81 229.91 371.50 231.49 C 371.87 229.53 372.02 227.54 372.08 225.55 C 372.96 225.38 373.86 225.22 374.75 225.06 C 376.20 227.26 377.64 229.47 379.04 231.71 C 378.24 233.25 377.43 234.80 376.62 236.35 C 376.61 237.75 376.85 239.19 376.54 240.58 C 373.29 242.91 369.20 243.35 365.35 243.76 C 363.93 242.78 362.50 241.81 361.08 240.84 C 360.88 243.65 361.17 246.59 360.24 249.31 C 357.22 251.99 352.70 251.36 349.41 253.49 C 346.56 256.62 345.09 261.09 341.08 263.07 C 337.37 265.03 335.59 268.97 333.16 272.17 C 331.27 274.89 327.98 276.19 326.13 278.95 C 324.33 281.55 322.59 284.22 320.33 286.47 C 326.07 295.20 332.49 303.55 336.88 313.09 C 338.26 316.36 342.49 318.01 342.60 321.86 C 342.67 326.14 344.70 329.99 347.20 333.34 C 347.27 338.58 350.57 342.91 351.71 347.86 C 351.33 351.04 348.27 352.68 346.23 354.76 C 347.98 355.86 349.77 356.90 351.63 357.81 C 351.57 360.34 351.50 364.32 348.22 364.67 C 341.87 367.01 335.81 362.57 332.07 357.83 C 327.85 349.11 322.43 341.04 316.35 333.52 C 313.47 329.74 309.96 326.38 307.88 322.06 C 306.04 318.40 303.72 314.83 300.04 312.81 C 290.62 324.41 281.11 336.31 275.26 350.19 C 273.07 356.77 270.95 364.81 263.85 367.70 C 260.92 369.46 259.49 365.54 258.57 363.47 C 252.42 349.24 259.14 333.75 256.57 319.04 C 255.30 309.44 254.82 299.72 255.70 290.07 C 256.22 275.37 257.31 260.64 260.14 246.18 C 261.50 239.58 260.74 232.70 262.58 226.17 C 264.04 221.62 260.64 216.87 262.61 212.42 C 266.04 207.66 272.47 205.44 274.17 199.37 Z" />
<path fill="#ffffff" opacity="1.00" d=" M 699.36 203.39 C 699.94 200.38 704.86 200.18 705.71 203.13 C 707.22 206.69 710.27 209.83 709.81 213.97 C 710.55 214.19 712.04 214.62 712.79 214.83 C 715.90 222.80 716.00 231.63 714.31 239.94 C 712.46 248.37 713.95 257.43 710.18 265.44 C 711.35 272.94 711.26 280.62 709.77 288.07 C 708.73 290.47 711.30 292.55 710.39 294.95 C 708.33 303.14 709.59 311.84 707.04 319.94 C 705.86 322.50 706.69 325.26 706.67 327.94 C 706.76 334.83 704.34 341.67 699.95 346.98 C 696.68 346.74 693.43 346.40 690.18 346.06 C 689.28 344.90 688.38 343.74 687.49 342.58 C 685.93 342.91 684.38 343.24 682.84 343.58 C 680.44 341.53 678.81 338.79 677.68 335.88 C 675.89 335.57 674.07 335.34 672.33 334.85 C 667.73 331.25 664.35 326.33 661.71 321.17 C 656.30 319.24 656.22 312.82 656.40 308.04 C 656.80 303.28 652.01 300.88 649.76 297.38 C 649.07 291.75 647.17 286.36 644.33 281.45 C 642.17 286.01 641.81 291.09 640.54 295.91 C 639.43 300.20 635.75 303.30 634.90 307.70 C 634.14 311.58 632.08 315.00 630.80 318.71 C 628.86 324.56 623.32 328.21 621.03 333.89 C 620.08 336.54 617.15 337.34 614.91 338.53 C 611.44 335.70 614.57 331.61 614.41 328.19 C 612.11 322.78 615.01 317.24 614.84 311.71 C 615.32 311.53 616.29 311.17 616.78 310.99 C 617.00 307.98 617.96 305.10 618.30 302.11 C 618.02 299.37 616.69 296.82 616.73 294.05 C 617.17 290.62 619.30 287.77 620.93 284.82 C 619.27 278.19 626.46 273.45 625.16 266.91 C 624.24 264.15 626.59 262.30 628.59 260.94 C 627.89 258.01 627.26 254.95 627.95 251.95 C 628.49 248.11 631.58 245.07 631.46 241.08 C 631.51 238.02 632.15 235.02 632.31 231.98 C 631.99 229.16 630.95 226.50 630.27 223.77 C 631.67 221.05 634.17 218.35 633.16 215.06 C 631.70 210.75 637.37 210.62 640.16 210.59 C 641.55 209.52 642.93 208.43 644.33 207.37 C 646.71 209.09 648.93 211.17 650.18 213.88 C 652.53 218.34 652.34 223.52 653.77 228.27 C 656.86 239.26 663.06 249.12 665.59 260.31 C 668.36 261.96 667.93 265.21 667.55 267.95 C 670.53 272.40 673.36 277.06 674.74 282.27 C 675.19 283.74 675.39 285.35 676.39 286.60 C 680.88 292.42 681.65 300.15 686.06 306.03 C 686.61 300.35 686.58 294.64 685.93 288.97 C 687.56 282.52 686.63 275.86 685.20 269.47 C 684.29 266.18 686.10 263.07 686.61 259.89 C 686.47 254.94 684.53 249.99 685.70 245.03 C 686.16 242.77 688.11 241.41 689.93 240.25 C 689.37 233.82 685.84 227.61 687.41 221.09 C 688.75 218.13 691.31 215.97 693.39 213.54 C 698.33 212.70 698.32 207.19 699.36 203.39 Z" />
<path fill="#ffffff" opacity="1.00" d=" M 426.15 218.10 C 430.90 210.83 438.82 205.86 447.38 204.51 C 449.33 207.14 451.85 209.65 452.30 213.05 C 453.53 221.88 456.00 230.46 458.77 238.91 C 458.09 240.35 457.41 241.80 456.74 243.25 C 458.55 244.12 460.74 244.57 462.05 246.22 C 464.36 252.89 463.96 260.13 465.58 266.96 C 466.56 270.06 469.40 272.13 470.54 275.15 C 471.14 278.01 470.81 280.99 471.49 283.85 C 472.00 285.65 473.33 287.05 474.09 288.75 C 476.04 293.28 476.14 298.37 475.36 303.19 C 477.99 304.03 480.64 305.01 482.70 306.94 C 481.83 308.85 480.33 310.32 478.80 311.70 C 480.18 315.78 482.15 319.76 482.26 324.15 C 482.86 328.82 481.19 333.45 482.08 338.10 C 482.48 341.28 479.22 343.11 477.43 345.24 C 472.94 346.32 468.91 348.99 464.21 349.21 C 462.58 344.74 458.93 341.34 457.46 336.82 C 457.08 331.46 455.13 326.34 455.17 320.94 C 453.31 318.97 451.76 316.74 450.57 314.31 C 443.51 316.52 435.55 317.02 428.83 313.50 C 427.96 314.49 427.10 315.48 426.25 316.48 C 423.24 316.14 420.33 315.27 417.66 313.84 C 416.53 314.32 415.40 314.80 414.27 315.29 C 406.27 312.55 397.92 317.20 389.91 314.60 C 387.29 313.53 384.55 314.65 382.70 316.57 C 383.29 318.40 383.90 320.23 384.51 322.06 C 382.55 325.03 381.85 328.53 380.81 331.86 C 377.99 335.98 375.19 340.54 370.65 342.96 C 367.32 342.90 366.46 338.93 364.67 336.79 C 362.82 337.42 360.98 338.07 359.13 338.69 C 355.69 333.75 354.46 327.31 355.51 321.44 C 358.30 315.08 362.75 307.68 358.61 300.84 C 361.10 300.02 363.75 299.51 366.04 298.17 C 367.82 296.85 368.80 294.78 370.11 293.03 C 387.98 267.46 408.84 244.09 426.15 218.10 M 424.88 259.58 C 421.24 265.12 417.29 270.55 414.77 276.75 C 417.46 278.07 420.36 278.91 423.38 278.92 C 423.98 280.18 424.25 282.05 426.02 282.12 C 429.12 282.23 432.10 281.07 435.16 280.67 C 435.52 282.30 435.82 283.93 436.13 285.57 C 438.06 284.46 440.01 283.38 441.97 282.32 C 441.48 278.26 441.22 274.17 440.44 270.15 C 440.16 266.38 436.29 264.70 434.64 261.61 C 435.77 260.64 436.92 259.69 438.08 258.75 C 434.80 257.33 433.28 254.04 433.31 250.61 C 428.09 250.07 425.66 255.30 424.88 259.58 Z" />
<path fill="#ffffff" opacity="1.00" d=" M 949.90 255.98 C 950.58 255.27 951.29 254.58 952.03 253.92 C 952.74 254.81 954.43 256.14 953.27 257.34 C 952.23 259.26 949.89 257.65 949.90 255.98 Z" />
<path fill="#ffffff" opacity="1.00" d=" M 1001.88 255.34 C 1004.06 252.93 1006.77 254.56 1008.34 256.70 C 1006.01 257.90 1002.54 258.78 1001.88 255.34 Z" />
<path fill="#ffffff" opacity="1.00" d=" M 942.89 263.13 C 945.30 262.77 948.05 262.58 949.54 264.95 C 948.26 265.89 946.90 267.49 945.12 266.77 C 943.36 266.46 943.20 264.52 942.89 263.13 Z" />
<path fill="#ffffff" opacity="1.00" d=" M 1043.42 292.12 C 1042.18 288.99 1045.92 287.46 1047.91 289.71 C 1047.61 290.30 1047.03 291.48 1046.74 292.07 C 1045.91 292.08 1044.25 292.11 1043.42 292.12 Z" />
<path fill="#ffffff" opacity="1.00" d=" M 746.87 361.44 C 748.87 360.56 750.78 359.50 752.78 358.60 C 753.72 359.57 754.67 360.55 755.63 361.53 C 759.86 359.84 764.45 359.87 768.93 360.06 C 777.84 360.46 786.83 357.64 795.65 359.90 C 799.79 357.56 804.54 358.73 808.90 359.67 C 812.25 360.54 815.60 359.22 818.99 359.46 C 822.01 359.63 825.00 359.09 828.03 359.04 C 833.91 359.99 839.85 361.97 845.87 360.79 C 852.69 359.31 859.72 360.34 866.61 359.29 C 872.69 360.34 879.01 361.38 885.10 359.67 C 888.50 358.66 891.69 361.60 895.13 360.57 C 898.73 359.84 902.42 359.69 906.08 360.00 C 919.00 361.32 932.23 359.98 944.87 363.61 C 950.19 365.51 955.55 363.00 960.83 362.30 C 965.15 362.80 969.46 364.21 973.85 363.59 C 977.48 363.17 981.18 363.53 984.79 362.73 C 988.87 365.74 994.11 364.80 998.46 362.95 C 999.32 364.06 1000.19 365.18 1001.07 366.30 C 1003.10 363.26 1006.67 364.50 1008.30 367.19 C 1010.84 366.58 1013.51 366.90 1015.10 369.19 C 1016.91 368.59 1018.62 367.74 1020.31 366.84 C 1022.86 369.92 1026.76 371.05 1030.52 371.86 C 1032.10 369.44 1034.00 367.12 1037.22 367.28 C 1039.33 369.36 1042.31 369.21 1044.71 367.69 C 1045.48 368.44 1046.26 369.20 1047.06 369.96 C 1051.75 369.75 1057.30 372.92 1056.19 378.35 C 1053.48 378.41 1050.78 378.33 1048.09 378.15 C 1047.98 378.90 1047.74 380.40 1047.63 381.15 C 1044.60 380.71 1041.65 379.96 1038.66 379.43 C 1035.08 379.52 1031.60 380.55 1028.02 380.57 C 1027.88 381.69 1027.77 382.82 1027.68 383.95 C 1026.35 382.80 1025.61 381.36 1026.12 379.59 C 1020.45 378.60 1013.99 377.94 1009.18 381.78 C 1007.04 380.73 1004.91 379.67 1002.77 378.64 C 1003.04 380.36 1003.32 382.08 1003.62 383.81 C 997.42 380.99 990.27 378.70 983.57 381.20 C 980.52 379.47 976.42 379.17 974.45 382.59 C 972.29 381.87 970.17 381.04 967.97 380.53 C 964.34 381.21 960.93 383.10 957.13 382.74 C 956.06 383.82 955.02 384.91 953.97 386.00 C 952.90 385.61 951.84 385.22 950.79 384.84 C 949.28 385.33 947.75 385.74 946.23 386.13 C 946.00 384.38 945.81 382.64 945.65 380.89 C 943.12 380.28 940.75 379.26 938.52 377.95 C 937.92 378.88 937.32 379.81 936.73 380.74 C 932.28 380.56 928.39 382.84 924.67 384.96 C 925.29 383.64 925.93 382.32 926.58 381.01 C 925.84 379.78 925.11 378.55 924.35 377.36 C 922.64 379.20 922.19 381.64 922.09 384.06 C 917.71 384.45 913.00 382.81 910.99 378.66 C 909.89 379.94 909.04 381.56 907.51 382.38 C 903.90 382.89 900.24 382.36 896.62 382.43 C 895.02 385.11 892.35 384.04 890.21 382.85 C 886.91 381.03 883.31 382.81 880.23 384.18 C 879.44 382.51 878.74 380.81 878.15 379.08 C 876.82 381.39 875.12 383.87 872.20 384.09 C 870.19 383.70 870.10 381.18 869.31 379.69 C 867.59 379.29 865.85 378.93 864.14 378.65 C 865.13 380.71 866.78 382.31 868.18 384.09 C 866.52 384.41 864.86 384.73 863.22 385.04 C 862.74 383.47 862.27 381.89 861.81 380.33 C 859.89 380.35 857.99 380.37 856.09 380.35 C 855.64 381.49 855.22 382.63 854.79 383.78 C 853.21 383.09 851.67 382.42 850.12 381.74 C 849.13 382.37 848.15 383.00 847.18 383.63 C 846.24 382.73 845.34 381.84 844.43 380.95 C 841.77 384.57 837.02 384.06 833.16 383.28 C 828.44 382.26 823.71 384.30 819.00 383.29 C 818.71 382.18 818.43 381.07 818.16 379.97 C 815.12 381.71 811.77 382.80 808.34 383.42 C 807.75 383.08 806.59 382.39 806.01 382.05 C 803.75 382.89 801.37 382.44 799.05 382.37 C 796.70 383.23 794.74 385.28 792.06 385.06 C 787.84 384.86 782.57 385.70 780.03 381.47 C 779.28 382.23 778.54 382.99 777.81 383.76 C 774.82 383.97 771.92 384.69 769.00 385.29 C 766.66 385.29 764.50 384.22 762.30 383.60 C 754.15 386.13 745.46 385.05 737.08 384.92 C 733.35 385.24 729.65 386.43 725.89 385.76 C 720.50 384.83 715.09 385.94 709.72 386.35 C 704.56 385.63 699.18 386.52 694.21 384.68 C 692.26 385.78 690.46 387.38 688.17 387.68 C 680.46 388.99 672.72 387.04 664.99 387.44 C 662.93 387.70 661.03 386.70 659.01 386.67 C 656.30 387.14 653.78 388.57 650.99 388.51 C 647.62 388.52 644.29 387.95 640.93 387.98 C 637.66 387.68 635.24 391.07 631.93 390.41 C 628.32 389.91 624.69 389.26 621.04 389.48 C 618.68 389.85 616.48 390.95 614.07 390.97 C 608.39 391.35 602.71 393.08 597.00 391.98 C 594.08 391.28 591.08 391.58 588.17 392.18 C 580.36 393.68 572.34 392.28 564.52 393.69 C 559.37 394.65 554.15 393.50 548.98 393.97 C 543.96 394.69 539.04 395.92 534.06 396.83 C 530.98 397.51 528.09 395.41 525.01 396.19 C 517.40 397.36 509.72 397.99 502.05 398.55 C 491.20 400.86 480.11 401.60 469.09 402.50 C 461.72 402.83 453.78 402.48 447.36 406.73 C 441.03 405.78 434.56 406.08 428.21 406.57 C 422.21 408.34 415.94 409.74 409.67 408.73 C 403.95 411.58 397.33 410.60 391.38 412.65 C 386.17 414.15 381.50 410.10 376.31 410.38 C 375.59 411.88 375.87 414.32 373.87 414.87 C 367.89 417.51 361.06 413.07 355.22 416.38 C 350.27 417.98 344.99 418.13 339.87 418.88 C 332.09 420.74 324.03 419.73 316.15 420.69 C 313.09 421.03 310.11 422.17 306.99 421.86 C 301.34 421.41 295.71 422.46 290.06 422.03 C 284.51 421.78 278.63 422.98 273.34 420.79 C 271.18 419.06 269.84 416.53 268.85 414.00 C 268.48 411.23 271.87 410.60 273.93 410.45 C 282.39 410.22 290.62 407.67 299.11 407.90 C 302.09 408.04 304.70 406.46 307.20 405.05 C 308.39 405.52 309.59 406.00 310.80 406.47 C 315.11 403.84 320.88 402.24 325.30 405.59 C 325.66 404.05 326.05 402.52 326.44 401.00 C 332.09 399.26 338.28 402.47 343.63 399.39 C 347.65 400.47 350.96 397.58 354.74 396.86 C 358.20 395.91 361.84 396.08 365.32 396.87 C 368.02 392.63 373.36 393.51 377.62 393.82 C 384.03 391.59 390.90 392.11 397.49 390.83 C 403.09 389.83 408.96 390.64 414.38 388.61 C 416.48 387.72 418.69 388.63 420.79 389.04 C 421.62 388.51 422.46 387.99 423.31 387.47 C 427.63 387.67 431.66 385.98 435.58 384.38 C 442.74 381.46 450.59 381.53 458.18 381.06 C 460.18 380.86 462.05 381.73 463.96 382.21 C 469.56 377.29 477.17 381.62 483.55 379.41 C 488.03 378.05 492.98 378.54 497.19 376.21 C 502.76 377.62 508.39 374.33 513.91 376.30 C 517.11 375.35 520.16 373.99 523.21 372.67 C 528.15 373.38 533.10 372.43 538.05 372.51 C 540.50 372.58 542.51 370.96 544.59 369.88 C 546.96 371.17 549.20 372.93 551.91 373.47 C 555.20 373.32 557.60 370.49 560.84 370.09 C 563.53 369.54 566.28 369.92 568.95 370.46 C 573.52 366.51 579.68 369.56 584.97 368.25 C 591.97 366.95 599.27 368.07 606.15 365.91 C 608.72 365.09 611.28 367.36 613.86 366.34 C 617.53 365.41 621.33 364.73 625.15 364.97 C 628.43 365.35 631.58 366.93 634.95 366.37 C 639.64 365.86 644.37 366.36 649.05 365.72 C 651.85 365.12 654.46 366.58 657.05 367.44 C 658.23 365.77 659.09 363.68 660.97 362.64 C 662.43 363.00 663.75 363.77 665.12 364.41 C 669.09 362.10 673.69 362.79 678.03 363.16 C 681.45 363.49 684.53 361.26 687.96 361.61 C 691.31 361.77 694.68 362.66 698.04 361.98 C 702.70 360.95 707.51 362.35 712.16 361.14 C 714.30 360.36 716.27 361.86 718.28 362.38 C 720.07 362.49 721.85 362.10 723.64 361.93 C 724.25 363.14 724.88 364.36 725.52 365.59 C 726.63 363.88 727.67 362.11 729.00 360.56 C 730.96 359.96 732.70 361.47 734.44 362.13 C 736.91 361.51 739.28 360.47 741.81 360.10 C 743.52 360.40 745.09 361.70 746.87 361.44 Z" />
<path fill="#ffffff" opacity="1.00" d=" M 1076.91 371.07 C 1077.47 369.66 1078.32 369.45 1079.46 370.44 C 1080.29 371.90 1079.72 373.73 1079.92 375.34 C 1078.58 374.31 1076.24 373.13 1076.91 371.07 Z" />
<path fill="#ffffff" opacity="1.00" d=" M 1064.85 376.63 C 1062.70 376.16 1060.92 372.06 1064.28 372.31 C 1066.98 372.68 1066.36 375.21 1064.85 376.63 Z" />
<path fill="#ffffff" opacity="1.00" d=" M 941.21 385.81 C 940.54 384.28 940.32 382.67 941.60 381.37 C 942.81 382.05 944.04 382.74 945.28 383.43 C 944.69 385.29 943.00 385.91 941.21 385.81 Z" />
<path fill="#ffffff" opacity="1.00" d=" M 786.22 467.95 C 789.50 467.79 792.79 467.63 796.07 467.47 C 796.49 479.11 797.57 490.72 797.57 502.37 C 805.38 491.48 821.46 488.96 833.03 494.96 C 838.88 498.42 841.37 505.46 841.83 511.93 C 842.74 526.41 843.30 540.91 844.19 555.39 C 840.90 555.57 837.61 555.75 834.33 555.92 C 833.56 541.59 832.92 527.25 832.03 512.93 C 831.60 508.06 829.12 502.54 824.05 501.11 C 817.12 499.24 808.84 500.25 803.56 505.42 C 799.55 509.90 798.88 516.26 798.94 522.01 C 799.44 533.91 800.22 545.80 800.76 557.69 C 797.49 557.84 794.22 558.02 790.96 558.20 C 789.38 528.11 787.83 498.03 786.22 467.95 Z" />
<path fill="#ffffff" opacity="1.00" d=" M 639.46 475.64 C 642.74 475.47 646.02 475.34 649.31 475.22 C 650.80 505.29 652.54 535.34 653.96 565.41 C 650.71 565.55 647.46 565.72 644.21 565.91 C 642.64 535.82 641.06 505.73 639.46 475.64 Z" />
<path fill="#ffffff" opacity="1.00" d=" M 611.72 477.12 C 614.99 476.94 618.27 476.79 621.55 476.64 C 623.03 506.72 624.77 536.79 626.19 566.87 C 622.99 567.01 619.80 567.18 616.61 567.36 C 614.66 537.30 613.40 507.20 611.72 477.12 Z" />
<path fill="#ffffff" opacity="1.00" d=" M 587.42 481.54 C 591.78 480.02 596.26 484.66 595.17 489.01 C 595.31 493.88 588.39 496.22 585.20 492.83 C 582.47 489.52 582.77 482.98 587.42 481.54 Z" />
<path fill="#ffffff" opacity="1.00" d=" M 562.40 485.20 C 566.03 484.98 569.66 484.77 573.29 484.55 C 564.60 513.35 555.85 542.13 547.20 570.94 C 543.88 571.15 540.57 571.34 537.26 571.51 C 525.65 543.79 514.03 516.07 502.46 488.33 C 506.01 488.11 509.57 487.92 513.13 487.74 C 522.50 511.30 533.32 534.30 541.56 558.31 C 547.14 533.57 555.57 509.60 562.40 485.20 Z" />
<path fill="#ffffff" opacity="1.00" d=" M 748.16 497.04 C 756.94 493.70 766.72 494.52 775.57 497.17 C 774.71 500.06 773.82 502.94 772.95 505.83 C 765.81 503.80 757.72 502.22 750.76 505.68 C 745.55 508.12 742.56 513.65 741.67 519.14 C 740.61 525.81 740.92 532.78 742.84 539.27 C 744.45 544.64 748.17 549.84 753.78 551.44 C 761.68 553.86 769.93 551.09 777.24 548.03 C 777.35 551.03 777.47 554.05 777.60 557.06 C 768.13 561.26 756.91 562.58 747.15 558.59 C 738.60 554.93 733.36 546.07 731.85 537.18 C 730.31 527.75 730.29 517.53 734.76 508.85 C 737.52 503.38 742.43 499.16 748.16 497.04 Z" />
<path fill="#ffffff" opacity="1.00" d=" M 671.10 505.02 C 681.28 499.35 693.73 496.33 705.09 500.09 C 711.76 502.21 715.25 509.36 715.73 515.94 C 716.74 531.30 717.38 546.69 718.23 562.06 C 715.79 562.16 713.34 562.26 710.91 562.36 C 710.09 559.37 709.29 556.38 708.50 553.38 C 705.15 557.55 701.36 561.91 695.99 563.36 C 688.85 565.40 680.64 565.78 674.03 561.93 C 664.90 556.06 663.46 541.59 670.89 533.81 C 680.60 525.14 694.52 525.41 706.72 524.37 C 706.41 519.66 706.44 514.46 703.43 510.54 C 701.25 507.63 697.43 506.81 694.00 506.67 C 687.06 506.48 680.61 509.48 674.52 512.46 C 673.38 509.98 672.22 507.50 671.10 505.02 M 681.45 536.30 C 674.52 540.25 674.69 552.30 682.08 555.65 C 690.21 558.30 700.72 555.66 705.06 547.85 C 707.93 542.81 707.08 536.78 706.98 531.25 C 698.40 532.32 689.21 531.94 681.45 536.30 Z" />
<path fill="#ffffff" opacity="1.00" d=" M 585.30 505.21 C 588.55 505.04 591.79 504.86 595.05 504.68 C 596.26 525.89 597.28 547.10 598.43 568.31 C 595.15 568.48 591.87 568.62 588.60 568.78 C 587.54 547.59 586.37 526.40 585.30 505.21 Z" />
<path fill="#ffffff" opacity="1.00" d=" M 801.22 603.12 C 812.37 599.78 824.55 600.76 835.42 604.72 C 834.48 607.65 833.57 610.60 832.71 613.56 C 822.84 610.45 811.46 608.01 801.77 613.00 C 794.01 617.27 794.40 629.78 801.74 634.30 C 811.06 640.14 822.78 640.69 831.88 647.04 C 843.14 654.39 843.56 672.96 833.26 681.32 C 828.74 685.13 823.00 687.28 817.19 688.09 C 807.54 689.43 797.55 689.14 788.20 686.24 C 787.98 682.94 787.80 679.64 787.63 676.35 C 798.41 679.71 810.26 681.55 821.24 678.03 C 826.69 676.29 830.93 670.80 830.50 664.98 C 830.46 660.73 828.28 656.53 824.62 654.32 C 815.05 648.45 802.94 648.06 794.01 640.98 C 786.94 635.63 784.74 625.76 786.64 617.42 C 788.41 610.42 794.58 605.36 801.22 603.12 Z" />
<path fill="#ffffff" opacity="1.00" d=" M 586.07 608.80 C 589.28 608.68 592.50 608.53 595.73 608.38 C 596.68 627.48 598.03 646.56 598.50 665.68 C 606.66 654.54 615.89 644.22 624.91 633.79 C 628.69 632.84 632.88 633.31 636.81 632.86 C 628.69 642.36 620.54 651.84 612.44 661.36 C 622.23 673.07 632.07 684.73 641.89 696.42 C 637.85 696.60 633.82 696.80 629.79 697.01 C 621.95 687.37 613.96 677.85 605.98 668.33 C 603.72 670.51 601.46 672.70 599.21 674.90 C 599.70 682.78 600.04 690.67 600.51 698.55 C 597.26 698.73 594.02 698.91 590.78 699.11 C 589.26 669.01 587.63 638.90 586.07 608.80 Z" />
<path fill="#ffffff" opacity="1.00" d=" M 927.42 621.41 C 934.22 615.84 943.76 614.43 952.18 616.44 C 959.66 618.28 965.65 624.31 968.36 631.41 C 970.63 637.00 970.63 643.13 971.02 649.07 C 956.38 649.90 941.74 650.60 927.11 651.42 C 927.94 659.15 931.02 667.90 938.73 671.18 C 948.81 674.97 959.82 671.71 969.21 667.47 C 969.36 670.44 969.53 673.41 969.71 676.38 C 959.57 681.12 947.81 683.10 936.88 680.11 C 927.29 677.39 920.22 668.62 918.21 659.04 C 915.49 646.14 916.76 630.51 927.42 621.41 M 935.13 626.36 C 929.46 630.04 927.35 637.06 926.91 643.47 C 938.01 642.87 949.10 642.16 960.22 641.79 C 959.65 636.87 958.85 631.45 955.14 627.82 C 949.94 622.64 941.17 622.79 935.13 626.36 Z" />
<path fill="#ffffff" opacity="1.00" d=" M 866.08 622.12 C 873.16 618.55 881.78 617.92 889.23 620.73 C 895.38 622.98 900.20 628.15 902.63 634.18 C 904.99 639.98 905.42 646.32 905.54 652.51 C 890.93 653.33 876.31 653.99 861.71 654.87 C 862.52 662.65 865.65 671.51 873.47 674.70 C 883.55 678.48 894.39 674.94 903.85 671.01 C 903.95 673.83 904.03 676.65 904.16 679.47 C 896.31 684.22 886.85 685.24 877.87 684.75 C 868.83 684.28 860.17 678.88 855.93 670.85 C 851.54 662.68 850.98 653.01 852.05 643.95 C 853.18 635.13 858.03 626.35 866.08 622.12 M 869.16 630.11 C 863.73 633.82 862.12 640.73 861.34 646.87 C 872.51 646.24 883.70 645.77 894.87 645.08 C 894.10 640.00 893.22 634.36 889.17 630.76 C 883.71 625.94 875.08 626.35 869.16 630.11 Z" />
<path fill="#ffffff" opacity="1.00" d=" M 402.72 623.95 C 418.51 623.08 434.31 622.26 450.10 621.46 C 450.23 624.44 450.36 627.42 450.49 630.40 C 438.08 631.02 425.67 631.69 413.25 632.33 C 413.73 642.58 414.30 652.82 414.83 663.07 C 426.53 662.50 438.23 661.81 449.94 661.27 C 450.05 664.23 450.20 667.20 450.37 670.18 C 438.68 670.83 427.00 671.38 415.32 672.03 C 415.89 684.08 416.58 696.13 417.19 708.19 C 413.84 708.34 410.50 708.53 407.16 708.71 C 405.67 680.46 404.19 652.20 402.72 623.95 Z" />
<path fill="#ffffff" opacity="1.00" d=" M 729.97 628.95 C 734.91 625.94 740.95 626.09 746.53 626.48 C 746.28 629.56 746.02 632.64 745.79 635.74 C 741.19 635.29 736.21 634.75 732.00 637.11 C 724.88 640.86 720.81 649.13 721.22 657.05 C 721.75 668.75 722.46 680.44 723.04 692.14 C 719.76 692.29 716.49 692.47 713.22 692.66 C 712.13 671.44 711.00 650.23 709.90 629.02 C 712.61 628.89 715.32 628.77 718.05 628.65 C 718.57 632.47 719.12 636.29 719.72 640.11 C 722.56 635.94 725.45 631.50 729.97 628.95 Z" />
<path fill="#ffffff" opacity="1.00" d=" M 656.01 634.06 C 665.99 627.80 680.50 628.37 688.96 637.00 C 695.90 643.89 697.05 654.20 697.16 663.50 C 682.55 664.21 667.94 664.90 653.35 665.82 C 654.13 673.59 657.30 682.50 665.15 685.62 C 675.18 689.40 686.03 685.93 695.40 681.87 C 695.54 684.83 695.67 687.81 695.81 690.78 C 686.06 695.35 674.85 697.18 664.26 694.83 C 654.35 692.44 646.66 683.74 644.52 673.91 C 642.79 665.97 642.48 657.54 644.80 649.69 C 646.70 643.47 650.36 637.52 656.01 634.06 M 657.38 644.40 C 654.38 648.22 653.78 653.16 652.99 657.79 C 664.17 657.14 675.37 656.72 686.55 655.95 C 685.75 650.59 684.60 644.57 680.06 641.04 C 673.21 636.10 662.45 637.56 657.38 644.40 Z" />
<path fill="#ffffff" opacity="1.00" d=" M 525.96 643.00 C 536.20 637.35 548.69 634.32 560.09 638.11 C 566.59 640.34 570.14 647.35 570.58 653.87 C 571.63 669.24 572.22 684.63 573.09 700.00 C 570.65 700.13 568.22 700.27 565.80 700.42 C 565.00 697.46 564.21 694.49 563.43 691.53 C 559.95 695.49 556.29 699.87 550.99 701.33 C 544.02 703.30 536.11 703.72 529.53 700.29 C 518.78 694.19 517.93 676.22 528.54 669.57 C 538.28 663.15 550.39 663.39 561.56 662.31 C 561.36 656.46 561.01 648.93 555.04 645.93 C 546.36 642.59 537.15 646.56 529.39 650.49 C 528.25 647.99 527.10 645.49 525.96 643.00 M 536.92 673.88 C 529.40 677.52 529.24 690.45 537.16 693.70 C 545.06 696.27 555.01 693.71 559.56 686.45 C 562.79 681.32 562.01 675.00 561.87 669.25 C 553.49 670.24 544.63 669.98 536.92 673.88 Z" />
<path fill="#ffffff" opacity="1.00" d=" M 462.17 646.33 C 472.41 640.67 484.99 637.68 496.37 641.48 C 503.15 643.85 506.44 651.12 506.84 657.86 C 507.80 673.02 508.43 688.21 509.29 703.38 C 506.83 703.47 504.38 703.56 501.93 703.67 C 501.16 700.75 500.38 697.84 499.61 694.93 C 496.01 698.96 492.23 703.45 486.75 704.82 C 479.04 706.90 469.83 707.21 463.27 701.95 C 455.07 694.78 454.98 679.61 464.23 673.23 C 474.04 666.54 486.42 666.75 497.79 665.64 C 497.46 659.91 497.26 652.58 491.54 649.45 C 482.82 645.72 473.42 649.90 465.55 653.82 C 464.42 651.32 463.28 648.83 462.17 646.33 M 475.81 676.07 C 472.95 677.12 470.10 678.79 468.78 681.67 C 465.96 686.94 467.58 695.07 473.68 697.17 C 481.31 699.25 490.69 697.15 495.36 690.39 C 498.99 685.22 498.28 678.58 497.98 672.63 C 490.56 673.51 482.88 673.36 475.81 676.07 Z" />
<path fill="#ffffff" opacity="1.00" d=" M 898.73 727.80 C 909.21 725.48 920.25 726.55 930.36 729.98 C 929.45 732.97 928.55 735.97 927.69 738.98 C 917.95 735.83 906.86 733.63 897.17 738.09 C 889.30 742.15 889.18 754.88 896.50 759.56 C 906.39 765.91 919.15 766.12 928.44 773.62 C 935.93 779.66 937.30 790.94 933.73 799.50 C 930.36 807.23 922.19 811.58 914.25 813.15 C 903.94 814.89 893.16 814.78 883.14 811.60 C 882.94 808.34 882.78 805.08 882.63 801.82 C 894.15 805.24 907.05 807.42 918.46 802.46 C 926.76 798.74 927.92 785.63 920.56 780.39 C 912.62 774.92 902.67 774.00 894.18 769.69 C 890.58 767.83 887.12 765.40 884.84 761.99 C 880.93 756.16 880.02 748.56 881.89 741.85 C 884.25 734.42 891.43 729.56 898.73 727.80 Z" />
<path fill="#ffffff" opacity="1.00" d=" M 667.58 735.00 C 670.82 734.79 674.07 734.59 677.33 734.41 C 677.91 746.14 678.89 757.85 678.90 769.59 C 684.31 761.49 694.59 757.92 704.02 758.99 C 709.05 759.56 714.52 760.88 717.94 764.92 C 721.78 769.29 723.07 775.25 723.28 780.93 C 724.08 794.76 724.74 808.61 725.47 822.45 C 722.18 822.58 718.89 822.74 715.60 822.89 C 714.94 808.60 714.24 794.31 713.36 780.04 C 713.09 774.55 709.69 768.54 703.84 767.67 C 696.60 766.36 687.57 767.85 683.32 774.49 C 680.49 779.09 680.19 784.71 680.35 789.98 C 680.81 801.56 681.51 813.13 682.12 824.71 C 678.85 824.84 675.58 824.99 672.31 825.16 C 670.70 795.11 669.15 765.05 667.58 735.00 Z" />
<path fill="#ffffff" opacity="1.00" d=" M 1023.84 745.78 C 1031.79 740.29 1042.71 739.36 1051.44 743.51 C 1057.21 746.22 1061.51 751.55 1063.58 757.51 C 1065.53 762.96 1065.80 768.81 1065.96 774.54 C 1051.34 775.28 1036.71 775.98 1022.10 776.86 C 1022.93 784.49 1025.94 793.05 1033.40 796.48 C 1043.54 800.51 1054.69 797.05 1064.23 792.94 C 1064.38 795.87 1064.51 798.81 1064.52 801.76 C 1055.12 806.44 1044.19 808.10 1033.86 806.06 C 1023.91 804.05 1016.01 795.58 1013.55 785.89 C 1011.85 778.70 1011.39 771.14 1012.83 763.87 C 1014.27 756.85 1017.83 749.94 1023.84 745.78 M 1025.83 755.98 C 1023.16 759.69 1022.52 764.34 1021.83 768.73 C 1032.98 768.35 1044.11 767.62 1055.25 767.08 C 1054.61 761.89 1053.55 756.15 1049.38 752.55 C 1042.47 746.81 1030.85 748.56 1025.83 755.98 Z" />
<path fill="#ffffff" opacity="1.00" d=" M 956.67 750.52 C 964.73 743.85 976.73 742.44 986.14 747.00 C 991.85 749.76 996.11 755.06 998.15 761.01 C 1000.07 766.43 1000.34 772.24 1000.55 777.94 C 985.90 778.72 971.26 779.42 956.62 780.29 C 957.51 787.93 960.50 796.61 968.08 799.95 C 978.21 803.94 989.30 800.49 998.79 796.33 C 998.90 799.31 999.04 802.29 999.20 805.27 C 989.40 809.87 978.10 811.74 967.46 809.28 C 957.54 806.85 949.92 798.04 947.85 788.20 C 945.05 775.34 946.14 759.73 956.67 750.52 M 963.27 756.19 C 958.53 760.06 957.05 766.40 956.36 772.19 C 967.54 771.80 978.71 771.12 989.88 770.49 C 989.14 765.56 988.30 760.14 984.51 756.54 C 978.89 751.05 969.25 751.52 963.27 756.19 Z" />
<path fill="#ffffff" opacity="1.00" d=" M 523.30 746.18 C 526.54 744.14 531.58 746.11 532.14 750.03 C 533.47 753.94 530.46 759.10 526.00 758.51 C 520.12 758.24 518.62 749.10 523.30 746.18 Z" />
<path fill="#ffffff" opacity="1.00" d=" M 825.98 753.81 C 830.74 751.27 836.34 751.63 841.55 751.89 C 841.27 754.95 841.00 758.02 840.74 761.09 C 836.21 760.75 831.35 760.19 827.18 762.41 C 820.08 766.01 815.92 774.14 816.25 781.97 C 816.61 793.85 817.53 805.71 817.98 817.59 C 814.71 817.73 811.44 817.89 808.18 818.05 C 807.14 796.86 805.96 775.69 804.88 754.51 C 807.58 754.31 810.28 754.14 812.99 753.99 C 813.57 757.88 814.15 761.77 814.70 765.68 C 817.64 761.06 820.96 756.34 825.98 753.81 Z" />
<path fill="#ffffff" opacity="1.00" d=" M 351.49 755.82 C 361.80 754.37 373.11 755.78 381.60 762.25 C 390.09 768.63 394.76 778.90 396.37 789.19 C 397.57 797.77 397.79 806.68 395.60 815.13 C 393.42 823.78 388.34 831.89 380.74 836.75 C 372.54 842.01 362.44 843.33 352.89 842.59 C 343.64 841.91 334.48 837.63 328.73 830.23 C 321.73 821.47 319.39 809.98 319.06 799.01 C 318.74 788.56 320.63 777.50 327.10 769.01 C 332.82 761.31 342.12 756.97 351.49 755.82 M 352.52 764.76 C 346.57 765.54 340.84 768.31 336.87 772.88 C 332.38 777.82 330.66 784.55 329.87 791.02 C 328.98 799.83 330.05 808.86 332.94 817.24 C 335.82 824.73 342.06 831.33 350.09 833.07 C 359.39 835.11 370.05 833.99 377.52 827.66 C 384.87 821.00 386.91 810.47 386.63 800.97 C 386.65 790.83 384.92 779.90 378.08 771.98 C 371.81 764.91 361.46 763.26 352.52 764.76 Z" />
<path fill="#ffffff" opacity="1.00" d=" M 750.10 760.05 C 757.90 754.71 768.52 753.73 777.14 757.64 C 783.24 760.37 787.80 765.96 789.90 772.25 C 791.69 777.58 791.96 783.24 792.20 788.82 C 777.54 789.72 762.87 790.30 748.21 791.23 C 749.22 798.66 751.88 807.14 759.17 810.62 C 769.38 815.03 780.76 811.48 790.41 807.27 C 790.53 810.22 790.67 813.18 790.81 816.15 C 780.92 820.84 769.44 822.75 758.71 820.09 C 748.99 817.54 741.56 808.88 739.47 799.20 C 736.40 785.68 738.00 768.76 750.10 760.05 M 752.09 770.15 C 749.30 773.91 748.64 778.67 748.03 783.18 C 759.21 782.70 770.38 781.99 781.55 781.46 C 780.77 775.94 779.49 769.79 774.78 766.23 C 767.80 761.39 757.00 763.15 752.09 770.15 Z" />
<path fill="#ffffff" opacity="1.00" d=" M 628.39 764.48 C 637.39 760.62 647.65 761.49 656.86 764.13 C 656.03 767.04 655.16 769.95 654.30 772.86 C 646.86 770.63 638.24 769.12 631.15 773.18 C 625.52 776.35 623.04 782.98 622.59 789.13 C 622.11 796.02 622.53 803.25 625.50 809.60 C 627.47 813.90 631.18 817.59 635.90 818.67 C 643.60 820.64 651.45 817.95 658.55 815.07 C 658.66 818.03 658.81 820.99 658.99 823.95 C 649.31 828.44 637.63 829.66 627.71 825.23 C 619.51 821.37 614.63 812.68 613.15 804.02 C 611.70 795.22 611.66 785.83 615.27 777.53 C 617.76 771.70 622.52 766.89 628.39 764.48 Z" />
<path fill="#ffffff" opacity="1.00" d=" M 552.41 772.05 C 562.31 766.44 574.32 763.59 585.49 766.74 C 590.29 767.98 593.92 772.00 595.63 776.54 C 597.10 780.14 597.13 784.10 597.37 787.93 C 598.20 801.63 598.80 815.34 599.53 829.04 C 597.09 829.13 594.66 829.24 592.22 829.35 C 591.45 826.44 590.68 823.54 589.92 820.64 C 586.33 824.45 582.76 828.82 577.52 830.30 C 570.49 832.33 562.47 832.76 555.84 829.23 C 545.98 823.45 544.54 807.68 552.99 800.08 C 562.82 792.15 576.14 792.44 588.06 791.30 C 587.79 785.42 587.45 777.60 581.21 774.81 C 572.59 771.63 563.56 775.63 555.86 779.46 C 554.71 776.98 553.56 774.51 552.41 772.05 M 562.55 803.45 C 555.87 807.50 556.07 819.31 563.37 822.59 C 571.39 825.26 581.62 822.73 586.14 815.22 C 589.23 810.15 588.50 803.95 588.21 798.30 C 579.59 799.32 570.29 798.90 562.55 803.45 Z" />
<path fill="#ffffff" opacity="1.00" d=" M 522.40 769.24 C 525.67 769.09 528.95 768.93 532.22 768.80 C 533.29 789.99 534.44 811.19 535.54 832.38 C 532.27 832.53 529.00 832.67 525.74 832.86 C 524.59 811.65 523.52 790.44 522.40 769.24 Z" />
<path fill="#ffffff" opacity="1.00" d=" M 471.63 774.65 C 482.52 767.68 496.41 769.24 508.18 772.93 C 507.15 775.68 506.12 778.44 505.08 781.20 C 496.36 778.41 486.31 776.23 477.75 780.65 C 473.48 782.70 473.03 789.41 476.85 792.14 C 485.65 798.33 497.36 798.29 505.98 804.84 C 514.03 810.87 513.55 824.63 505.52 830.49 C 499.69 834.98 492.07 835.96 484.93 836.13 C 479.03 836.29 473.09 835.45 467.55 833.39 C 467.35 830.25 467.15 827.12 466.94 824.00 C 476.57 827.79 487.82 829.91 497.62 825.53 C 502.91 823.35 504.02 815.00 499.17 811.77 C 490.22 805.41 478.20 805.40 469.64 798.34 C 462.54 792.29 463.45 779.36 471.63 774.65 Z" />
<path fill="#ffffff" opacity="1.00" d=" M 416.18 777.19 C 427.15 770.83 440.69 772.12 452.31 775.88 C 451.28 778.63 450.25 781.39 449.23 784.16 C 440.48 781.31 430.35 779.15 421.76 783.62 C 417.34 785.82 417.29 792.95 421.48 795.44 C 430.48 801.34 442.22 801.38 450.71 808.24 C 458.23 814.55 457.44 827.79 449.57 833.48 C 443.99 837.71 436.80 838.80 429.99 839.04 C 423.76 839.32 417.47 838.46 411.62 836.28 C 411.43 833.16 411.28 830.04 411.12 826.92 C 420.68 830.69 431.86 832.87 441.60 828.49 C 446.81 826.50 448.12 818.63 443.80 815.11 C 434.87 808.27 422.43 808.53 413.76 801.23 C 406.46 795.05 407.80 781.80 416.18 777.19 Z" />
</g>
</svg>
