<?xml version="1.0" encoding="UTF-8" ?>
<!DOCTYPE svg PUBLIC "-//W3C//DTD SVG 1.1//EN" "http://www.w3.org/Graphics/SVG/1.1/DTD/svg11.dtd">
<svg width="1351pt" height="1160pt" viewBox="0 0 1351 1160" version="1.1" xmlns="http://www.w3.org/2000/svg">
<g id="#1d1c00ff">
<path fill="#1d1c00" opacity="1.00" d=" M 240.13 7.12 C 528.48 7.12 816.83 7.12 1105.18 7.13 C 1105.19 289.71 1105.19 572.29 1105.18 854.88 C 816.83 854.87 528.47 854.89 240.12 854.87 C 240.13 572.29 240.11 289.70 240.13 7.12 M 264.90 23.55 C 265.04 294.50 264.84 565.45 264.89 836.41 C 535.75 836.43 806.61 836.35 1077.48 836.48 C 1077.96 690.66 1077.97 544.83 1077.93 399.01 C 1077.77 273.84 1077.94 148.67 1077.82 23.50 C 944.88 23.59 811.95 23.40 679.01 23.46 C 540.97 23.52 402.93 23.36 264.90 23.55 Z" />
<path fill="#1d1c00" opacity="1.00" d=" M 352.24 109.20 C 371.78 89.24 397.79 74.60 425.95 72.27 C 453.57 70.34 481.34 80.13 502.93 97.18 C 509.46 102.22 515.13 108.23 520.96 114.03 C 549.63 142.70 578.31 171.36 606.96 200.04 C 615.97 209.31 625.38 218.20 634.17 227.67 C 623.97 237.47 614.07 247.60 603.94 257.48 C 625.93 280.11 648.51 302.16 670.72 324.57 C 692.95 302.21 715.39 280.06 737.54 257.62 C 727.47 247.52 717.21 237.60 707.29 227.35 C 746.07 188.43 784.92 149.57 823.79 110.73 C 846.36 86.15 879.39 70.57 913.04 72.09 C 930.65 73.02 947.73 79.09 962.73 88.21 C 976.37 96.44 988.16 107.38 998.80 119.16 C 1034.37 158.95 1054.32 211.95 1055.33 265.19 C 1043.72 254.17 1032.62 242.62 1021.30 231.31 C 978.91 273.65 936.53 315.99 894.14 358.33 C 882.68 346.64 870.90 335.26 859.58 323.43 C 858.26 322.30 858.90 320.43 858.77 318.95 C 859.15 292.68 858.47 266.41 858.43 240.15 C 847.20 252.06 834.37 262.45 824.21 275.35 C 823.31 276.34 822.74 277.55 822.94 278.91 C 823.36 311.58 823.53 344.27 823.13 376.94 C 806.27 393.39 789.77 410.21 773.03 426.78 C 859.45 513.31 945.88 599.83 1032.51 686.15 C 1004.13 714.89 975.36 743.24 946.90 771.91 C 941.44 777.25 936.31 782.94 930.62 788.04 C 859.89 716.91 788.60 646.33 717.66 575.41 C 702.17 559.97 686.80 544.43 671.24 529.07 C 585.01 614.28 499.77 700.49 413.81 785.99 C 379.83 751.74 345.43 717.89 311.63 683.47 C 397.50 597.98 483.09 512.21 568.72 426.48 C 551.74 409.79 534.95 392.90 518.14 376.03 C 518.07 346.67 518.30 317.31 518.08 287.94 C 517.94 284.05 518.32 280.11 517.79 276.24 C 507.62 262.77 494.44 252.02 482.72 239.98 C 482.69 266.29 482.72 292.61 482.82 318.93 C 482.63 320.28 483.26 322.02 482.19 323.12 C 470.78 334.97 458.88 346.33 447.52 358.23 C 436.87 348.36 426.88 337.76 416.47 327.63 C 384.91 295.95 353.24 264.38 321.58 232.80 C 308.14 241.58 298.90 255.13 286.94 265.62 C 288.04 207.89 310.22 149.54 352.24 109.20 Z" />
</g>
<g id="#fdf100ff">
<path fill="#fdf100" opacity="1.00" d=" M 264.90 23.55 C 402.93 23.36 540.97 23.52 679.01 23.46 C 811.95 23.40 944.88 23.59 1077.82 23.50 C 1077.94 148.67 1077.77 273.84 1077.93 399.01 C 1077.97 544.83 1077.96 690.66 1077.48 836.48 C 806.61 836.35 535.75 836.43 264.89 836.41 C 264.84 565.45 265.04 294.50 264.90 23.55 M 352.24 109.20 C 310.22 149.54 288.04 207.89 286.94 265.62 C 298.90 255.13 308.14 241.58 321.58 232.80 C 353.24 264.38 384.91 295.95 416.47 327.63 C 426.88 337.76 436.87 348.36 447.52 358.23 C 458.88 346.33 470.78 334.97 482.19 323.12 C 483.26 322.02 482.63 320.28 482.82 318.93 C 482.72 292.61 482.69 266.29 482.72 239.98 C 494.44 252.02 507.62 262.77 517.79 276.24 C 518.32 280.11 517.94 284.05 518.08 287.94 C 518.30 317.31 518.07 346.67 518.14 376.03 C 534.95 392.90 551.74 409.79 568.72 426.48 C 483.09 512.21 397.50 597.98 311.63 683.47 C 345.43 717.89 379.83 751.74 413.81 785.99 C 499.77 700.49 585.01 614.28 671.24 529.07 C 686.80 544.43 702.17 559.97 717.66 575.41 C 788.60 646.33 859.89 716.91 930.62 788.04 C 936.31 782.94 941.44 777.25 946.90 771.91 C 975.36 743.24 1004.13 714.89 1032.51 686.15 C 945.88 599.83 859.45 513.31 773.03 426.78 C 789.77 410.21 806.27 393.39 823.13 376.94 C 823.53 344.27 823.36 311.58 822.94 278.91 C 822.74 277.55 823.31 276.34 824.21 275.35 C 834.37 262.45 847.20 252.06 858.43 240.15 C 858.47 266.41 859.15 292.68 858.77 318.95 C 858.90 320.43 858.26 322.30 859.58 323.43 C 870.90 335.26 882.68 346.64 894.14 358.33 C 936.53 315.99 978.91 273.65 1021.30 231.31 C 1032.62 242.62 1043.72 254.17 1055.33 265.19 C 1054.32 211.95 1034.37 158.95 998.80 119.16 C 988.16 107.38 976.37 96.44 962.73 88.21 C 947.73 79.09 930.65 73.02 913.04 72.09 C 879.39 70.57 846.36 86.15 823.79 110.73 C 784.92 149.57 746.07 188.43 707.29 227.35 C 717.21 237.60 727.47 247.52 737.54 257.62 C 715.39 280.06 692.95 302.21 670.72 324.57 C 648.51 302.16 625.93 280.11 603.94 257.48 C 614.07 247.60 623.97 237.47 634.17 227.67 C 625.38 218.20 615.97 209.31 606.96 200.04 C 578.31 171.36 549.63 142.70 520.96 114.03 C 515.13 108.23 509.46 102.22 502.93 97.18 C 481.34 80.13 453.57 70.34 425.95 72.27 C 397.79 74.60 371.78 89.24 352.24 109.20 Z" />
</g>
<g id="#fdfdfdf4">
<path fill="#fdfdfd" opacity="0.96" d=" M 421.86 931.78 C 429.36 926.88 438.80 928.11 447.20 929.33 C 447.28 932.68 447.26 936.03 447.24 939.39 C 440.99 938.07 433.77 936.28 428.00 940.00 C 423.74 943.13 424.07 948.99 423.70 953.72 C 430.21 953.77 436.73 953.73 443.25 953.75 C 443.25 956.82 443.25 959.91 443.25 963.00 C 436.92 963.00 430.58 962.98 424.24 963.01 C 424.26 981.26 424.27 999.52 424.24 1017.77 C 420.57 1017.75 416.91 1017.76 413.24 1017.76 C 413.23 999.50 413.24 981.25 413.24 963.00 C 410.82 962.99 408.41 962.99 406.00 963.00 C 406.00 959.91 406.00 956.82 406.00 953.75 C 408.41 953.74 410.82 953.73 413.23 953.73 C 412.80 945.74 414.70 936.44 421.86 931.78 Z" />
<path fill="#fdfdfd" opacity="0.96" d=" M 462.86 931.80 C 470.36 926.89 479.81 928.07 488.21 929.34 C 488.27 932.68 488.26 936.04 488.24 939.39 C 481.99 938.07 474.74 936.27 468.97 940.02 C 464.77 943.14 464.90 949.03 465.01 953.75 C 471.42 953.73 477.84 953.74 484.25 953.75 C 484.25 956.82 484.25 959.91 484.25 963.00 C 477.92 963.00 471.58 962.99 465.25 963.01 C 465.25 981.26 465.28 999.52 465.23 1017.78 C 461.57 1017.75 457.90 1017.76 454.24 1017.76 C 454.23 999.50 454.24 981.25 454.24 963.00 C 451.82 962.99 449.41 962.99 447.00 963.00 C 447.00 959.91 447.00 956.83 447.00 953.75 C 449.41 953.74 451.82 953.73 454.23 953.73 C 453.80 945.74 455.70 936.45 462.86 931.80 Z" />
<path fill="#fdfdfd" opacity="0.96" d=" M 1065.75 928.75 C 1069.41 928.74 1073.08 928.73 1076.76 928.75 C 1076.77 947.53 1076.73 966.31 1076.78 985.09 C 1086.85 974.60 1096.94 964.13 1107.11 953.75 C 1111.80 953.76 1116.50 953.68 1121.20 953.80 C 1111.58 963.93 1101.27 973.41 1091.77 983.65 C 1102.46 994.85 1112.86 1006.32 1123.36 1017.70 C 1118.61 1017.82 1113.87 1017.72 1109.13 1017.78 C 1100.47 1008.62 1092.12 999.18 1083.51 989.98 C 1081.19 992.17 1078.92 994.41 1076.73 996.73 C 1076.79 1003.74 1076.75 1010.75 1076.76 1017.76 C 1073.08 1017.76 1069.41 1017.75 1065.75 1017.76 C 1065.74 988.09 1065.75 958.42 1065.75 928.75 Z" />
<path fill="#fdfdfd" opacity="0.96" d=" M 380.00 932.00 C 384.17 931.99 388.33 932.00 392.50 932.00 C 392.51 935.75 392.51 939.50 392.50 943.25 C 388.33 943.25 384.17 943.25 380.00 943.25 C 380.00 939.50 380.00 935.75 380.00 932.00 Z" />
<path fill="#fdfdfd" opacity="0.96" d=" M 563.43 932.08 C 567.62 931.91 571.81 932.02 576.00 932.00 C 576.00 935.75 576.00 939.50 576.00 943.25 C 571.83 943.25 567.67 943.25 563.51 943.26 C 563.48 939.53 563.53 935.80 563.43 932.08 Z" />
<path fill="#fdfdfd" opacity="0.96" d=" M 232.75 932.50 C 243.18 932.63 253.63 932.17 264.05 932.79 C 271.41 933.17 279.06 935.64 284.00 941.38 C 288.80 946.66 289.42 954.37 288.38 961.12 C 287.08 970.14 280.00 977.85 271.33 980.40 C 282.03 992.87 292.80 1005.28 303.47 1017.78 C 298.41 1017.74 293.36 1017.78 288.30 1017.75 C 278.90 1006.46 269.32 995.32 259.95 984.00 C 254.72 983.99 249.48 983.99 244.25 984.01 C 244.26 995.26 244.26 1006.51 244.25 1017.76 C 240.42 1017.75 236.59 1017.75 232.76 1017.77 C 232.73 989.34 232.75 960.92 232.75 932.50 M 244.24 974.21 C 252.24 973.93 260.67 975.36 268.26 972.17 C 275.76 968.79 278.22 959.33 276.10 951.91 C 274.89 947.38 270.58 944.34 266.18 943.37 C 258.97 941.91 251.59 942.73 244.30 942.48 C 244.19 953.05 244.30 963.63 244.24 974.21 Z" />
<path fill="#fdfdfd" opacity="0.96" d=" M 842.50 932.50 C 854.00 932.62 865.52 932.19 877.02 932.77 C 883.37 933.01 890.05 934.70 894.81 939.13 C 899.49 943.67 900.02 950.86 898.80 956.94 C 897.44 962.54 892.79 966.44 888.07 969.31 C 895.99 970.62 903.34 976.18 905.61 984.05 C 907.43 990.99 906.96 998.88 903.02 1005.05 C 898.93 1011.59 891.61 1015.57 884.16 1016.90 C 877.85 1018.13 871.41 1017.68 865.04 1017.76 C 857.55 1017.79 850.06 1017.69 842.57 1017.82 C 842.39 989.38 842.54 960.94 842.50 932.50 M 854.00 942.51 C 854.00 950.59 853.99 958.67 854.01 966.75 C 860.00 966.70 866.00 966.80 872.00 966.72 C 876.44 966.56 881.25 965.66 884.49 962.36 C 887.50 959.05 887.60 954.18 887.01 950.00 C 886.06 945.92 881.98 943.61 878.09 943.15 C 870.10 942.08 862.03 942.64 854.00 942.51 M 854.00 976.76 C 854.00 987.09 853.99 997.42 854.01 1007.75 C 863.37 1007.47 872.86 1008.48 882.13 1006.74 C 888.02 1005.71 893.88 1001.24 894.40 994.94 C 894.69 990.62 894.82 985.70 891.80 982.23 C 888.82 979.01 884.44 977.44 880.14 977.15 C 871.45 976.42 862.71 976.89 854.00 976.76 Z" />
<path fill="#fdfdfd" opacity="0.96" d=" M 311.76 954.90 C 323.51 952.14 336.15 950.36 347.88 954.16 C 355.03 956.51 360.00 963.49 360.22 970.97 C 360.34 986.53 360.16 1002.10 360.31 1017.67 C 356.62 1017.82 352.93 1017.75 349.24 1017.75 C 349.24 1015.57 349.23 1013.40 349.24 1011.24 C 342.97 1016.26 335.24 1019.85 327.05 1019.54 C 319.34 1019.95 311.78 1015.50 308.22 1008.69 C 305.85 1004.03 305.75 998.54 306.62 993.49 C 307.76 986.87 313.29 981.85 319.36 979.59 C 328.88 975.97 339.23 976.13 349.23 975.23 C 349.91 970.38 347.88 964.79 342.94 963.07 C 332.62 959.49 321.63 962.70 311.77 966.23 C 311.73 962.45 311.74 958.67 311.76 954.90 M 322.26 989.24 C 317.15 992.14 316.17 999.27 318.73 1004.19 C 321.12 1008.48 326.56 1009.37 331.04 1009.27 C 337.84 1009.34 343.95 1005.84 349.25 1001.91 C 349.22 996.03 349.24 990.16 349.24 984.29 C 340.23 985.40 330.35 984.41 322.26 989.24 Z" />
<path fill="#fdfdfd" opacity="0.96" d=" M 503.25 957.26 C 510.94 951.85 521.09 950.90 530.07 953.05 C 537.05 954.66 543.05 959.85 545.68 966.52 C 548.47 972.96 548.35 980.11 548.25 987.00 C 532.64 987.01 517.03 986.98 501.43 987.01 C 501.29 995.28 505.16 1004.19 513.09 1007.63 C 524.39 1012.50 537.37 1008.48 547.00 1001.73 C 547.00 1005.80 546.99 1009.87 547.01 1013.95 C 536.38 1018.64 524.36 1020.91 512.91 1018.09 C 505.79 1016.37 499.07 1012.22 495.18 1005.90 C 490.25 997.98 489.53 988.17 490.69 979.11 C 491.77 970.57 496.07 962.21 503.25 957.26 M 510.58 963.51 C 505.24 966.60 502.21 972.50 501.40 978.48 C 513.38 978.49 525.37 978.54 537.36 978.45 C 537.07 972.87 535.50 966.63 530.46 963.48 C 524.44 960.07 516.61 960.21 510.58 963.51 Z" />
<path fill="#fdfdfd" opacity="0.96" d=" M 596.74 959.85 C 601.77 954.20 609.66 952.28 616.95 952.00 C 624.69 951.92 632.50 953.50 639.52 956.81 C 639.48 960.81 639.57 964.82 639.42 968.83 C 632.74 964.47 625.05 961.23 616.96 961.25 C 613.05 961.39 608.91 962.22 605.83 964.80 C 602.31 967.92 602.77 974.46 606.96 976.80 C 612.76 980.04 619.61 980.23 625.94 981.84 C 631.55 983.03 637.48 985.69 640.26 991.03 C 643.34 997.48 642.51 1005.96 637.45 1011.21 C 633.93 1015.07 629.02 1017.48 623.93 1018.47 C 613.15 1020.57 601.83 1018.71 591.99 1013.93 C 592.01 1009.68 591.98 1005.43 592.01 1001.18 C 599.05 1006.09 607.21 1010.04 615.97 1010.02 C 620.09 1009.97 624.60 1009.55 627.95 1006.89 C 632.10 1003.60 631.73 995.73 626.56 993.66 C 617.63 989.87 607.11 990.71 598.82 985.24 C 590.65 979.74 590.13 966.78 596.74 959.85 Z" />
<path fill="#fdfdfd" opacity="0.96" d=" M 673.55 953.38 C 680.47 951.41 688.03 951.47 694.85 953.82 C 701.36 956.06 706.43 961.60 708.58 968.08 C 710.80 974.13 710.56 980.66 710.50 987.00 C 694.90 987.00 679.29 986.99 663.69 987.01 C 663.60 995.30 667.47 1004.30 675.51 1007.66 C 686.74 1012.47 699.71 1008.51 709.21 1001.71 C 709.29 1005.79 709.24 1009.87 709.26 1013.96 C 698.58 1018.68 686.50 1020.94 675.02 1018.04 C 665.79 1015.92 657.64 1009.14 654.63 1000.07 C 651.82 991.38 651.76 981.79 654.35 973.04 C 656.99 963.86 664.32 956.07 673.55 953.38 M 674.52 962.68 C 668.38 965.39 664.29 971.88 663.90 978.51 C 675.80 978.46 687.70 978.53 699.60 978.47 C 699.46 972.80 697.69 966.50 692.57 963.36 C 687.12 960.29 680.24 960.37 674.52 962.68 Z" />
<path fill="#fdfdfd" opacity="0.96" d=" M 737.48 960.63 C 744.36 955.11 753.05 950.96 762.09 952.18 C 768.03 952.62 773.93 955.72 776.86 961.05 C 780.80 967.66 780.29 975.62 780.25 983.02 C 780.24 994.60 780.28 1006.18 780.24 1017.77 C 776.57 1017.75 772.90 1017.76 769.24 1017.76 C 769.20 1004.49 769.30 991.21 769.20 977.95 C 769.01 972.68 768.20 965.81 762.51 963.64 C 753.67 960.27 744.48 965.02 737.49 970.27 C 737.56 986.08 737.44 1001.88 737.55 1017.69 C 733.85 1017.80 730.15 1017.79 726.46 1017.70 C 726.54 996.38 726.47 975.06 726.50 953.75 C 730.16 953.74 733.83 953.74 737.51 953.75 C 737.50 956.03 737.50 958.33 737.48 960.63 Z" />
<path fill="#fdfdfd" opacity="0.96" d=" M 922.50 954.91 C 933.25 952.33 944.58 950.77 955.51 953.23 C 959.84 954.26 964.08 956.40 966.92 959.93 C 969.86 963.57 971.07 968.36 971.02 972.98 C 970.98 987.91 971.01 1002.84 971.00 1017.77 C 967.33 1017.75 963.67 1017.75 960.01 1017.77 C 959.99 1015.58 959.98 1013.38 959.98 1011.21 C 953.79 1016.27 946.08 1019.79 937.96 1019.54 C 931.30 1019.85 924.57 1016.80 920.65 1011.38 C 916.42 1005.88 916.04 998.30 917.79 991.81 C 919.45 985.83 924.71 981.55 930.35 979.48 C 939.83 975.97 950.10 976.12 960.04 975.21 C 960.51 970.49 958.81 964.95 953.95 963.22 C 943.61 959.36 932.46 962.72 922.51 966.20 C 922.47 962.43 922.49 958.67 922.50 954.91 M 933.13 989.16 C 927.08 992.51 926.36 1002.03 931.40 1006.55 C 934.64 1009.11 939.03 1009.40 943.01 1009.23 C 949.36 1008.93 955.02 1005.58 960.00 1001.89 C 959.99 996.01 960.00 990.13 960.00 984.26 C 951.02 985.41 941.21 984.41 933.13 989.16 Z" />
<path fill="#fdfdfd" opacity="0.96" d=" M 1002.46 960.57 C 1007.84 956.43 1013.99 952.80 1020.90 952.16 C 1028.08 951.33 1036.31 953.25 1040.71 959.43 C 1045.40 965.91 1045.35 974.31 1045.26 981.97 C 1045.23 993.90 1045.29 1005.84 1045.23 1017.78 C 1041.56 1017.74 1037.90 1017.76 1034.24 1017.76 C 1034.13 1004.52 1034.44 991.27 1034.08 978.04 C 1033.87 972.76 1033.17 965.84 1027.47 963.62 C 1018.63 960.34 1009.45 964.95 1002.46 970.22 C 1002.54 986.07 1002.53 1001.93 1002.47 1017.79 C 998.82 1017.74 995.18 1017.73 991.55 1017.80 C 991.42 996.45 991.52 975.10 991.50 953.75 C 995.16 953.74 998.83 953.74 1002.51 953.75 C 1002.50 956.01 1002.50 958.29 1002.46 960.57 Z" />
<path fill="#fdfdfd" opacity="0.96" d=" M 380.75 953.75 C 384.42 953.74 388.09 953.74 391.76 953.75 C 391.76 975.09 391.77 996.42 391.76 1017.76 C 388.09 1017.76 384.43 1017.75 380.77 1017.78 C 380.71 996.43 380.76 975.09 380.75 953.75 Z" />
<path fill="#fdfdfd" opacity="0.96" d=" M 564.24 953.75 C 567.91 953.73 571.58 953.74 575.25 953.75 C 575.25 975.09 575.26 996.42 575.25 1017.76 C 571.58 1017.75 567.91 1017.76 564.24 1017.76 C 564.23 996.42 564.24 975.09 564.24 953.75 Z" />
<path fill="#fdfdfd" opacity="0.96" d=" M 172.50 1068.75 C 176.16 1068.74 179.83 1068.74 183.50 1068.75 C 183.50 1087.52 183.53 1106.30 183.49 1125.07 C 193.73 1114.74 203.77 1104.20 213.86 1093.73 C 218.58 1093.78 223.30 1093.68 228.02 1093.80 C 218.24 1103.68 208.39 1113.50 198.54 1123.30 C 209.01 1134.87 219.80 1146.16 230.23 1157.78 C 225.37 1157.47 220.27 1158.30 215.57 1157.38 C 207.14 1148.31 198.82 1139.12 190.44 1130.01 C 188.14 1132.26 185.68 1134.36 183.47 1136.70 C 183.55 1143.72 183.48 1150.74 183.51 1157.76 C 179.86 1157.76 176.20 1157.73 172.55 1157.81 C 172.42 1128.12 172.53 1098.43 172.50 1068.75 Z" />
<path fill="#fdfdfd" opacity="0.96" d=" M 920.50 1068.75 C 924.16 1068.74 927.83 1068.74 931.50 1068.75 C 931.55 1087.40 931.42 1106.06 931.57 1124.71 C 941.87 1114.63 951.52 1103.85 961.82 1093.80 C 966.49 1093.63 971.17 1093.80 975.85 1093.75 C 966.02 1103.65 956.13 1113.49 946.27 1123.36 C 956.92 1134.79 967.53 1146.26 978.08 1157.79 C 973.23 1157.71 968.38 1157.81 963.53 1157.71 C 955.17 1148.39 946.65 1139.21 938.17 1129.99 C 936.02 1132.19 933.75 1134.26 931.49 1136.34 C 931.55 1143.45 931.43 1150.56 931.56 1157.68 C 927.87 1157.81 924.18 1157.75 920.50 1157.76 C 920.48 1128.09 920.50 1098.42 920.50 1068.75 Z" />
<path fill="#fdfdfd" opacity="0.96" d=" M 1152.16 1080.17 C 1158.92 1073.48 1168.70 1070.89 1178.00 1070.98 C 1188.02 1070.97 1198.00 1073.04 1207.26 1076.88 C 1207.22 1081.54 1207.33 1086.21 1207.18 1090.88 C 1198.23 1084.23 1187.07 1080.66 1175.93 1081.05 C 1170.48 1081.38 1164.69 1082.82 1160.87 1086.97 C 1157.12 1090.76 1157.01 1097.09 1159.69 1101.51 C 1161.42 1104.25 1164.57 1105.59 1167.54 1106.57 C 1178.74 1109.82 1191.11 1109.50 1201.44 1115.45 C 1207.37 1118.68 1210.89 1125.30 1210.79 1131.99 C 1211.41 1140.07 1207.40 1148.21 1200.76 1152.81 C 1193.66 1158.00 1184.63 1159.77 1175.98 1159.53 C 1165.36 1159.74 1154.92 1157.00 1145.27 1152.74 C 1145.25 1147.78 1145.13 1142.81 1145.36 1137.86 C 1154.20 1144.50 1164.76 1149.19 1175.95 1149.51 C 1182.59 1149.64 1189.81 1148.64 1194.97 1144.08 C 1198.89 1140.63 1199.64 1134.74 1198.04 1129.97 C 1196.68 1126.15 1192.66 1124.32 1189.08 1123.16 C 1177.84 1119.74 1165.17 1120.55 1155.02 1113.95 C 1143.84 1106.91 1142.72 1089.11 1152.16 1080.17 Z" />
<path fill="#fdfdfd" opacity="0.96" d=" M 65.43 1072.09 C 69.62 1071.91 73.81 1072.02 78.00 1072.00 C 78.00 1075.75 78.00 1079.50 78.00 1083.25 C 73.83 1083.25 69.67 1083.25 65.50 1083.26 C 65.48 1079.53 65.53 1075.81 65.43 1072.09 Z" />
<path fill="#fdfdfd" opacity="0.96" d=" M 558.75 1072.00 C 562.91 1071.99 567.08 1071.99 571.25 1072.00 C 571.25 1075.74 571.25 1079.50 571.25 1083.25 C 567.08 1083.25 562.91 1083.25 558.75 1083.25 C 558.74 1079.50 558.74 1075.74 558.75 1072.00 Z" />
<path fill="#fdfdfd" opacity="0.96" d=" M 0.00 1072.58 C 18.17 1072.39 36.34 1072.54 54.50 1072.50 C 54.51 1075.91 54.51 1079.34 54.50 1082.77 C 40.25 1082.75 26.01 1082.76 11.77 1082.77 C 11.76 1090.67 11.77 1098.57 11.76 1106.48 C 24.01 1106.51 36.26 1106.48 48.50 1106.50 C 48.50 1109.90 48.50 1113.31 48.52 1116.74 C 36.27 1116.79 24.02 1116.74 11.77 1116.77 C 11.75 1130.43 11.77 1144.09 11.76 1157.76 C 7.84 1157.77 3.92 1157.79 0.00 1157.66 L 0.00 1072.58 Z" />
<path fill="#fdfdfd" opacity="0.96" d=" M 719.50 1072.50 C 737.56 1072.46 755.62 1072.56 773.69 1072.45 C 773.80 1075.87 773.76 1079.31 773.75 1082.76 C 759.50 1082.77 745.25 1082.76 731.00 1082.76 C 731.04 1090.69 730.90 1098.62 731.09 1106.55 C 743.29 1106.39 755.50 1106.57 767.71 1106.46 C 767.78 1109.89 767.76 1113.32 767.75 1116.76 C 755.50 1116.77 743.25 1116.76 731.00 1116.76 C 730.99 1130.43 731.01 1144.10 731.00 1157.77 C 727.18 1157.76 723.37 1157.72 719.57 1157.82 C 719.40 1129.38 719.54 1100.94 719.50 1072.50 Z" />
<path fill="#fdfdfd" opacity="0.96" d=" M 444.00 1075.50 C 447.66 1075.49 451.33 1075.49 455.00 1075.49 C 455.00 1081.58 454.99 1087.66 455.00 1093.75 C 462.42 1093.74 469.84 1093.74 477.25 1093.75 C 477.25 1096.82 477.25 1099.91 477.25 1103.00 C 469.83 1103.00 462.42 1103.00 455.00 1103.00 C 455.08 1115.38 454.75 1127.77 455.37 1140.14 C 455.69 1143.72 457.42 1147.66 461.03 1148.96 C 466.39 1150.75 472.08 1149.37 477.24 1147.60 C 477.26 1150.90 477.24 1154.20 477.28 1157.51 C 469.21 1159.34 460.00 1160.82 452.44 1156.55 C 446.25 1153.16 444.32 1145.60 444.18 1139.05 C 443.78 1127.04 444.11 1115.01 444.00 1103.00 C 441.58 1102.99 439.16 1102.99 436.75 1103.00 C 436.74 1099.91 436.74 1096.82 436.75 1093.75 C 439.16 1093.73 441.57 1093.73 443.99 1093.75 C 444.01 1087.66 443.99 1081.58 444.00 1075.50 Z" />
<path fill="#fdfdfd" opacity="0.96" d=" M 109.23 1100.67 C 115.12 1095.93 122.22 1092.19 129.92 1091.99 C 135.54 1091.88 141.59 1093.19 145.70 1097.28 C 150.36 1101.88 151.93 1108.69 152.01 1115.03 C 151.98 1129.28 152.01 1143.52 152.00 1157.77 C 148.33 1157.75 144.67 1157.75 141.00 1157.77 C 140.96 1144.47 141.07 1131.18 140.95 1117.89 C 140.76 1112.59 139.90 1105.66 134.12 1103.59 C 125.31 1100.30 116.25 1105.08 109.25 1110.23 C 109.25 1126.07 109.27 1141.92 109.25 1157.76 C 105.58 1157.75 101.91 1157.76 98.24 1157.76 C 98.23 1136.42 98.24 1115.08 98.24 1093.75 C 101.91 1093.74 105.58 1093.74 109.26 1093.75 C 109.26 1096.04 109.26 1098.35 109.23 1100.67 Z" />
<path fill="#fdfdfd" opacity="0.96" d=" M 247.85 1097.77 C 255.74 1091.83 266.45 1090.78 275.82 1093.18 C 282.96 1094.96 288.89 1100.55 291.35 1107.44 C 293.75 1113.67 293.58 1120.44 293.50 1127.00 C 277.89 1127.01 262.28 1126.98 246.68 1127.01 C 246.62 1135.10 250.20 1143.77 257.85 1147.39 C 269.20 1152.60 282.52 1148.64 292.22 1141.71 C 292.29 1145.79 292.24 1149.87 292.26 1153.96 C 283.39 1157.75 273.74 1160.22 264.04 1159.07 C 255.45 1158.30 246.66 1154.60 241.51 1147.43 C 235.81 1139.66 234.79 1129.45 235.85 1120.13 C 236.68 1111.49 240.77 1102.97 247.85 1097.77 M 257.49 1102.66 C 251.27 1105.41 247.49 1111.90 246.70 1118.48 C 258.67 1118.49 270.64 1118.52 282.61 1118.47 C 282.30 1113.30 281.08 1107.60 276.78 1104.24 C 271.30 1100.17 263.65 1100.26 257.49 1102.66 Z" />
<path fill="#fdfdfd" opacity="0.96" d=" M 320.48 1100.64 C 327.10 1095.33 335.35 1091.24 344.06 1092.07 C 350.36 1092.36 356.83 1095.41 359.90 1101.13 C 363.92 1108.04 363.25 1116.30 363.25 1123.98 C 363.30 1135.20 363.17 1146.43 363.32 1157.65 C 359.63 1157.83 355.93 1157.75 352.24 1157.75 C 352.19 1144.51 352.33 1131.27 352.17 1118.03 C 351.91 1112.91 351.39 1106.39 346.12 1103.90 C 337.18 1100.06 327.60 1104.86 320.49 1110.28 C 320.52 1126.11 320.52 1141.94 320.49 1157.77 C 316.80 1157.74 313.12 1157.81 309.44 1157.68 C 309.57 1136.37 309.46 1115.06 309.50 1093.75 C 313.16 1093.74 316.83 1093.74 320.51 1093.75 C 320.51 1096.03 320.51 1098.33 320.48 1100.64 Z" />
<path fill="#fdfdfd" opacity="0.96" d=" M 397.54 1092.71 C 407.30 1090.89 417.51 1092.71 426.51 1096.71 C 426.49 1100.73 426.56 1104.76 426.44 1108.79 C 419.77 1104.45 412.10 1101.25 404.04 1101.25 C 400.30 1101.34 396.42 1102.16 393.36 1104.42 C 389.39 1107.38 389.68 1114.53 394.16 1116.88 C 403.01 1121.55 414.02 1119.97 422.46 1125.66 C 427.20 1128.69 429.50 1134.51 429.03 1140.01 C 429.12 1148.47 422.14 1155.28 414.43 1157.59 C 402.71 1161.04 389.91 1159.13 378.99 1153.94 C 379.01 1149.68 378.97 1145.42 379.02 1141.17 C 386.34 1146.22 394.85 1150.30 403.96 1150.02 C 407.96 1149.89 412.35 1149.26 415.46 1146.50 C 419.20 1142.98 418.58 1135.43 413.41 1133.56 C 404.33 1129.81 393.56 1130.70 385.33 1124.80 C 378.44 1119.67 377.56 1109.04 382.07 1102.08 C 385.46 1096.77 391.53 1093.88 397.54 1092.71 Z" />
<path fill="#fdfdfd" opacity="0.96" d=" M 501.53 1095.48 C 509.15 1091.56 518.32 1091.04 526.50 1093.35 C 533.19 1095.24 538.71 1100.40 541.21 1106.86 C 543.89 1113.22 543.56 1120.24 543.50 1127.00 C 527.91 1127.00 512.32 1127.00 496.73 1127.00 C 496.77 1134.96 500.13 1143.67 507.73 1147.24 C 519.03 1152.77 532.40 1148.57 542.23 1141.85 C 542.28 1145.91 542.25 1149.98 542.24 1154.06 C 534.81 1156.92 527.07 1159.59 518.99 1159.28 C 509.44 1159.44 499.28 1156.51 492.91 1149.03 C 485.60 1140.57 484.57 1128.48 486.25 1117.85 C 487.61 1108.60 493.16 1099.85 501.53 1095.48 M 505.05 1104.05 C 500.33 1107.30 497.30 1112.82 496.96 1118.53 C 508.83 1118.44 520.71 1118.53 532.59 1118.48 C 532.66 1112.49 530.44 1105.88 524.87 1102.92 C 518.64 1100.02 510.89 1100.38 505.05 1104.05 Z" />
<path fill="#fdfdfd" opacity="0.96" d=" M 602.46 1100.71 C 608.08 1096.31 614.63 1092.59 621.90 1092.08 C 627.85 1091.65 634.43 1092.81 638.83 1097.15 C 643.36 1101.45 645.14 1107.90 645.26 1113.98 C 645.23 1128.58 645.29 1143.18 645.23 1157.78 C 641.56 1157.74 637.90 1157.76 634.24 1157.76 C 634.20 1144.17 634.29 1130.58 634.20 1117.00 C 633.98 1112.01 633.01 1105.53 627.58 1103.63 C 618.70 1100.26 609.54 1105.10 602.49 1110.29 C 602.54 1126.10 602.46 1141.91 602.53 1157.72 C 598.87 1157.78 595.22 1157.72 591.56 1157.81 C 591.40 1136.46 591.54 1115.10 591.50 1093.75 C 595.16 1093.74 598.82 1093.74 602.49 1093.74 C 602.51 1096.05 602.50 1098.37 602.46 1100.71 Z" />
<path fill="#fdfdfd" opacity="0.96" d=" M 781.00 1094.90 C 791.45 1092.39 802.42 1090.86 813.08 1093.03 C 818.42 1094.03 823.53 1096.95 826.50 1101.59 C 828.82 1105.26 829.51 1109.69 829.52 1113.98 C 829.48 1128.57 829.54 1143.17 829.49 1157.77 C 825.82 1157.75 822.15 1157.76 818.50 1157.76 C 818.49 1155.56 818.48 1153.35 818.47 1151.18 C 812.37 1156.09 804.94 1159.69 796.96 1159.53 C 790.18 1159.99 783.24 1157.05 779.17 1151.56 C 774.77 1145.80 774.29 1137.78 776.43 1131.04 C 778.44 1124.96 784.11 1120.98 789.96 1119.05 C 799.16 1115.98 808.98 1116.06 818.54 1115.22 C 818.99 1110.41 817.02 1104.88 812.16 1103.11 C 801.86 1099.45 790.87 1102.71 781.00 1106.19 C 780.99 1102.42 781.00 1098.66 781.00 1094.90 M 798.09 1126.48 C 793.94 1127.41 789.63 1129.47 787.55 1133.38 C 785.73 1137.56 786.11 1143.17 789.65 1146.36 C 792.72 1149.02 797.04 1149.35 800.94 1149.25 C 807.52 1149.10 813.39 1145.59 818.54 1141.78 C 818.45 1135.95 818.49 1130.12 818.51 1124.30 C 811.69 1124.84 804.80 1125.04 798.09 1126.48 Z" />
<path fill="#fdfdfd" opacity="0.96" d=" M 851.00 1094.91 C 861.44 1092.40 872.38 1090.86 883.03 1093.02 C 888.14 1094.03 893.23 1096.58 896.20 1101.01 C 898.81 1104.78 899.62 1109.49 899.52 1114.01 C 899.46 1128.60 899.57 1143.20 899.47 1157.79 C 895.80 1157.74 892.14 1157.76 888.49 1157.75 C 888.49 1155.57 888.48 1153.39 888.50 1151.24 C 882.36 1156.06 874.97 1159.70 867.00 1159.53 C 859.80 1160.03 852.45 1156.60 848.50 1150.52 C 844.76 1144.78 844.51 1137.33 846.53 1130.94 C 848.47 1125.32 853.56 1121.37 859.01 1119.41 C 868.44 1115.93 878.66 1116.15 888.55 1115.20 C 889.07 1110.32 887.06 1104.66 882.03 1103.04 C 871.76 1099.48 860.83 1102.75 851.00 1106.19 C 850.99 1102.42 851.00 1098.66 851.00 1094.91 M 861.93 1128.97 C 856.13 1131.96 854.93 1140.34 858.73 1145.34 C 861.66 1148.92 866.69 1149.38 871.00 1149.25 C 877.56 1149.08 883.48 1145.68 888.56 1141.78 C 888.43 1135.95 888.50 1130.13 888.51 1124.30 C 879.63 1125.31 869.98 1124.47 861.93 1128.97 Z" />
<path fill="#fdfdfd" opacity="0.96" d=" M 992.53 1100.54 C 999.45 1093.14 1010.37 1090.90 1020.10 1092.42 C 1027.28 1093.36 1034.21 1097.53 1037.56 1104.09 C 1041.50 1111.04 1041.42 1119.25 1041.25 1127.00 C 1025.65 1127.00 1010.04 1126.99 994.44 1127.00 C 994.53 1134.97 997.85 1143.75 1005.51 1147.28 C 1016.83 1152.69 1030.25 1148.63 1040.00 1141.75 C 1040.00 1145.83 1039.99 1149.92 1040.01 1154.02 C 1032.37 1157.05 1024.33 1159.67 1016.01 1159.28 C 1006.76 1159.29 997.00 1156.37 990.76 1149.23 C 984.40 1142.12 982.79 1132.07 983.38 1122.85 C 983.86 1114.71 986.49 1106.30 992.53 1100.54 M 1006.05 1102.38 C 999.41 1104.83 995.23 1111.62 994.55 1118.48 C 1006.49 1118.47 1018.43 1118.55 1030.37 1118.44 C 1030.15 1113.05 1028.72 1107.05 1024.00 1103.83 C 1018.77 1100.36 1011.82 1100.33 1006.05 1102.38 Z" />
<path fill="#fdfdfd" opacity="0.96" d=" M 1233.08 1100.01 C 1240.04 1093.03 1250.62 1090.97 1260.10 1092.42 C 1267.13 1093.35 1273.92 1097.28 1277.37 1103.61 C 1281.59 1110.64 1281.42 1119.09 1281.25 1127.00 C 1265.68 1127.00 1250.12 1127.00 1234.55 1127.00 C 1234.48 1134.99 1237.93 1143.72 1245.54 1147.29 C 1256.85 1152.68 1270.27 1148.64 1280.00 1141.76 C 1280.00 1145.84 1279.99 1149.92 1280.00 1154.01 C 1272.66 1156.97 1264.92 1159.51 1256.91 1159.28 C 1247.84 1159.40 1238.18 1156.95 1231.76 1150.20 C 1224.70 1143.17 1222.81 1132.62 1223.46 1123.03 C 1223.79 1114.56 1226.78 1105.88 1233.08 1100.01 M 1246.10 1102.37 C 1239.50 1104.85 1235.30 1111.59 1234.57 1118.44 C 1246.49 1118.55 1258.42 1118.50 1270.35 1118.46 C 1270.34 1112.81 1268.51 1106.54 1263.46 1103.41 C 1258.24 1100.43 1251.67 1100.37 1246.10 1102.37 Z" />
<path fill="#fdfdfd" opacity="0.96" d=" M 1314.09 1093.34 C 1322.13 1091.15 1331.20 1091.40 1338.64 1095.43 C 1344.78 1098.71 1348.65 1105.19 1349.97 1111.90 C 1351.19 1116.84 1350.65 1121.96 1350.76 1127.00 C 1335.18 1127.00 1319.61 1127.00 1304.04 1127.00 C 1303.96 1135.13 1307.57 1143.99 1315.39 1147.46 C 1326.65 1152.60 1339.84 1148.57 1349.49 1141.78 C 1349.52 1145.82 1349.46 1149.86 1349.55 1153.90 C 1338.84 1158.82 1326.56 1160.91 1315.01 1157.96 C 1306.39 1155.92 1298.77 1149.71 1295.51 1141.41 C 1292.31 1133.38 1292.24 1124.35 1293.87 1115.96 C 1295.93 1105.54 1303.70 1096.18 1314.09 1093.34 M 1311.52 1104.62 C 1307.20 1107.90 1304.81 1113.09 1304.01 1118.36 C 1315.92 1118.68 1327.84 1118.37 1339.75 1118.52 C 1340.02 1112.33 1337.49 1105.32 1331.53 1102.62 C 1325.09 1100.00 1317.21 1100.47 1311.52 1104.62 Z" />
<path fill="#fdfdfd" opacity="0.96" d=" M 66.24 1093.75 C 69.91 1093.73 73.58 1093.74 77.25 1093.75 C 77.25 1115.08 77.27 1136.42 77.25 1157.76 C 73.58 1157.75 69.91 1157.76 66.24 1157.76 C 66.23 1136.42 66.24 1115.09 66.24 1093.75 Z" />
<path fill="#fdfdfd" opacity="0.96" d=" M 559.50 1093.75 C 563.16 1093.74 566.83 1093.74 570.50 1093.75 C 570.47 1115.10 570.57 1136.45 570.45 1157.80 C 566.80 1157.73 563.15 1157.75 559.51 1157.77 C 559.48 1136.43 559.50 1115.09 559.50 1093.75 Z" />
<path fill="#fdfdfd" opacity="0.96" d=" M 1057.24 1093.75 C 1060.90 1093.73 1064.57 1093.74 1068.25 1093.75 C 1068.25 1096.83 1068.26 1099.91 1068.23 1103.00 C 1073.46 1098.94 1079.16 1094.93 1085.89 1094.02 C 1089.66 1093.39 1093.48 1093.85 1097.23 1094.40 C 1097.26 1098.13 1097.26 1101.86 1097.24 1105.60 C 1091.42 1104.62 1085.28 1103.67 1079.59 1105.76 C 1075.45 1107.28 1071.71 1109.71 1068.28 1112.45 C 1068.19 1127.56 1068.34 1142.68 1068.20 1157.80 C 1064.54 1157.73 1060.89 1157.76 1057.24 1157.76 C 1057.23 1136.42 1057.24 1115.09 1057.24 1093.75 Z" />
<path fill="#fdfdfd" opacity="0.96" d=" M 663.75 1115.24 C 675.66 1115.23 687.57 1115.25 699.49 1115.23 C 699.51 1118.75 699.55 1122.28 699.43 1125.82 C 687.54 1125.70 675.66 1125.77 663.78 1125.78 C 663.72 1122.26 663.74 1118.74 663.75 1115.24 Z" />
</g>
</svg>
