<?xml version="1.0" encoding="UTF-8" ?>
<!DOCTYPE svg PUBLIC "-//W3C//DTD SVG 1.1//EN" "http://www.w3.org/Graphics/SVG/1.1/DTD/svg11.dtd">
<svg width="1000pt" height="1000pt" viewBox="0 0 1000 1000" version="1.1" xmlns="http://www.w3.org/2000/svg">
<g id="#1b5badff">
<path fill="#1b5bad" opacity="1.00" d=" M 493.72 0.00 L 505.52 0.00 C 512.28 1.01 519.13 0.10 525.91 0.83 C 609.90 4.54 692.71 30.52 763.93 75.15 C 795.49 94.65 824.99 117.55 851.15 143.87 C 872.08 164.44 891.43 186.70 908.18 210.83 C 961.98 286.42 994.31 377.31 999.11 470.05 C 999.47 474.60 999.37 479.19 1000.00 483.72 L 1000.00 517.28 C 998.65 539.18 997.35 561.15 993.46 582.79 C 979.57 668.77 942.28 750.77 886.89 817.96 C 866.94 842.14 844.90 864.61 820.92 884.83 C 805.30 897.36 789.35 909.53 772.54 920.45 C 742.56 939.60 710.73 955.97 677.47 968.64 C 652.27 978.10 626.25 985.23 599.97 990.96 C 577.90 995.31 555.54 998.84 533.00 999.10 C 526.77 999.79 520.48 999.08 514.27 1000.00 L 480.48 1000.00 C 468.16 998.92 455.74 999.26 443.45 997.70 C 383.13 991.24 324.12 973.33 270.19 945.60 C 227.76 923.33 188.04 895.55 153.58 862.19 C 139.80 848.69 126.26 834.90 114.14 819.87 C 62.97 757.99 26.54 683.79 10.18 605.10 C 5.72 583.66 2.37 561.93 1.14 540.05 C 0.83 531.46 0.79 522.84 0.00 514.28 L 0.00 486.49 C 1.15 473.68 0.70 460.78 2.10 447.98 C 8.31 386.27 26.20 325.75 54.72 270.66 C 77.86 226.29 107.39 185.16 142.57 149.53 C 144.82 146.82 147.38 144.39 150.06 142.10 C 171.11 121.23 194.35 102.62 218.82 85.91 C 295.74 33.32 387.88 3.33 481.01 0.49 C 485.25 0.49 489.51 0.69 493.72 0.00 M 469.99 8.52 C 402.09 12.91 335.04 31.23 274.57 62.47 C 260.76 69.80 246.88 77.10 233.90 85.87 C 219.82 94.44 206.75 104.53 193.81 114.72 C 178.94 126.43 164.81 139.08 151.62 152.66 C 128.08 176.13 106.53 201.70 88.41 229.61 C 92.18 232.24 96.83 233.69 99.93 237.21 C 100.11 238.50 99.38 239.69 99.09 240.92 C 101.89 238.76 104.89 236.83 108.15 235.43 C 113.97 232.66 120.58 232.66 126.87 233.21 C 140.05 234.69 152.01 242.82 159.23 253.79 C 163.90 260.95 164.79 269.85 163.70 278.15 C 161.61 289.46 154.24 299.76 143.90 304.91 C 135.33 309.39 125.03 309.00 115.95 306.41 C 102.84 301.89 90.61 291.81 86.98 277.99 C 85.91 272.36 86.68 266.57 86.53 260.87 C 85.57 261.96 84.63 263.06 83.67 264.16 C 79.62 261.82 75.52 259.51 71.95 256.47 C 43.74 306.30 23.69 360.88 14.26 417.41 C 10.84 437.49 8.35 457.76 7.62 478.11 C 7.34 491.06 7.59 504.02 7.50 516.98 C 7.28 526.03 8.22 535.05 9.02 544.05 C 10.49 559.05 12.42 574.01 15.21 588.82 C 29.16 666.23 62.40 739.93 110.53 802.07 C 155.17 858.59 211.27 906.70 275.88 938.94 C 315.52 959.54 358.14 974.20 401.87 983.20 C 435.13 989.77 469.04 993.57 502.97 993.01 C 508.67 993.21 514.32 992.18 520.02 992.50 C 534.02 992.30 547.98 990.89 561.87 989.14 C 609.54 983.01 656.30 969.94 700.15 950.26 C 737.86 933.25 773.80 912.05 805.99 886.01 C 822.26 873.04 837.28 858.65 852.15 844.14 C 862.15 833.47 872.18 822.79 881.44 811.45 C 936.62 744.15 973.02 661.79 986.52 575.87 C 989.84 553.72 992.34 531.38 992.00 508.97 C 992.06 494.31 992.11 479.66 991.15 465.04 C 986.71 407.55 972.64 350.71 948.67 298.21 C 924.18 243.51 889.49 193.37 846.69 151.41 C 824.01 128.75 799.28 108.07 772.51 90.38 C 737.82 67.55 700.47 48.65 661.17 35.13 C 618.92 20.37 574.63 11.67 530.01 8.52 C 510.02 7.75 489.98 7.80 469.99 8.52 M 81.21 240.70 C 80.12 242.57 78.99 244.41 77.81 246.23 C 82.44 246.52 86.03 249.75 89.89 251.95 C 90.77 250.82 91.65 249.68 92.54 248.56 C 88.86 245.80 84.82 243.55 81.21 240.70 M 113.44 247.59 C 103.92 251.15 97.69 261.87 99.20 271.90 C 100.70 279.89 107.31 285.49 113.90 289.52 C 119.10 292.51 124.78 295.68 131.01 295.03 C 142.84 294.35 152.28 282.70 151.46 271.09 C 150.22 263.22 144.45 256.84 138.01 252.58 C 130.86 247.96 121.88 244.53 113.44 247.59 Z" />
<path fill="#1b5bad" opacity="1.00" d=" M 479.57 20.68 C 489.12 20.28 498.66 19.76 508.23 20.01 C 509.07 23.76 509.08 27.61 509.03 31.43 C 495.17 33.03 481.16 32.84 467.29 34.35 C 466.49 40.05 467.14 45.84 468.00 51.50 C 481.07 51.95 494.08 50.11 507.15 50.54 C 507.61 54.30 508.22 58.09 507.61 61.88 C 494.73 64.03 481.53 63.25 468.62 64.92 C 468.18 71.45 468.69 78.03 469.52 84.52 C 481.37 84.86 493.16 83.55 504.99 83.48 C 507.76 83.68 510.73 82.98 513.38 83.96 C 513.67 87.80 513.68 91.69 513.04 95.50 C 494.08 96.14 475.14 97.86 456.18 97.91 C 454.80 80.63 454.48 63.30 453.51 46.01 C 453.67 38.25 452.54 30.52 453.06 22.76 C 461.79 21.22 470.75 21.47 479.57 20.68 Z" />
<path fill="#1b5bad" opacity="1.00" d=" M 526.18 21.07 C 530.44 20.85 534.70 21.06 538.94 21.55 C 539.30 34.72 537.85 47.85 537.41 61.00 C 536.47 73.13 536.15 85.30 534.87 97.39 C 530.67 97.59 526.46 97.23 522.31 96.65 C 521.71 93.53 521.96 90.32 522.23 87.19 C 523.30 65.14 524.53 43.09 526.18 21.07 Z" />
<path fill="#1b5bad" opacity="1.00" d=" M 564.54 31.81 C 574.72 25.67 587.79 24.84 598.86 28.97 C 609.78 33.00 617.63 44.58 617.10 56.12 C 612.84 56.62 608.23 57.07 604.10 55.88 C 602.03 52.64 601.94 48.40 599.29 45.46 C 594.65 39.34 586.04 37.72 578.92 39.57 C 572.74 41.21 568.13 46.33 565.81 52.12 C 562.10 61.00 560.35 71.39 564.23 80.51 C 568.02 90.01 580.28 94.68 589.56 90.69 C 595.16 87.91 597.80 81.98 601.65 77.40 C 605.79 78.90 610.20 80.13 613.68 82.96 C 612.05 89.02 607.96 94.18 603.35 98.31 C 593.93 105.89 580.52 106.15 569.46 102.44 C 557.43 98.54 548.91 86.47 548.52 73.95 C 548.42 65.77 548.01 57.23 551.36 49.56 C 554.32 42.80 558.02 35.75 564.54 31.81 Z" />
<path fill="#1b5bad" opacity="1.00" d=" M 380.00 35.47 C 394.43 32.41 409.04 27.78 423.95 29.87 C 432.50 32.43 436.83 41.62 437.01 50.00 C 437.70 58.02 432.34 65.22 425.69 69.12 C 434.25 75.18 441.58 82.72 448.86 90.21 C 450.73 92.39 452.98 94.33 454.25 96.95 C 449.62 99.37 444.17 100.20 438.99 100.62 C 433.95 96.58 429.71 91.67 424.83 87.45 C 420.16 83.23 416.05 77.89 409.99 75.61 C 404.84 75.06 399.81 76.89 394.90 78.16 C 396.38 88.56 399.81 98.62 400.63 109.12 C 396.52 110.38 392.29 111.67 387.95 111.39 C 382.78 91.38 378.85 71.07 374.52 50.87 C 373.85 46.62 372.48 42.41 372.53 38.09 C 374.56 36.29 377.48 36.20 380.00 35.47 M 408.16 42.23 C 401.51 43.54 394.84 44.73 388.32 46.60 C 389.02 52.87 390.27 59.07 391.91 65.17 C 397.66 64.62 403.23 62.97 408.87 61.80 C 413.88 60.72 419.37 58.94 422.07 54.20 C 424.55 50.17 421.96 44.97 418.14 42.87 C 415.18 40.72 411.45 41.69 408.16 42.23 Z" />
<path fill="#1b5bad" opacity="1.00" d=" M 640.04 38.80 C 644.09 39.80 647.99 41.29 651.70 43.19 C 650.08 52.69 645.52 61.35 643.06 70.62 C 652.90 74.80 662.93 78.55 673.07 81.96 C 677.24 73.39 679.40 63.92 684.08 55.61 C 688.19 55.20 691.99 57.50 695.69 59.00 C 695.40 63.02 693.82 66.76 692.56 70.53 C 685.50 90.60 678.55 110.72 670.70 130.50 C 666.18 130.28 661.43 128.75 658.21 125.46 C 661.27 115.05 665.41 105.02 668.67 94.68 C 658.60 90.71 648.45 86.82 638.05 83.77 C 634.00 94.03 630.59 104.52 626.31 114.69 C 622.04 113.73 617.76 112.50 614.05 110.11 C 616.17 101.59 619.41 93.42 622.31 85.14 C 626.69 72.88 631.21 60.66 635.71 48.44 C 636.96 45.15 637.90 41.66 640.04 38.80 Z" />
<path fill="#1b5bad" opacity="1.00" d=" M 327.89 53.07 C 334.41 50.63 341.79 49.29 348.55 51.56 C 355.93 54.70 360.57 62.42 361.33 70.23 C 362.38 77.41 358.17 84.18 352.84 88.63 C 361.42 92.90 369.39 98.26 377.19 103.80 C 380.26 106.02 383.40 108.22 385.96 111.04 C 382.03 114.54 376.86 115.91 372.03 117.61 C 365.67 114.32 360.17 109.66 354.18 105.78 C 349.34 102.63 344.59 98.99 338.89 97.59 C 334.00 98.58 329.19 100.44 324.78 102.79 C 327.16 112.85 332.63 121.90 335.07 131.95 C 332.52 134.71 328.50 135.69 325.05 136.98 C 322.35 137.39 321.71 134.03 320.74 132.24 C 311.92 111.24 303.19 90.18 295.26 68.82 C 293.97 66.67 296.61 65.91 298.07 65.19 C 307.95 61.01 317.81 56.77 327.89 53.07 M 312.15 73.56 C 314.56 79.11 316.46 84.88 319.04 90.36 C 322.20 90.17 325.06 88.28 328.06 87.27 C 333.94 84.62 340.42 82.66 345.19 78.14 C 349.92 72.76 345.32 62.97 338.11 63.54 C 329.06 65.63 320.35 69.23 312.15 73.56 Z" />
<path fill="#1b5bad" opacity="1.00" d=" M 713.37 68.76 C 717.80 69.61 721.95 71.83 725.28 74.86 C 722.04 83.15 717.67 90.93 713.79 98.92 C 708.42 109.48 703.37 120.22 697.69 130.62 C 695.71 134.20 694.36 138.14 691.94 141.46 C 687.37 141.66 683.23 138.78 679.78 136.03 C 683.06 128.62 686.51 121.29 690.21 114.08 C 697.81 98.91 705.25 83.66 713.37 68.76 Z" />
<path fill="#1b5bad" opacity="1.00" d=" M 236.11 100.49 C 249.40 92.52 262.32 83.90 276.04 76.67 C 278.93 79.58 281.10 83.12 282.53 86.96 C 271.18 95.09 258.65 101.41 247.29 109.52 C 250.06 114.46 252.93 119.34 256.05 124.06 C 264.62 119.14 272.88 113.69 281.36 108.60 C 284.12 106.95 286.89 105.23 290.01 104.34 C 293.02 107.14 294.90 110.95 296.30 114.77 C 285.71 121.41 275.00 127.87 264.44 134.57 C 262.59 135.30 263.97 136.95 264.57 138.04 C 267.57 142.68 270.07 147.64 273.41 152.06 C 285.55 145.29 296.99 137.30 309.25 130.71 C 311.07 129.62 312.61 131.74 313.57 133.06 C 314.92 135.43 317.09 138.00 316.38 140.91 C 313.96 143.01 311.14 144.58 308.43 146.29 C 295.75 153.96 283.28 161.98 270.44 169.38 C 268.16 171.41 266.57 167.97 265.42 166.44 C 255.54 150.72 245.68 134.97 236.26 118.96 C 233.76 114.44 230.75 110.16 229.01 105.26 C 231.27 103.52 233.66 101.96 236.11 100.49 Z" />
<path fill="#1b5bad" opacity="1.00" d=" M 731.42 97.42 C 735.39 92.41 741.79 90.33 747.98 90.09 C 758.44 90.54 768.14 96.27 774.75 104.20 C 778.16 108.40 780.01 113.60 780.46 118.96 C 779.77 123.61 779.49 128.97 776.02 132.51 C 772.03 131.92 768.11 129.59 765.09 126.86 C 765.21 122.65 768.06 118.18 765.60 114.07 C 762.58 108.83 756.97 105.71 751.56 103.43 C 747.38 101.61 742.97 104.60 741.15 108.32 C 740.34 110.43 741.97 112.36 743.02 114.04 C 748.93 122.06 756.88 128.45 762.01 137.06 C 764.62 141.87 764.88 147.55 764.36 152.88 C 762.93 159.75 757.42 165.46 750.88 167.75 C 742.27 170.06 732.54 169.02 725.15 163.80 C 717.69 158.86 709.88 152.39 708.10 143.15 C 708.07 137.17 707.01 130.66 710.19 125.24 C 711.00 123.95 711.97 121.66 713.93 122.58 C 717.29 123.64 720.51 125.44 723.07 127.88 C 723.24 132.06 719.77 136.08 721.65 140.18 C 724.73 147.95 731.87 153.78 739.91 155.84 C 745.71 158.17 753.58 150.82 749.88 145.02 C 743.77 134.47 732.45 127.54 728.08 115.85 C 726.78 109.67 727.00 102.38 731.42 97.42 Z" />
<path fill="#1b5bad" opacity="1.00" d=" M 485.19 105.23 C 516.85 104.09 548.69 105.82 579.84 111.81 C 622.91 120.07 664.67 135.49 702.48 157.76 C 718.59 167.22 734.39 177.33 748.96 189.07 C 764.90 201.27 779.30 215.32 793.32 229.65 C 844.67 284.51 880.56 354.02 893.97 428.07 C 903.99 483.25 902.67 540.48 889.81 595.09 C 869.70 679.80 820.40 757.16 752.42 811.47 C 715.90 840.60 674.46 863.67 630.09 878.39 C 599.64 888.49 567.94 894.82 535.98 897.49 C 526.68 898.45 517.31 897.52 508.01 898.47 C 496.98 898.48 485.92 898.88 474.94 897.62 C 401.34 893.14 329.53 866.48 270.06 823.04 C 242.44 803.01 217.50 779.32 195.85 752.95 C 183.35 737.93 172.45 721.66 162.25 705.02 C 131.98 655.07 114.11 598.04 108.41 540.01 C 106.25 521.40 107.20 502.63 107.00 483.93 C 108.84 440.89 117.76 398.14 133.17 357.90 C 159.41 290.33 204.42 230.08 262.19 186.23 C 312.80 147.39 372.83 120.64 435.88 110.34 C 452.19 107.65 468.67 105.94 485.19 105.23 M 471.53 113.69 C 443.73 116.15 416.14 121.29 389.49 129.59 C 364.75 137.19 340.90 147.58 318.15 159.90 C 298.15 170.66 278.81 182.79 261.38 197.40 C 217.91 232.49 181.28 276.39 156.46 326.58 C 132.07 374.05 118.10 426.75 115.00 479.99 C 110.81 553.97 128.45 629.13 165.21 693.49 C 191.11 739.37 226.80 779.44 268.50 811.52 C 327.14 856.30 398.85 883.77 472.40 889.69 C 487.23 890.99 502.16 891.58 517.02 890.50 C 525.38 890.70 533.69 889.73 542.00 889.03 C 598.16 883.54 652.95 865.33 701.52 836.65 C 740.99 813.51 775.70 782.72 804.98 747.67 C 857.74 683.50 888.78 601.96 892.51 519.00 C 892.49 507.35 892.49 495.69 892.51 484.03 C 891.84 464.84 889.09 445.78 885.54 426.92 C 871.05 352.63 834.25 282.79 780.85 229.12 C 722.98 169.42 645.13 129.67 563.01 117.04 C 549.06 115.14 535.06 112.92 520.95 112.96 C 512.00 112.15 502.99 112.59 494.01 112.54 C 486.53 113.34 478.99 112.63 471.53 113.69 Z" />
<path fill="#1b5bad" opacity="1.00" d=" M 204.02 123.89 C 207.98 120.87 211.40 117.01 215.93 114.82 C 219.10 114.33 220.42 117.79 222.23 119.67 C 223.04 121.03 225.14 122.85 223.35 124.32 C 218.54 129.65 212.68 133.89 207.42 138.75 C 218.11 151.99 229.24 164.87 240.08 177.99 C 242.46 180.96 245.17 183.72 247.06 187.06 C 245.17 191.20 240.96 193.80 237.09 195.88 C 225.88 183.99 215.92 171.00 205.12 158.73 C 202.07 155.43 199.47 151.68 195.94 148.85 C 189.55 152.94 184.39 158.67 177.95 162.71 C 175.06 159.75 171.89 156.90 170.10 153.09 C 180.98 142.87 192.73 133.64 204.02 123.89 Z" />
<path fill="#1b5bad" opacity="1.00" d=" M 799.61 137.72 C 816.64 133.98 835.88 145.10 840.44 162.08 C 841.81 169.36 841.54 177.40 837.92 184.03 C 835.07 185.62 832.23 183.31 829.75 182.07 C 828.31 181.00 825.68 180.27 825.99 178.04 C 826.52 173.12 829.25 168.05 826.99 163.18 C 823.78 155.78 816.10 150.21 807.93 150.07 C 802.96 150.27 798.25 152.31 794.43 155.45 C 787.60 161.51 780.89 168.70 779.08 177.98 C 777.72 187.51 785.19 196.79 794.08 199.39 C 800.44 201.45 806.18 196.98 812.05 195.35 C 815.25 197.23 817.12 200.87 818.99 204.00 C 820.95 206.69 817.17 208.11 815.30 209.16 C 806.93 212.95 796.97 215.32 788.13 211.70 C 778.57 207.61 771.10 199.40 766.90 190.00 C 764.74 183.21 765.11 175.74 767.03 168.94 C 772.24 154.34 784.08 141.20 799.61 137.72 Z" />
<path fill="#1b5bad" opacity="1.00" d=" M 390.00 160.93 C 463.03 160.95 536.05 160.91 609.08 160.96 C 609.02 188.65 609.14 216.34 609.01 244.03 C 609.02 246.48 609.42 248.89 609.87 251.29 C 610.27 299.52 609.73 347.80 610.14 396.04 L 610.23 396.87 C 653.29 396.98 696.36 396.93 739.43 396.90 C 774.95 397.13 810.48 396.94 846.00 397.00 C 846.00 470.22 845.99 543.44 846.01 616.67 C 833.01 616.73 819.99 616.28 807.01 617.03 C 750.34 616.96 693.67 617.02 637.00 617.00 C 627.97 616.52 619.02 617.99 610.00 617.65 C 610.01 665.47 609.99 713.28 610.01 761.09 C 609.98 761.49 609.90 762.29 609.87 762.68 C 608.47 768.68 609.22 774.86 609.07 780.96 C 609.09 804.97 609.06 828.99 609.05 853.00 C 569.84 853.08 530.62 852.85 491.42 853.12 C 468.72 853.10 446.03 852.94 423.34 853.19 C 412.23 852.80 401.11 853.08 390.00 853.00 C 390.00 850.98 390.00 848.98 389.99 846.98 C 389.85 796.99 390.01 747.00 389.91 697.01 C 389.82 690.89 390.51 684.70 389.18 678.67 C 388.73 658.34 389.15 637.96 388.99 617.61 C 387.02 617.20 385.03 616.96 383.03 617.00 C 336.36 616.99 289.69 617.01 243.02 616.99 C 236.70 616.37 230.35 616.70 224.01 616.63 C 200.52 616.63 177.04 616.63 153.55 616.63 L 153.64 615.68 C 154.34 602.47 153.71 589.20 153.92 575.97 C 153.94 516.31 153.92 456.66 153.93 397.00 C 214.97 396.99 276.01 397.03 337.05 396.98 C 348.38 396.87 359.71 396.97 371.03 396.93 C 377.02 396.85 383.05 397.32 389.00 396.44 C 389.10 383.74 388.80 371.01 389.13 358.32 C 389.45 356.55 389.78 354.78 389.91 353.00 C 389.98 300.68 389.86 248.35 389.98 196.02 C 390.03 184.33 389.99 172.63 390.00 160.93 M 486.97 328.56 C 482.77 329.93 478.32 329.36 474.00 329.47 C 467.78 329.53 461.36 330.62 455.99 333.91 C 453.49 335.36 451.17 337.53 448.12 337.62 C 441.03 338.23 433.86 340.61 428.50 345.42 C 425.04 348.37 422.19 352.27 417.72 353.78 C 409.81 357.07 403.84 363.87 400.67 371.73 C 398.73 376.99 393.43 380.04 391.53 385.30 C 389.86 389.21 389.47 393.48 389.42 397.69 C 383.06 397.83 376.24 398.78 371.40 403.31 C 368.95 405.63 366.56 408.19 363.18 409.10 C 355.20 412.03 348.52 418.43 345.38 426.34 C 343.32 431.59 337.86 434.30 335.16 439.15 C 331.07 444.92 329.79 451.95 328.66 458.77 C 325.45 465.17 321.80 471.60 321.25 478.92 C 320.15 483.91 322.88 489.10 320.75 493.91 C 318.55 499.61 317.97 505.87 318.83 511.90 C 319.35 515.62 320.87 519.15 320.97 522.94 C 321.13 528.36 320.71 533.86 321.75 539.23 C 322.81 543.96 324.96 548.37 327.47 552.49 C 329.36 555.29 329.37 558.78 329.97 561.99 C 331.17 569.40 335.49 575.95 340.85 581.06 C 343.09 583.04 344.64 585.61 345.74 588.37 C 349.18 596.15 355.92 602.12 363.85 605.07 C 368.20 606.35 370.56 610.56 374.40 612.67 C 379.01 615.37 384.43 616.14 389.68 616.42 C 389.58 620.28 389.49 624.30 391.14 627.90 C 393.08 633.54 398.86 636.68 400.77 642.34 C 403.71 650.29 409.96 656.96 417.88 660.10 C 420.86 661.18 423.16 663.38 425.24 665.70 C 430.34 671.26 437.50 674.70 444.92 675.80 C 448.40 676.24 451.89 677.07 454.81 679.10 C 461.68 683.42 470.02 684.57 477.99 684.01 C 484.61 683.27 490.44 687.56 497.05 687.12 C 503.20 687.45 509.04 685.43 514.95 684.15 C 521.64 684.45 528.49 684.92 534.93 682.62 C 540.28 681.37 544.27 676.85 549.83 676.31 C 558.32 675.42 566.46 671.56 572.22 665.21 C 575.88 660.80 581.75 659.59 586.09 656.09 C 590.87 652.41 594.84 647.52 596.72 641.73 C 597.89 637.39 602.33 635.26 604.28 631.38 C 607.02 626.81 607.55 621.41 607.86 616.21 C 613.72 616.35 619.70 614.90 624.58 611.61 C 627.33 609.74 629.18 606.65 632.39 605.47 C 637.83 603.39 643.16 600.48 646.92 595.93 C 650.65 591.45 651.87 585.26 656.40 581.39 C 662.44 575.72 666.72 568.13 667.75 559.84 C 668.48 552.62 673.84 547.06 675.07 540.00 C 676.66 533.09 674.53 525.80 676.92 519.02 C 679.11 513.30 678.78 507.07 678.40 501.08 C 677.93 496.34 674.92 491.99 675.84 487.12 C 677.27 478.59 674.92 469.87 670.52 462.55 C 667.90 458.50 667.93 453.56 666.64 449.06 C 665.19 443.90 662.47 439.09 658.80 435.19 C 656.52 432.75 653.55 430.74 652.43 427.44 C 648.98 419.14 642.26 412.22 633.85 408.92 C 628.93 407.36 626.20 402.50 621.62 400.36 C 617.34 398.28 612.45 398.43 607.81 398.03 C 607.52 393.75 607.60 389.28 605.79 385.29 C 604.25 381.72 601.31 379.07 598.99 376.04 C 597.31 373.85 596.42 371.22 595.24 368.76 C 593.20 364.43 590.02 360.69 586.30 357.70 C 582.37 354.42 577.02 353.38 573.39 349.69 C 568.29 344.58 562.31 339.88 555.09 338.37 C 551.69 337.60 547.94 338.08 544.87 336.18 C 540.81 333.93 536.74 331.49 532.17 330.48 C 526.20 329.43 520.09 329.98 514.09 329.34 C 510.67 328.88 507.44 327.52 504.03 327.10 C 498.32 326.40 492.45 326.80 486.97 328.56 Z" />
<path fill="#1b5bad" opacity="1.00" d=" M 143.12 181.10 C 147.07 176.97 152.23 173.91 157.94 173.08 C 165.04 171.30 172.77 173.93 177.91 178.98 C 176.26 182.60 173.93 185.95 170.75 188.39 C 166.57 188.97 162.76 184.79 158.49 186.62 C 151.87 189.25 146.61 195.32 144.59 202.12 C 143.50 206.33 147.15 209.51 150.75 210.70 C 162.41 206.54 170.75 196.09 182.80 192.79 C 189.80 191.45 198.17 192.14 203.17 197.82 C 209.43 204.07 210.24 213.79 208.07 221.96 C 204.69 232.07 196.59 240.21 187.30 245.13 C 182.95 247.68 177.82 246.93 173.02 247.03 C 167.30 247.35 161.82 244.28 158.03 240.18 C 160.15 236.70 162.57 233.43 165.15 230.28 C 169.53 231.66 173.75 234.84 178.57 233.78 C 183.32 232.96 186.95 229.51 190.15 226.16 C 193.40 222.78 195.65 218.51 196.75 213.96 C 195.62 211.06 194.28 207.82 191.19 206.54 C 188.50 205.09 185.57 206.70 183.13 207.90 C 175.88 211.82 169.41 217.01 162.23 221.04 C 155.51 224.93 146.70 225.05 140.03 221.00 C 136.69 218.59 134.01 215.24 132.43 211.44 C 131.25 206.78 131.47 201.88 132.26 197.17 C 134.20 190.88 138.46 185.62 143.12 181.10 Z" />
<path fill="#1b5bad" opacity="1.00" d=" M 859.48 186.48 C 861.19 185.21 862.90 183.86 864.90 183.05 C 868.35 185.51 871.85 188.93 873.06 193.04 C 866.34 199.88 858.22 205.19 850.80 211.24 C 857.31 219.78 863.64 228.50 870.73 236.58 C 877.41 232.39 883.40 227.23 889.67 222.46 C 891.21 221.44 892.82 219.66 894.85 220.68 C 897.75 223.28 900.58 226.34 901.77 230.13 C 891.42 239.82 879.80 248.06 868.74 256.90 C 861.24 262.71 853.77 268.55 846.20 274.26 C 844.93 275.15 843.64 276.18 842.10 276.53 C 838.83 273.96 836.63 270.29 834.55 266.76 C 834.88 265.30 836.36 264.43 837.34 263.38 C 844.79 257.28 852.66 251.69 859.89 245.31 C 853.76 236.56 847.18 228.08 840.08 220.08 C 832.39 225.20 825.32 231.15 817.86 236.59 C 816.36 237.62 814.88 238.83 813.04 239.14 C 810.20 236.66 807.63 233.63 806.14 230.15 C 805.16 228.14 807.46 226.91 808.65 225.76 C 825.75 212.87 842.39 199.39 859.48 186.48 Z" />
<path fill="#1b5bad" opacity="1.00" d=" M 898.45 256.29 C 903.36 253.98 907.87 250.83 912.98 248.97 C 914.71 248.72 915.29 250.82 916.25 251.86 C 920.46 258.97 924.25 266.33 928.24 273.58 C 932.31 281.45 936.94 289.05 940.39 297.23 C 937.63 300.35 933.70 302.03 929.85 303.37 C 922.10 291.82 916.74 278.84 909.17 267.17 C 904.52 269.94 898.84 271.38 894.89 275.05 C 899.60 287.13 907.47 297.78 912.03 309.96 C 908.81 312.31 905.40 314.72 901.34 315.26 C 894.77 304.15 888.67 292.79 882.39 281.52 C 876.63 284.44 870.78 287.21 865.42 290.84 C 871.53 303.98 879.69 316.14 885.10 329.60 C 881.97 332.02 878.49 333.92 874.80 335.33 C 870.48 329.62 867.59 323.01 863.99 316.85 C 858.84 306.84 853.05 297.15 848.28 286.95 C 846.81 284.37 850.12 283.16 851.75 281.97 C 867.12 273.07 882.81 264.71 898.45 256.29 Z" />
<path fill="#1b5bad" opacity="1.00" d=" M 426.87 351.12 C 434.19 342.82 446.11 338.46 456.98 341.21 C 464.21 343.00 471.48 344.77 478.43 347.51 C 474.73 349.92 470.34 350.93 466.04 351.64 C 462.28 352.09 458.33 352.77 454.66 351.49 C 462.31 351.35 470.28 351.13 477.25 347.56 C 471.14 345.60 464.92 344.00 458.74 342.27 C 447.90 338.42 435.70 343.18 427.77 350.89 C 431.45 351.02 435.17 350.77 438.83 351.35 C 434.84 351.69 430.84 351.45 426.87 351.12 Z" />
<path fill="#1b5bad" opacity="1.00" d=" M 475.58 352.33 C 479.48 351.20 483.18 348.45 487.42 349.39 C 495.57 350.65 503.89 350.52 512.01 349.05 C 516.60 349.32 520.52 352.47 525.08 353.18 C 530.45 354.84 536.27 354.01 541.61 355.48 C 548.18 360.73 555.56 364.99 563.60 367.54 C 566.75 368.41 568.43 371.39 570.24 373.84 C 573.17 378.13 576.49 382.14 580.05 385.93 C 584.43 390.37 584.94 397.10 585.15 403.00 C 581.93 401.21 579.03 398.95 576.02 396.85 C 569.20 403.09 562.66 409.62 556.14 416.16 C 551.49 421.06 546.40 425.58 542.38 431.05 C 547.70 434.66 552.68 438.98 558.54 441.67 C 566.48 447.75 569.95 457.54 576.84 464.59 C 587.19 455.02 597.01 444.90 606.92 434.89 C 607.97 433.64 609.46 432.59 609.96 430.99 C 607.99 427.17 604.90 424.08 602.81 420.33 C 606.72 420.50 610.64 420.30 614.54 420.64 C 616.72 421.97 618.35 424.00 620.24 425.70 C 625.22 430.51 630.89 434.54 636.69 438.30 C 639.03 445.21 641.53 452.19 645.89 458.13 C 647.80 461.21 650.99 463.95 650.79 467.88 C 651.05 474.75 652.11 481.67 654.80 488.04 C 655.64 490.19 656.93 492.42 656.32 494.83 C 654.98 502.87 654.94 511.17 656.35 519.21 C 657.18 522.67 654.68 525.61 653.73 528.77 C 651.53 534.95 650.84 541.54 650.43 548.05 C 650.49 550.28 648.65 551.81 647.48 553.50 C 643.13 558.92 640.16 565.29 638.04 571.88 C 637.24 574.82 634.42 576.38 632.20 578.15 C 627.56 581.46 623.22 585.16 618.89 588.86 C 614.92 592.46 609.29 592.88 604.21 593.23 C 605.97 589.99 608.23 587.07 610.29 584.02 C 607.36 580.27 603.38 577.37 601.01 573.19 C 604.53 575.73 607.45 578.96 610.52 582.01 C 621.29 565.02 629.16 545.97 632.04 525.98 C 633.57 516.04 632.90 505.94 632.91 495.93 C 630.60 473.56 622.56 451.92 610.45 433.02 C 606.96 436.65 603.36 440.15 599.51 443.40 C 592.24 450.51 585.11 457.77 577.92 464.96 C 580.88 471.83 584.10 478.65 585.76 485.98 C 588.37 495.78 588.20 506.02 587.89 516.06 C 587.66 528.19 583.24 539.70 578.56 550.73 C 585.93 558.08 593.32 565.42 600.62 572.85 C 599.47 572.24 598.38 571.57 597.49 570.65 C 590.83 563.96 584.30 557.14 577.19 550.94 C 573.51 556.01 570.03 561.22 566.21 566.19 C 574.80 575.79 584.12 584.71 593.10 593.95 C 593.61 594.76 595.35 595.82 594.34 596.87 C 592.57 599.10 590.75 601.68 588.10 602.89 C 586.33 602.06 585.07 600.49 583.65 599.22 C 575.12 591.00 567.03 582.32 558.07 574.55 C 553.19 578.18 548.24 581.71 543.20 585.10 C 549.15 592.02 555.77 598.34 562.16 604.85 C 566.78 609.18 570.98 614.00 576.01 617.88 C 579.32 616.48 582.01 613.97 585.11 612.18 C 585.02 615.96 585.30 619.84 584.43 623.55 C 581.31 627.35 577.50 630.57 574.60 634.57 C 571.79 637.85 569.81 641.74 567.04 645.03 C 560.73 647.49 554.07 649.38 548.48 653.39 C 545.10 655.40 542.38 659.27 538.03 658.92 C 530.11 658.99 522.24 660.81 515.05 664.12 C 511.84 665.80 508.28 664.07 504.95 663.82 C 497.90 662.67 490.87 664.12 483.90 664.99 C 480.20 663.83 476.84 661.75 473.03 660.87 C 467.51 659.17 461.68 659.32 456.01 658.58 C 452.55 656.63 449.76 653.60 446.16 651.82 C 441.64 648.96 436.47 647.52 431.66 645.31 C 427.95 642.33 425.88 637.84 422.73 634.33 C 420.20 630.91 416.78 628.21 414.44 624.69 C 413.12 620.03 412.34 615.23 411.59 610.46 C 415.59 612.76 419.21 615.63 423.09 618.13 C 430.76 611.50 437.67 604.04 444.92 596.96 C 448.64 593.13 452.78 589.62 455.68 585.08 C 450.82 581.83 446.34 577.68 441.11 575.17 C 437.86 577.15 435.31 580.05 432.55 582.62 C 425.01 589.97 417.65 597.49 410.18 604.91 C 407.71 602.01 404.90 599.37 402.90 596.12 L 403.50 596.67 C 405.74 598.74 407.79 601.01 409.65 603.44 C 419.21 595.46 427.68 586.33 436.57 577.64 C 437.56 576.60 438.61 575.58 439.34 574.33 C 437.32 571.97 435.01 569.88 432.81 567.71 C 423.48 576.83 414.47 586.27 405.02 595.26 C 405.69 594.21 406.41 593.19 407.24 592.26 C 415.60 583.52 424.38 575.18 432.50 566.21 C 428.95 561.19 425.45 556.14 422.07 551.01 C 410.46 561.35 399.56 572.49 389.09 583.98 C 391.07 587.14 393.23 590.19 395.00 593.48 C 390.74 593.61 386.47 593.44 382.23 592.96 C 376.37 587.34 370.31 581.86 363.51 577.37 C 361.91 576.23 359.98 575.15 359.57 573.05 C 357.67 567.15 355.34 561.33 351.75 556.24 C 350.20 553.89 348.17 551.88 346.76 549.45 C 345.95 543.24 346.18 536.85 344.29 530.81 C 343.44 527.44 341.51 524.44 340.83 521.03 C 341.07 515.69 342.31 510.42 342.02 505.05 C 342.14 500.64 340.83 496.32 340.98 491.92 C 341.98 487.86 344.15 484.18 344.96 480.05 C 346.33 475.00 345.84 469.68 346.83 464.59 C 350.49 459.20 354.70 454.05 357.05 447.89 C 358.57 444.57 358.95 440.49 361.96 438.09 C 365.98 434.68 370.37 431.75 374.39 428.35 C 377.38 426.00 380.05 422.86 383.93 421.99 C 388.24 420.89 392.61 419.98 397.03 419.36 C 394.93 423.62 391.36 426.91 389.10 431.09 C 396.03 438.76 403.37 446.06 410.73 453.33 C 414.59 457.06 418.23 461.08 422.70 464.12 C 426.25 459.26 430.06 454.56 433.13 449.37 C 423.26 438.39 412.27 428.47 402.40 417.49 C 404.61 414.99 406.89 412.56 409.29 410.23 C 420.21 420.50 430.45 431.48 441.48 441.63 C 446.57 437.84 451.96 434.44 456.84 430.39 C 452.48 425.10 446.83 420.91 443.02 415.22 C 448.55 419.23 452.66 424.81 457.96 429.10 C 470.73 423.16 484.82 419.27 499.00 419.99 C 513.72 419.48 528.40 423.13 541.63 429.50 C 552.50 418.60 563.43 407.78 574.25 396.83 C 555.87 384.95 534.87 376.61 512.95 374.74 C 497.34 372.94 481.43 374.34 466.21 378.17 C 451.79 382.12 438.01 388.38 425.43 396.44 C 430.73 402.95 437.47 408.13 442.58 414.82 C 435.80 410.30 431.35 402.91 424.48 398.44 C 423.24 397.65 421.57 397.56 420.41 398.54 C 417.34 400.81 414.56 403.49 411.13 405.24 C 411.98 400.57 411.94 395.83 412.23 391.12 C 416.62 385.62 422.00 380.91 425.90 374.98 C 428.01 372.36 429.51 368.65 433.10 367.77 C 439.57 365.49 446.07 362.85 451.46 358.50 C 453.44 357.03 455.36 355.06 458.00 354.95 C 463.89 354.35 469.93 354.34 475.58 352.33 M 403.13 417.74 C 413.26 427.74 423.32 437.82 433.36 447.92 C 435.63 445.93 437.76 443.81 439.87 441.67 C 429.55 431.76 419.84 421.19 409.32 411.52 C 406.88 413.19 405.04 415.53 403.13 417.74 M 370.04 475.15 C 362.23 504.65 365.69 536.76 378.79 564.25 C 381.80 570.39 384.73 576.66 388.96 582.09 C 399.55 571.72 409.93 561.13 420.45 550.68 C 413.51 536.21 409.39 520.08 410.95 503.99 C 410.76 490.35 414.97 477.04 421.10 464.98 C 411.94 455.77 402.73 446.63 393.58 437.42 C 392.08 435.89 390.34 434.62 388.64 433.33 C 380.12 446.07 373.84 460.31 370.04 475.15 M 432.18 494.67 C 433.58 496.47 436.06 497.61 436.30 500.11 C 437.40 503.72 435.38 507.42 433.24 510.23 C 428.57 514.88 422.05 517.29 415.58 517.96 C 415.81 520.69 416.11 523.45 417.02 526.06 C 423.44 525.78 429.64 523.36 434.99 519.86 C 437.86 517.79 440.35 515.23 443.16 513.08 C 448.41 515.71 452.98 519.57 458.49 521.73 C 465.17 524.45 472.39 527.91 479.76 525.75 C 487.97 523.93 494.07 517.97 500.59 513.14 C 509.18 518.40 517.94 523.89 527.95 525.96 C 533.96 527.29 540.10 525.27 545.38 522.45 C 550.09 520.03 553.64 516.00 557.92 512.96 C 565.40 517.59 572.93 522.87 581.70 524.59 C 582.09 522.44 582.70 520.33 582.95 518.15 C 579.17 514.56 574.67 511.76 571.26 507.75 C 565.88 503.14 562.47 495.92 555.45 493.49 C 552.69 492.23 549.75 493.70 547.02 494.27 C 549.14 496.40 552.33 498.55 552.00 501.95 C 551.61 509.25 545.15 514.41 538.87 516.94 C 534.39 516.85 529.54 517.91 525.41 515.71 C 514.58 511.06 508.64 499.98 498.86 493.83 C 495.98 492.11 492.68 493.63 489.75 494.29 C 491.18 496.44 493.62 498.10 494.07 500.78 C 493.96 505.47 492.08 510.47 487.98 513.06 C 483.61 515.99 478.29 518.63 472.91 517.29 C 463.72 515.16 456.53 508.44 450.32 501.70 C 447.58 498.18 444.07 495.11 439.91 493.43 C 437.29 492.29 434.54 493.53 432.18 494.67 M 418.68 533.85 C 419.26 535.25 419.93 536.99 421.84 536.36 C 430.25 535.10 437.81 530.76 444.65 525.91 C 453.19 530.40 461.96 534.77 471.49 536.69 C 480.94 538.19 490.67 534.74 498.01 528.82 C 499.75 527.68 501.87 525.43 504.05 526.92 C 511.20 531.11 518.92 534.38 526.99 536.33 C 537.81 538.85 549.48 534.74 557.22 526.99 C 558.94 527.07 560.81 526.64 562.39 527.54 C 567.62 529.97 572.62 533.21 578.33 534.40 C 578.96 533.85 579.58 533.27 580.18 532.68 C 572.63 529.35 565.32 525.55 558.35 521.14 C 551.90 529.31 541.47 534.67 530.92 533.61 C 520.12 532.32 510.19 527.27 501.38 521.12 C 498.74 523.52 496.52 526.40 493.51 528.37 C 487.16 532.51 479.32 534.71 471.76 533.32 C 461.87 531.52 452.50 527.21 444.44 521.24 C 437.52 528.21 428.29 532.29 418.68 533.85 M 445.72 533.78 C 439.77 540.09 431.35 543.06 423.09 544.93 C 423.91 545.84 424.74 546.74 425.59 547.65 C 432.38 546.26 438.56 543.03 444.51 539.60 C 446.52 538.23 448.94 539.20 450.88 540.21 C 459.93 544.63 469.76 548.52 480.02 548.00 C 487.77 548.17 494.92 544.33 501.02 539.89 C 503.28 538.00 506.15 539.44 508.47 540.43 C 516.28 544.07 524.47 547.24 533.11 548.15 C 543.33 548.92 553.11 544.40 560.87 538.04 C 565.56 539.80 569.63 543.09 574.63 544.03 C 575.61 543.30 576.93 541.56 574.93 541.20 C 569.85 539.06 565.13 536.11 560.08 533.97 C 554.92 539.25 548.27 543.25 540.92 544.46 C 528.58 545.90 516.29 541.59 505.86 535.27 C 504.83 534.88 503.46 533.24 502.46 534.49 C 496.73 539.65 489.72 543.86 481.89 544.57 C 468.98 545.68 456.61 540.15 445.72 533.78 M 566.36 568.14 C 564.21 570.27 562.08 572.42 559.93 574.55 C 569.54 583.64 578.33 593.58 588.35 602.24 C 590.28 600.21 592.27 598.24 594.34 596.34 C 585.16 586.79 575.57 577.64 566.36 568.14 M 425.39 618.65 C 428.12 620.59 430.98 622.37 433.99 623.86 C 442.47 628.10 450.97 632.47 460.10 635.17 C 478.39 640.81 497.92 642.86 516.92 640.18 C 537.24 637.50 556.80 629.82 573.91 618.60 C 570.81 614.23 566.76 610.72 563.05 606.92 C 556.22 600.13 549.47 593.25 542.59 586.53 C 516.13 600.55 482.92 600.28 456.37 586.56 C 445.75 596.98 435.15 607.44 425.39 618.65 Z" />
<path fill="#1b5bad" opacity="1.00" d=" M 599.37 381.49 C 602.39 384.11 603.88 388.10 604.54 391.94 C 605.13 395.79 603.87 401.07 599.54 402.04 C 599.03 395.20 599.21 388.34 599.37 381.49 M 600.10 382.66 C 599.95 388.93 599.61 395.18 600.12 401.45 C 601.78 399.61 603.89 397.72 603.98 395.06 C 604.39 390.58 602.23 386.43 600.10 382.66 Z" />
<path fill="#1b5bad" opacity="1.00" d=" M 372.69 406.50 C 377.85 400.88 388.85 397.73 393.99 405.01 C 393.80 405.28 393.41 405.82 393.22 406.09 C 386.42 406.80 379.52 406.70 372.69 406.50 M 374.35 405.31 L 374.30 406.00 C 380.62 405.87 387.03 406.47 393.26 405.08 C 388.45 398.90 379.83 401.73 374.35 405.31 Z" />
<path fill="#1b5bad" opacity="1.00" d=" M 371.96 489.91 C 375.00 488.41 379.15 488.41 381.58 491.06 C 381.70 494.21 382.47 497.26 383.58 500.20 C 383.44 500.77 383.15 501.91 383.00 502.48 C 381.83 498.47 381.15 494.35 380.47 490.25 C 377.69 490.28 374.90 490.33 372.13 490.43 C 373.63 499.13 376.64 507.47 378.66 516.05 L 378.40 516.08 C 375.82 509.22 374.30 502.02 372.16 495.02 C 371.80 493.36 370.78 491.47 371.96 489.91 Z" />
<path fill="#1b5bad" opacity="1.00" d=" M 607.09 500.86 C 607.28 498.94 607.28 496.91 608.56 495.34 C 608.32 497.09 608.09 498.84 607.91 500.60 C 609.66 500.15 611.47 499.82 613.13 499.06 C 613.15 497.14 611.17 496.70 609.83 495.94 C 611.05 496.11 612.28 496.33 613.50 496.61 C 613.87 497.76 613.93 499.12 613.23 500.17 C 611.24 500.78 609.14 500.73 607.09 500.86 Z" />
<path fill="#1b5bad" opacity="1.00" d=" M 491.27 616.95 C 496.17 612.74 495.95 605.62 499.20 600.37 C 502.61 604.46 503.19 610.07 505.17 614.89 C 509.73 616.48 514.74 617.02 518.83 619.76 C 514.02 618.35 509.28 616.76 504.52 615.21 C 503.50 616.67 502.49 618.14 501.49 619.64 C 507.06 620.39 512.74 619.91 518.26 621.09 C 515.72 622.04 513.22 623.12 510.59 623.79 C 510.35 623.42 509.86 622.69 509.62 622.33 L 512.34 621.53 C 508.46 620.61 504.33 621.48 500.56 619.93 C 501.26 618.45 502.02 617.02 502.85 615.61 C 502.50 614.05 502.15 612.48 501.93 610.91 C 501.94 609.38 500.98 608.14 499.73 607.41 C 499.68 605.46 499.58 603.53 499.45 601.60 C 497.36 606.01 496.03 610.70 494.54 615.33 C 495.91 616.04 497.04 618.37 498.80 617.65 C 499.48 615.42 499.55 613.08 499.64 610.78 L 499.89 611.58 C 500.11 613.81 500.02 616.07 500.16 618.32 C 499.75 618.55 498.92 619.02 498.51 619.25 C 496.44 617.54 493.95 616.70 491.27 616.95 Z" />
<path fill="#1b5bad" opacity="1.00" d=" M 601.99 607.88 C 609.37 606.75 616.88 607.25 624.32 607.54 C 620.28 612.44 613.27 613.42 607.34 612.44 C 605.02 611.71 603.59 609.55 601.99 607.88 M 602.80 608.10 C 605.08 610.13 607.61 612.61 610.97 612.00 C 615.40 612.55 619.64 610.80 622.97 607.96 C 616.24 608.10 609.52 607.88 602.80 608.10 Z" />
<path fill="#1b5bad" opacity="1.00" d=" M 479.45 620.66 C 481.13 618.74 483.47 617.74 486.03 617.79 C 486.73 618.52 487.43 619.26 488.15 620.00 C 491.48 620.27 495.32 618.98 498.09 621.40 C 497.13 623.12 495.88 624.66 494.35 625.91 C 489.40 624.11 484.20 622.98 479.45 620.66 M 480.99 619.86 C 484.43 622.64 488.94 623.48 493.09 624.68 C 495.67 625.73 495.99 622.35 496.95 620.85 C 491.63 620.57 486.31 620.23 480.99 619.86 Z" />
<path fill="#1b5bad" opacity="1.00" d=" M 499.52 623.32 C 500.74 621.07 503.50 623.87 505.29 624.18 C 503.77 629.71 502.74 635.72 499.37 640.47 C 498.70 634.80 498.73 628.98 499.52 623.32 M 500.51 622.62 C 499.53 626.88 499.49 631.29 500.18 635.60 C 502.87 632.74 503.50 628.61 504.29 624.91 C 503.05 624.10 501.79 623.34 500.51 622.62 Z" />
<path fill="#1b5bad" opacity="1.00" d=" M 132.63 687.63 C 134.74 685.69 136.47 683.22 139.02 681.83 C 142.18 684.86 144.52 688.68 146.14 692.74 C 145.16 693.95 144.18 695.17 143.21 696.41 C 132.45 708.51 120.82 719.78 110.03 731.83 C 127.18 726.96 144.07 721.20 161.22 716.30 C 164.27 718.80 166.25 722.27 168.25 725.60 C 169.17 726.99 169.43 728.92 168.27 730.29 C 157.68 743.37 146.12 755.64 135.30 768.52 C 152.04 763.31 168.31 756.65 185.15 751.74 C 187.78 755.11 190.08 758.73 191.91 762.60 C 186.59 765.37 180.74 766.90 175.11 768.89 C 159.26 774.19 143.34 779.27 127.42 784.38 C 124.02 785.23 120.74 786.83 117.21 786.97 C 114.45 784.14 112.60 780.58 110.75 777.13 C 122.48 762.01 135.95 748.36 147.96 733.49 C 129.64 738.80 111.62 745.15 93.18 750.12 C 90.54 746.94 88.15 743.56 86.14 739.96 C 92.89 730.60 101.25 722.56 108.73 713.79 C 116.71 705.08 124.50 696.20 132.63 687.63 Z" />
<path fill="#1b5bad" opacity="1.00" d=" M 865.46 692.40 C 872.88 686.70 883.04 687.28 891.63 689.53 C 891.80 693.71 890.55 697.72 889.24 701.64 C 882.83 700.63 875.51 700.66 870.43 705.32 C 865.87 709.79 862.53 715.70 861.56 722.05 C 860.78 728.07 863.82 733.89 867.85 738.16 C 873.76 744.88 882.30 749.06 891.07 750.43 C 897.99 750.56 904.13 746.42 908.68 741.54 C 912.96 736.74 914.50 730.27 915.69 724.13 C 915.85 722.43 916.56 720.35 915.17 719.00 C 912.77 716.91 909.93 715.29 906.97 714.17 C 902.91 719.31 900.57 725.67 896.14 730.54 C 892.10 730.51 888.72 727.56 885.83 725.01 C 888.20 718.41 892.53 712.72 895.76 706.53 C 898.10 702.96 899.71 698.66 903.05 695.90 C 908.05 697.40 912.24 700.73 916.78 703.23 C 920.58 705.78 925.12 707.43 928.16 710.97 C 929.83 716.44 928.80 722.31 928.34 727.91 C 927.47 737.46 922.69 746.36 915.87 753.00 C 909.26 760.10 899.67 764.21 889.97 764.01 C 876.43 763.48 863.52 756.17 855.43 745.43 C 850.67 739.46 848.49 731.74 848.66 724.17 C 849.38 711.90 855.52 699.75 865.46 692.40 Z" />
<path fill="#1b5bad" opacity="1.00" d=" M 822.02 755.11 C 824.16 751.41 827.19 748.39 830.26 745.47 C 839.82 752.18 848.10 760.52 857.10 767.94 C 867.15 777.03 877.80 785.48 887.37 795.09 C 885.09 799.51 881.82 805.48 875.93 804.52 C 856.82 802.70 837.87 799.54 818.79 797.46 C 826.69 805.17 835.26 812.16 843.43 819.57 C 847.55 823.27 851.95 826.73 855.53 830.98 C 854.85 835.29 850.55 837.71 847.92 840.85 C 843.94 839.06 840.90 835.85 837.63 833.06 C 822.92 820.22 808.31 807.24 793.82 794.16 C 792.87 792.95 790.70 791.74 791.60 789.97 C 792.83 787.22 794.78 784.79 797.03 782.81 C 799.56 780.75 802.90 781.95 805.80 782.20 C 823.84 784.26 841.78 787.09 859.85 788.94 C 853.12 783.08 846.42 777.18 839.71 771.30 C 833.82 765.89 827.48 760.95 822.02 755.11 Z" />
<path fill="#1b5bad" opacity="1.00" d=" M 201.51 779.38 C 203.59 778.54 205.64 777.56 207.85 777.09 C 211.54 779.12 214.41 782.29 217.18 785.40 C 216.56 789.47 214.49 793.09 212.99 796.87 C 203.59 818.28 194.20 839.69 184.13 860.79 C 180.79 858.23 177.30 855.66 174.84 852.20 C 173.17 850.17 174.61 847.67 175.36 845.58 C 177.84 840.20 180.38 834.85 182.91 829.49 C 176.72 823.12 170.98 816.32 164.47 810.26 C 157.13 812.10 150.65 817.08 143.14 818.37 C 139.60 816.17 136.59 813.16 133.93 809.97 C 133.71 807.84 136.02 807.32 137.46 806.49 C 158.69 797.17 180.07 788.19 201.51 779.38 M 176.93 804.22 C 180.73 808.59 184.58 812.94 188.67 817.06 C 192.34 809.29 196.21 801.62 199.78 793.81 C 192.33 797.63 184.61 800.90 176.93 804.22 Z" />
<path fill="#1b5bad" opacity="1.00" d=" M 772.44 806.97 C 774.90 803.62 778.37 801.14 782.10 799.36 C 789.26 806.33 795.28 814.36 801.58 822.10 C 806.74 828.73 812.17 835.23 816.30 842.58 C 820.42 849.80 820.92 859.24 816.77 866.56 C 812.88 875.02 804.83 880.68 796.57 884.40 C 790.66 886.35 784.03 886.58 778.08 884.65 C 768.63 880.37 762.49 871.66 756.05 863.93 C 748.92 855.01 741.85 846.04 735.19 836.76 C 737.90 833.61 740.92 830.48 744.86 828.93 C 746.25 828.88 746.89 830.42 747.82 831.22 C 756.11 840.85 763.85 850.94 772.07 860.64 C 775.98 864.92 779.45 870.18 785.10 872.31 C 790.35 873.55 795.37 870.52 799.14 867.14 C 802.27 864.13 805.45 860.53 806.01 856.05 C 805.52 850.86 802.21 846.59 799.26 842.51 C 791.13 831.72 782.37 821.41 774.27 810.59 C 773.56 809.44 772.37 808.41 772.44 806.97 Z" />
<path fill="#1b5bad" opacity="1.00" d=" M 227.72 825.69 C 232.22 818.92 241.18 816.24 248.94 817.87 C 261.11 820.25 272.05 829.28 276.13 841.07 C 277.18 848.23 276.78 856.55 271.31 861.98 C 267.65 860.08 263.58 858.38 260.97 855.06 C 261.07 851.10 264.43 847.39 262.71 843.42 C 261.03 839.64 257.76 836.90 254.72 834.24 C 251.03 831.45 245.81 829.09 241.32 831.38 C 238.95 833.01 237.02 836.38 238.82 839.13 C 243.82 848.70 252.82 855.57 257.31 865.48 C 259.28 870.38 259.27 875.78 258.85 880.97 C 256.79 886.57 252.42 891.39 246.97 893.88 C 237.86 897.83 226.92 895.59 219.12 889.77 C 212.74 885.22 207.01 879.26 204.06 871.89 C 201.59 863.51 202.79 853.78 208.65 847.04 C 212.36 848.57 216.14 850.31 218.98 853.22 C 219.00 857.56 215.33 861.48 216.82 865.94 C 218.51 871.92 223.40 876.45 228.42 879.82 C 232.03 882.00 236.77 884.27 240.88 882.06 C 243.54 880.62 245.04 877.84 245.79 875.01 C 241.46 863.61 230.81 856.15 226.07 844.97 C 223.52 838.79 223.79 831.24 227.72 825.69 Z" />
<path fill="#1b5bad" opacity="1.00" d=" M 711.93 849.46 C 718.17 846.13 724.12 842.20 730.74 839.66 C 732.81 842.92 735.06 846.18 736.14 849.93 C 730.89 855.43 722.95 857.38 717.24 862.36 C 716.95 863.51 717.84 864.50 718.26 865.52 C 727.13 881.65 736.38 897.58 744.97 913.86 C 745.52 915.26 746.95 917.37 745.23 918.51 C 742.47 920.74 739.35 922.69 735.92 923.67 C 733.80 922.69 732.96 920.19 731.61 918.41 C 722.05 902.18 713.40 885.41 703.65 869.28 C 697.19 873.17 690.44 876.53 683.72 879.93 C 683.15 879.54 682.00 878.76 681.43 878.37 C 681.45 879.25 681.47 880.14 681.50 881.05 C 674.97 884.35 667.85 886.28 661.23 889.36 C 660.77 890.55 661.62 891.75 661.86 892.92 C 667.79 910.12 674.55 927.03 680.76 944.14 C 681.35 945.65 681.74 947.31 681.45 948.96 C 678.21 951.45 674.04 952.19 670.34 953.76 C 668.26 951.25 667.35 948.09 666.15 945.14 C 659.52 928.48 653.59 911.56 646.85 894.94 C 641.71 896.68 636.54 898.37 631.51 900.40 C 629.35 901.08 627.17 902.25 624.86 901.93 C 622.35 898.86 621.60 894.70 620.91 890.90 C 639.32 882.93 658.35 876.30 677.13 869.20 C 688.66 862.50 700.30 855.98 711.93 849.46 Z" />
<path fill="#1b5bad" opacity="1.00" d=" M 295.52 856.53 C 307.79 853.20 321.25 858.04 329.77 867.18 C 336.64 874.51 339.04 886.74 332.92 895.24 C 329.34 893.95 325.51 892.98 322.38 890.72 C 321.46 886.66 323.92 881.87 321.45 877.95 C 317.70 873.01 311.98 869.84 306.04 868.34 C 302.34 867.26 297.77 869.23 296.58 873.01 C 295.74 876.42 298.24 879.29 300.36 881.63 C 307.29 888.05 314.98 893.93 320.29 901.87 C 322.92 905.68 323.92 910.39 323.52 914.98 C 323.47 925.15 314.09 934.29 303.93 934.02 C 299.07 933.94 293.95 934.59 289.40 932.50 C 281.30 929.14 273.52 923.97 268.77 916.44 C 263.96 908.67 264.85 898.64 268.78 890.71 C 272.97 891.61 277.52 892.59 280.56 895.88 C 279.98 898.81 278.94 901.78 279.18 904.81 C 280.40 911.79 286.51 916.64 292.56 919.53 C 296.89 921.36 302.66 923.10 306.62 919.60 C 308.31 918.42 309.17 916.52 310.08 914.76 C 309.42 912.68 309.04 910.41 307.66 908.67 C 300.17 899.46 288.97 893.27 283.85 882.20 C 279.50 872.30 285.24 859.75 295.52 856.53 Z" />
<path fill="#1b5bad" opacity="1.00" d=" M 348.12 895.88 C 350.21 890.00 351.68 883.84 354.65 878.31 C 372.23 883.61 389.82 888.91 407.14 895.01 C 407.17 899.20 405.50 903.14 403.44 906.72 C 390.06 903.62 377.23 898.56 364.02 894.84 C 361.45 899.87 359.74 905.27 358.18 910.70 C 370.33 915.62 383.22 918.59 395.20 923.99 C 394.88 928.01 393.54 931.92 390.99 935.08 C 378.49 931.89 366.43 927.25 353.99 923.84 C 351.93 930.08 349.68 936.26 347.97 942.60 C 361.67 947.26 375.58 951.32 389.18 956.29 C 388.74 960.23 387.76 964.20 385.76 967.66 C 384.25 968.50 382.57 967.47 381.07 967.14 C 364.42 961.68 347.54 956.82 331.26 950.28 C 332.61 942.82 335.34 935.73 337.46 928.48 C 341.07 917.63 344.40 906.69 348.12 895.88 Z" />
<path fill="#1b5bad" opacity="1.00" d=" M 561.30 903.62 C 578.77 898.89 596.69 896.03 614.39 892.30 C 618.41 894.40 617.69 899.92 617.97 903.76 C 604.89 908.01 591.13 909.57 577.85 913.01 C 577.42 918.61 579.89 924.39 580.65 930.04 C 593.72 928.01 606.54 924.48 619.68 922.92 C 620.56 926.28 621.52 929.65 621.86 933.12 C 621.84 934.97 619.80 934.94 618.51 935.41 C 606.90 938.28 595.12 940.34 583.47 942.99 C 584.49 949.39 585.96 955.69 587.29 962.03 C 591.98 962.01 596.51 960.67 601.09 959.83 C 610.78 957.95 620.42 955.74 630.22 954.44 C 631.98 958.01 632.84 962.07 632.43 966.06 C 622.43 968.87 612.15 970.60 602.03 972.93 C 594.03 974.41 586.14 976.67 578.06 977.52 C 576.26 977.89 576.10 975.67 575.72 974.51 C 571.74 956.67 568.18 938.73 564.46 920.84 C 563.31 915.12 561.88 909.43 561.30 903.62 Z" />
<path fill="#1b5bad" opacity="1.00" d=" M 417.68 898.46 C 425.91 898.22 433.97 900.23 442.11 901.21 C 449.03 902.45 456.16 902.88 462.86 905.12 C 468.60 907.47 474.26 912.26 474.87 918.82 C 475.96 925.38 475.66 932.84 471.26 938.21 C 467.84 942.77 462.36 945.03 456.96 946.24 C 462.81 953.57 466.41 962.32 470.20 970.82 C 471.95 974.62 473.48 978.52 474.76 982.52 C 469.30 982.74 463.92 981.62 458.62 980.43 C 453.29 970.64 449.62 959.95 443.56 950.56 C 439.64 944.39 431.51 944.53 425.07 943.89 C 422.98 954.23 422.07 964.77 420.00 975.12 C 415.79 974.66 411.58 974.14 407.45 973.19 C 407.36 965.91 408.81 958.75 409.66 951.56 C 412.14 933.83 414.55 916.09 417.68 898.46 M 429.58 912.04 C 428.61 918.32 427.03 924.55 427.06 930.94 C 431.71 932.09 436.49 932.61 441.23 933.26 C 445.84 933.73 450.62 934.67 455.15 933.21 C 459.83 931.83 463.05 925.96 460.73 921.43 C 459.59 918.03 456.04 916.43 452.84 915.57 C 445.25 913.52 437.38 912.86 429.58 912.04 Z" />
<path fill="#1b5bad" opacity="1.00" d=" M 489.65 907.13 C 504.38 905.78 519.21 906.85 533.98 906.47 C 537.95 905.91 541.39 908.32 544.36 910.64 C 553.08 917.84 553.66 932.06 546.74 940.67 C 544.16 944.10 540.27 946.10 536.38 947.68 C 543.58 954.29 548.67 962.72 554.37 970.57 C 556.39 973.45 558.30 976.42 559.89 979.58 C 555.24 981.99 549.84 980.77 544.83 980.95 C 543.47 981.15 542.99 979.57 542.20 978.83 C 536.13 970.48 530.68 961.61 523.66 954.00 C 518.52 949.10 510.94 950.54 504.53 950.76 C 504.07 961.34 505.39 971.88 504.94 982.47 C 500.53 983.24 496.07 982.90 491.68 982.17 C 491.14 965.44 490.17 948.74 489.98 932.00 C 489.26 923.73 489.41 915.42 489.65 907.13 M 503.50 918.55 C 503.55 923.69 503.43 928.84 503.51 933.99 C 503.58 935.53 503.75 937.41 505.09 938.44 C 511.67 938.06 518.27 937.82 524.85 937.27 C 528.36 936.98 531.90 935.87 534.55 933.47 C 537.07 931.25 537.55 927.56 536.73 924.46 C 535.41 920.77 531.56 918.67 527.87 918.13 C 519.74 917.55 511.62 918.37 503.50 918.55 Z" />
</g>
<g id="#22436d95">
<path fill="#22436d" opacity="0.58" d=" M 389.98 160.00 C 463.27 160.06 536.55 159.87 609.83 160.09 C 610.14 190.48 610.06 220.90 609.87 251.29 C 609.42 248.89 609.02 246.48 609.01 244.03 C 609.14 216.34 609.02 188.65 609.08 160.96 C 536.05 160.91 463.03 160.95 390.00 160.93 L 389.98 160.00 Z" />
<path fill="#22436d" opacity="0.58" d=" M 389.00 195.96 L 389.98 196.02 C 389.86 248.35 389.98 300.68 389.91 353.00 C 389.78 354.78 389.45 356.55 389.13 358.32 C 388.83 304.20 389.09 250.08 389.00 195.96 Z" />
<path fill="#22436d" opacity="0.58" d=" M 488.10 331.56 C 497.99 327.44 509.76 329.89 518.15 336.26 C 524.44 341.16 530.91 345.96 536.34 351.83 C 530.35 351.65 524.32 350.56 519.00 347.72 C 508.62 342.49 498.01 337.64 488.10 331.56 M 489.58 331.19 C 492.60 334.56 497.09 335.83 500.95 337.94 C 508.83 341.70 516.46 346.02 524.50 349.44 C 526.14 349.72 527.79 349.97 529.43 350.33 C 531.11 350.86 532.87 350.98 534.64 351.06 C 530.14 346.63 525.09 342.83 520.27 338.77 C 516.35 335.41 511.79 332.68 506.80 331.30 C 504.01 330.87 501.14 331.18 498.39 330.49 C 495.47 330.97 492.52 331.10 489.58 331.19 Z" />
<path fill="#22436d" opacity="0.58" d=" M 550.92 341.10 C 563.26 341.80 574.03 351.80 577.20 363.52 C 578.74 369.56 580.47 375.62 580.72 381.89 C 569.61 369.21 561.24 354.41 550.92 341.10 M 552.84 341.86 C 561.69 354.58 570.07 367.69 579.79 379.76 C 579.38 376.99 578.89 374.24 578.34 371.50 C 577.31 366.88 576.48 362.12 574.15 357.94 C 570.63 350.70 563.93 345.36 556.49 342.57 C 555.27 342.32 554.05 342.08 552.84 341.86 Z" />
<path fill="#22436d" opacity="0.58" d=" M 405.16 376.57 C 411.64 374.56 417.95 371.70 424.78 371.12 C 422.65 374.45 420.38 377.73 417.51 380.47 C 410.75 387.45 403.28 394.26 394.14 397.90 C 391.88 397.48 392.59 394.51 392.54 392.89 C 393.65 385.92 397.96 378.53 405.16 376.57 M 416.56 373.66 C 411.36 375.35 405.90 376.56 401.10 379.24 C 396.51 382.80 394.00 388.50 392.90 394.08 C 392.55 395.79 393.80 396.90 395.38 397.13 C 405.99 390.43 416.46 382.59 423.28 371.88 C 421.02 372.39 418.78 373.00 416.56 373.66 Z" />
<path fill="#22436d" opacity="0.58" d=" M 492.31 376.32 C 493.25 375.92 494.19 375.53 495.14 375.14 C 497.39 375.82 498.27 377.77 498.69 379.93 C 498.31 381.27 497.95 382.62 497.60 383.98 C 499.01 383.99 500.42 384.01 501.84 384.03 C 500.82 381.92 500.72 379.54 501.07 377.26 C 502.01 376.38 503.14 375.74 504.23 375.04 C 505.18 375.42 506.14 375.78 507.11 376.15 C 508.09 378.30 508.14 380.66 508.15 382.99 C 506.96 383.46 505.77 383.91 504.58 384.36 C 511.20 386.93 513.87 394.83 512.87 401.42 C 512.34 402.77 512.06 404.21 511.81 405.65 C 510.19 409.35 507.25 412.24 503.63 414.01 C 499.03 414.02 494.14 414.70 490.09 412.00 C 486.73 406.81 484.55 400.56 486.59 394.42 C 486.72 393.90 486.99 392.86 487.12 392.34 C 488.62 389.06 491.19 386.52 494.30 384.73 C 490.38 383.66 490.49 379.16 492.31 376.32 M 492.58 376.57 C 492.58 378.64 491.64 381.05 493.18 382.81 C 494.47 383.48 495.87 383.70 497.37 383.48 C 497.37 381.21 497.37 378.95 497.35 376.69 C 495.75 376.64 494.17 376.60 492.58 376.57 M 502.49 376.45 C 501.36 378.80 501.38 381.28 502.43 383.67 C 503.47 383.61 505.57 383.50 506.61 383.44 C 506.67 381.16 506.71 378.88 506.75 376.61 C 505.68 376.57 503.55 376.49 502.49 376.45 M 496.16 384.24 C 496.68 384.81 496.68 384.81 496.16 384.24 M 491.14 387.88 C 487.49 390.86 487.16 395.78 486.50 400.08 C 487.34 403.70 487.74 407.70 490.36 410.57 C 493.07 414.06 498.05 413.83 501.98 413.26 C 507.14 412.64 511.14 407.98 511.64 402.93 C 511.93 399.63 511.97 396.27 511.40 393.00 C 510.29 389.57 507.84 385.81 503.94 385.38 C 499.61 385.05 494.55 384.66 491.14 387.88 Z" />
<path fill="#22436d" opacity="0.58" d=" M 496.07 405.13 C 494.27 400.01 494.31 392.60 500.16 390.19 C 504.16 393.14 503.72 398.45 503.31 402.85 C 503.03 404.72 501.64 406.16 500.64 407.69 C 498.94 407.31 496.56 407.21 496.07 405.13 M 498.30 391.96 C 495.20 395.07 495.78 399.50 496.12 403.48 C 496.44 404.12 497.09 405.38 497.41 406.02 C 498.73 405.95 500.05 405.89 501.38 405.83 C 501.86 404.68 502.36 403.54 502.88 402.41 C 502.96 400.13 502.97 397.85 502.89 395.58 C 502.35 394.47 501.84 393.35 501.35 392.24 C 500.32 392.14 499.31 392.04 498.30 391.96 Z" />
<path fill="#22436d" opacity="0.58" d=" M 336.95 396.00 C 349.96 396.00 362.97 396.00 375.99 396.00 C 380.32 396.02 384.69 395.73 389.00 396.44 C 383.05 397.32 377.02 396.85 371.03 396.93 C 359.71 396.97 348.38 396.87 337.05 396.98 L 336.95 396.00 Z" />
<path fill="#22436d" opacity="0.58" d=" M 610.14 396.04 C 640.08 395.94 670.03 396.03 699.98 396.00 C 713.53 396.13 727.09 395.73 740.63 396.20 L 739.43 396.90 C 696.36 396.93 653.29 396.98 610.23 396.87 L 610.14 396.04 Z" />
<path fill="#22436d" opacity="0.58" d=" M 153.00 397.00 L 153.93 397.00 C 153.92 456.66 153.94 516.31 153.92 575.97 C 153.71 589.20 154.34 602.47 153.64 615.68 L 153.40 616.90 C 152.78 612.96 153.02 608.97 153.00 605.01 C 153.00 535.67 153.00 466.34 153.00 397.00 Z" />
<path fill="#22436d" opacity="0.58" d=" M 607.29 401.62 C 616.07 399.05 626.54 404.80 629.12 413.65 C 631.16 420.00 633.34 426.34 634.83 432.86 C 628.60 429.92 623.74 424.88 619.10 419.91 C 614.37 414.39 609.92 408.46 607.29 401.62 M 607.94 402.00 C 613.94 413.55 622.28 424.33 633.42 431.31 C 633.07 429.71 632.73 428.12 632.35 426.53 C 631.66 424.21 630.99 421.89 630.31 419.58 C 629.98 418.57 629.64 417.56 629.31 416.56 C 628.04 412.37 626.37 407.96 622.45 405.57 C 618.47 402.01 612.99 401.71 607.94 402.00 Z" />
<path fill="#22436d" opacity="0.58" d=" M 588.55 412.03 C 591.76 413.57 594.38 416.08 596.38 419.00 L 595.85 418.57 C 593.33 416.48 590.87 414.33 588.55 412.03 Z" />
<path fill="#22436d" opacity="0.58" d=" M 355.87 428.02 C 361.83 426.58 367.83 425.11 373.94 424.53 C 368.80 429.34 362.87 433.17 357.23 437.35 C 355.51 438.61 353.70 439.79 351.68 440.52 C 357.95 435.46 365.01 431.45 370.87 425.89 C 361.30 427.33 350.85 428.66 343.47 435.56 C 338.19 439.70 335.04 445.88 333.70 452.36 C 339.88 448.90 345.36 444.38 351.40 440.71 C 346.43 445.72 339.83 448.82 334.44 453.41 C 333.91 453.46 332.83 453.56 332.30 453.62 C 333.65 448.93 335.14 444.15 338.06 440.17 C 342.60 434.47 348.69 429.77 355.87 428.02 Z" />
<path fill="#22436d" opacity="0.58" d=" M 654.65 435.92 C 661.57 441.37 664.96 450.35 665.13 458.97 C 664.03 468.45 661.03 477.60 658.25 486.69 C 657.94 486.54 657.33 486.23 657.03 486.07 C 655.25 480.79 653.73 475.31 654.22 469.68 C 655.08 474.96 655.97 480.26 657.50 485.40 C 660.27 478.38 662.08 471.01 663.65 463.64 C 665.49 454.06 661.96 443.96 655.14 437.12 C 654.71 443.51 655.60 449.99 654.30 456.31 C 653.72 449.51 654.55 442.72 654.65 435.92 Z" />
<path fill="#22436d" opacity="0.58" d=" M 338.94 472.52 C 340.37 471.30 341.95 470.29 343.50 469.25 C 343.45 473.74 342.68 478.23 341.14 482.45 C 336.22 494.22 329.47 505.12 324.39 516.80 C 323.88 516.83 322.86 516.90 322.35 516.93 C 321.69 511.64 320.65 506.30 321.32 500.96 C 321.99 498.89 323.11 497.00 324.03 495.04 C 323.19 499.00 321.35 502.85 321.75 506.98 C 321.86 509.94 322.60 512.83 323.38 515.68 C 327.81 509.63 331.15 502.85 334.46 496.13 C 338.50 488.49 342.38 480.24 342.12 471.39 C 335.44 478.71 328.62 486.17 324.03 495.04 C 324.78 491.57 327.17 488.87 329.00 485.95 C 329.19 483.58 331.47 482.50 333.00 481.06 C 333.40 477.23 338.83 476.59 338.94 472.52 Z" />
<path fill="#22436d" opacity="0.58" d=" M 385.95 489.89 C 387.79 489.20 389.71 488.83 391.69 488.85 C 392.38 489.66 393.09 490.47 393.80 491.28 C 394.08 492.35 394.37 493.42 394.66 494.50 C 394.79 496.04 395.42 497.31 396.55 498.30 C 396.21 498.52 395.53 498.95 395.19 499.17 L 394.86 498.99 C 394.25 495.99 393.51 493.02 392.68 490.08 C 390.65 490.12 388.62 490.17 386.59 490.22 C 385.67 493.22 384.78 496.23 383.86 499.23 C 383.75 495.97 384.82 492.88 385.95 489.89 Z" />
<path fill="#22436d" opacity="0.58" d=" M 399.02 488.91 C 401.70 488.94 404.38 488.96 407.06 489.17 C 407.15 494.80 405.00 500.11 403.71 505.52 C 403.35 506.84 403.02 508.18 402.70 509.52 C 401.88 512.20 401.09 514.90 400.30 517.59 C 397.63 517.95 394.94 518.05 392.25 518.06 C 392.01 517.43 391.53 516.18 391.29 515.56 C 390.95 514.18 390.62 512.80 390.26 511.44 C 390.12 510.67 389.85 509.14 389.71 508.37 C 387.63 511.24 387.87 515.06 385.92 518.04 C 383.72 517.70 380.43 519.02 379.01 516.90 C 380.95 517.55 383.04 517.80 385.07 517.38 C 387.55 513.92 387.73 509.45 389.40 505.62 C 390.70 509.40 391.63 513.30 392.54 517.19 C 394.94 517.12 397.34 517.08 399.74 517.03 C 402.17 507.94 405.15 498.95 406.53 489.61 C 403.83 489.66 401.14 489.92 398.48 490.43 C 397.59 494.59 398.36 499.07 396.29 502.94 C 396.02 501.90 395.75 500.85 395.47 499.83 C 397.54 499.93 396.81 497.37 396.99 496.09 C 396.67 493.49 397.92 491.16 399.02 488.91 Z" />
<path fill="#22436d" opacity="0.58" d=" M 598.19 489.28 C 604.79 488.94 611.64 488.28 618.11 490.01 C 621.96 490.78 624.17 494.88 624.17 498.57 C 623.00 500.41 621.77 502.23 620.13 503.70 C 621.98 506.42 623.46 509.35 624.67 512.42 C 625.13 513.51 625.61 514.60 626.12 515.68 C 625.72 516.61 625.70 518.39 624.18 518.02 C 621.25 518.15 618.33 517.96 615.42 517.82 C 613.97 514.52 612.57 511.19 610.91 507.99 C 610.18 508.00 608.71 508.01 607.98 508.01 C 607.59 511.34 608.00 514.67 608.12 518.00 C 604.96 517.98 601.81 518.07 598.66 518.12 C 597.18 515.80 598.37 512.79 597.59 510.23 C 595.78 503.26 598.33 496.29 598.19 489.28 M 598.22 490.26 C 598.49 498.58 598.03 506.92 598.32 515.25 C 598.54 515.63 598.99 516.40 599.21 516.79 C 601.74 518.33 604.82 516.89 607.59 517.02 C 607.25 513.53 607.24 510.03 607.80 506.57 C 608.98 506.83 610.55 506.50 611.36 507.65 C 613.39 510.47 614.40 513.86 615.79 517.03 C 618.83 517.33 621.89 517.57 624.97 517.57 C 624.64 512.70 622.33 508.29 619.62 504.34 C 619.63 504.02 619.63 503.38 619.63 503.06 C 621.61 501.86 623.00 499.92 622.86 497.53 C 623.55 494.28 620.63 491.88 617.98 490.71 C 611.51 489.11 604.79 490.43 598.22 490.26 Z" />
<path fill="#22436d" opacity="0.58" d=" M 666.01 510.81 C 668.73 506.11 670.64 500.83 674.36 496.77 C 676.90 505.59 676.48 515.62 671.30 523.43 C 666.21 531.03 660.05 537.83 654.20 544.83 C 653.31 541.75 654.24 538.61 654.89 535.59 C 657.09 526.73 661.92 518.88 666.01 510.81 M 659.71 524.64 C 657.06 530.16 654.88 536.12 654.95 542.33 C 659.26 538.12 662.80 533.22 666.64 528.59 C 670.07 524.42 672.93 519.72 674.45 514.51 C 675.53 509.21 675.41 503.54 673.75 498.37 C 668.57 506.84 664.17 515.77 659.71 524.64 Z" />
<path fill="#22436d" opacity="0.58" d=" M 338.92 526.96 C 343.03 533.02 344.02 540.80 342.94 547.92 C 341.57 544.76 342.11 541.28 341.93 537.95 C 341.88 534.67 340.52 531.61 339.41 528.59 C 336.88 535.40 335.31 542.52 333.60 549.57 C 331.37 559.37 335.33 569.54 341.85 576.85 C 341.92 573.79 341.86 570.72 342.40 567.70 L 342.66 566.50 C 342.90 570.39 342.98 574.31 342.46 578.20 C 333.83 570.54 330.50 557.99 333.32 546.92 C 335.09 540.24 336.82 533.55 338.92 526.96 Z" />
<path fill="#22436d" opacity="0.58" d=" M 626.20 586.57 C 638.65 577.04 651.94 568.65 664.49 559.25 C 664.05 568.13 658.45 576.15 651.35 581.18 C 643.30 586.65 633.30 587.56 624.00 589.45 C 624.68 588.46 625.28 587.37 626.20 586.57 M 625.64 588.09 C 627.28 587.98 628.96 587.84 630.54 587.30 C 633.87 586.83 637.19 586.21 640.47 585.43 C 647.73 583.45 654.38 579.01 658.78 572.88 C 661.37 569.43 662.55 565.21 663.88 561.17 C 650.81 569.65 637.98 578.57 625.64 588.09 Z" />
<path fill="#22436d" opacity="0.58" d=" M 362.35 581.08 C 369.05 583.69 373.39 589.70 378.46 594.49 C 383.10 599.89 387.64 605.68 390.08 612.44 C 384.61 613.30 378.49 612.60 374.27 608.72 C 371.07 606.26 368.72 602.82 367.65 598.93 C 365.80 593.00 363.95 587.08 362.35 581.08 M 363.93 582.55 C 364.65 586.22 365.59 589.84 366.69 593.42 C 368.03 601.15 372.83 608.81 380.49 611.48 C 383.43 612.16 386.46 612.11 389.47 611.93 C 385.62 604.66 380.97 597.71 374.97 592.03 C 371.47 588.68 368.33 584.79 363.93 582.55 Z" />
<path fill="#22436d" opacity="0.58" d=" M 499.73 607.41 C 500.98 608.14 501.94 609.38 501.93 610.91 C 501.42 611.08 500.40 611.41 499.89 611.58 L 499.64 610.78 C 499.66 609.65 499.68 608.52 499.73 607.41 Z" />
<path fill="#22436d" opacity="0.58" d=" M 397.02 611.60 C 398.47 616.60 398.20 621.89 398.38 627.05 C 398.30 628.69 398.76 630.99 396.74 631.72 L 396.75 630.60 C 397.12 624.27 396.93 617.93 397.02 611.60 Z" />
<path fill="#22436d" opacity="0.58" d=" M 599.25 617.67 C 600.84 617.01 602.61 615.44 604.34 616.63 C 605.77 625.16 600.72 634.45 592.42 637.23 C 585.97 639.44 579.46 641.50 572.80 643.00 C 574.17 639.94 576.01 637.02 578.79 635.04 C 577.07 637.45 575.37 639.87 573.73 642.34 C 580.44 640.20 587.33 638.55 593.87 635.88 C 600.83 632.56 604.43 624.73 603.76 617.23 C 602.42 616.88 601.13 617.31 600.01 618.01 C 592.27 622.46 585.57 628.44 579.18 634.61 C 579.86 633.30 580.72 632.10 581.81 631.10 C 587.04 625.94 592.81 621.24 599.25 617.67 Z" />
<path fill="#22436d" opacity="0.58" d=" M 416.31 631.95 C 422.55 638.33 427.17 646.04 432.44 653.20 C 436.87 659.84 441.82 666.12 445.92 672.98 C 439.88 672.07 433.45 669.73 429.57 664.78 C 433.98 668.42 439.14 671.05 444.74 672.26 C 435.86 659.33 427.13 646.26 417.41 633.94 C 418.26 640.47 419.65 646.95 421.73 653.20 C 423.08 657.67 426.37 661.12 429.34 664.58 C 426.05 663.12 424.38 659.65 422.53 656.77 C 418.81 649.02 417.57 640.37 416.31 631.95 Z" />
<path fill="#22436d" opacity="0.58" d=" M 461.73 662.37 C 471.52 661.94 480.23 667.04 488.69 671.26 C 495.37 675.07 502.70 677.72 508.95 682.26 C 503.92 684.55 498.24 683.91 492.88 683.62 C 484.33 682.77 477.88 676.62 471.48 671.53 C 468.15 668.56 464.23 666.13 461.73 662.37 M 462.71 662.99 C 467.97 667.85 473.62 672.29 479.26 676.70 C 482.57 679.31 486.25 681.60 490.45 682.43 C 494.90 683.43 499.51 682.90 504.05 682.97 C 505.31 683.11 506.35 682.37 507.34 681.69 C 500.67 677.94 493.58 674.99 487.01 671.06 C 483.03 668.78 478.66 667.31 474.56 665.29 C 474.04 665.15 473.01 664.87 472.49 664.73 C 471.17 664.36 469.85 663.99 468.56 663.57 C 466.64 663.08 464.67 662.97 462.71 662.99 Z" />
<path fill="#22436d" opacity="0.58" d=" M 527.72 663.01 C 540.81 661.69 554.00 662.49 567.12 662.75 C 567.99 662.78 569.04 662.75 569.62 663.56 C 563.70 669.50 555.49 673.50 547.00 673.36 C 541.11 673.39 535.46 671.51 529.86 669.94 C 526.25 668.79 522.52 668.01 519.04 666.49 C 521.24 664.14 524.74 663.73 527.72 663.01 M 524.46 664.56 C 523.22 664.88 522.06 665.38 521.00 666.07 C 524.95 668.08 529.33 668.99 533.54 670.31 C 534.84 670.68 536.15 671.03 537.47 671.41 C 541.89 672.58 546.50 671.77 551.01 672.00 C 557.71 672.37 563.00 667.67 568.24 664.22 C 559.05 661.89 549.42 662.87 540.03 662.59 C 534.75 662.35 529.64 663.81 524.46 664.56 Z" />
<path fill="#22436d" opacity="0.58" d=" M 389.18 678.67 C 390.51 684.70 389.82 690.89 389.91 697.01 C 390.01 747.00 389.85 796.99 389.99 846.98 L 389.00 847.05 C 389.00 793.02 389.00 738.98 389.00 684.95 C 389.02 682.85 389.12 680.76 389.18 678.67 Z" />
<path fill="#22436d" opacity="0.58" d=" M 609.07 780.96 C 609.22 774.86 608.47 768.68 609.87 762.68 C 610.17 792.79 609.92 822.90 610.00 853.00 L 609.05 853.00 C 609.06 828.99 609.09 804.97 609.07 780.96 Z" />
<path fill="#22436d" opacity="0.58" d=" M 423.34 853.19 C 446.03 852.94 468.72 853.10 491.42 853.12 L 492.62 853.79 C 476.42 854.29 460.19 853.86 443.98 854.00 C 436.68 853.85 429.36 854.33 422.07 853.72 L 423.34 853.19 Z" />
</g>
<g id="#e91138ff">
<path fill="#e91138" opacity="1.00" d=" M 486.97 328.56 C 492.45 326.80 498.32 326.40 504.03 327.10 C 507.44 327.52 510.67 328.88 514.09 329.34 C 520.09 329.98 526.20 329.43 532.17 330.48 C 536.74 331.49 540.81 333.93 544.87 336.18 C 547.94 338.08 551.69 337.60 555.09 338.37 C 562.31 339.88 568.29 344.58 573.39 349.69 C 577.02 353.38 582.37 354.42 586.30 357.70 C 590.02 360.69 593.20 364.43 595.24 368.76 C 596.42 371.22 597.31 373.85 598.99 376.04 C 601.31 379.07 604.25 381.72 605.79 385.29 C 607.60 389.28 607.52 393.75 607.81 398.03 C 612.45 398.43 617.34 398.28 621.62 400.36 C 626.20 402.50 628.93 407.36 633.85 408.92 C 642.26 412.22 648.98 419.14 652.43 427.44 C 653.55 430.74 656.52 432.75 658.80 435.19 C 662.47 439.09 665.19 443.90 666.64 449.06 C 667.93 453.56 667.90 458.50 670.52 462.55 C 674.92 469.87 677.27 478.59 675.84 487.12 C 674.92 491.99 677.93 496.34 678.40 501.08 C 678.78 507.07 679.11 513.30 676.92 519.02 C 674.53 525.80 676.66 533.09 675.07 540.00 C 673.84 547.06 668.48 552.62 667.75 559.84 C 666.72 568.13 662.44 575.72 656.40 581.39 C 651.87 585.26 650.65 591.45 646.92 595.93 C 643.16 600.48 637.83 603.39 632.39 605.47 C 629.18 606.65 627.33 609.74 624.58 611.61 C 619.70 614.90 613.72 616.35 607.86 616.21 C 607.55 621.41 607.02 626.81 604.28 631.38 C 602.33 635.26 597.89 637.39 596.72 641.73 C 594.84 647.52 590.87 652.41 586.09 656.09 C 581.75 659.59 575.88 660.80 572.22 665.21 C 566.46 671.56 558.32 675.42 549.83 676.31 C 544.27 676.85 540.28 681.37 534.93 682.62 C 528.49 684.92 521.64 684.45 514.95 684.15 C 509.04 685.43 503.20 687.45 497.05 687.12 C 490.44 687.56 484.61 683.27 477.99 684.01 C 470.02 684.57 461.68 683.42 454.81 679.10 C 451.89 677.07 448.40 676.24 444.92 675.80 C 437.50 674.70 430.34 671.26 425.24 665.70 C 423.16 663.38 420.86 661.18 417.88 660.10 C 409.96 656.96 403.71 650.29 400.77 642.34 C 398.86 636.68 393.08 633.54 391.14 627.90 C 389.49 624.30 389.58 620.28 389.68 616.42 C 384.43 616.14 379.01 615.37 374.40 612.67 C 370.56 610.56 368.20 606.35 363.85 605.07 C 355.92 602.12 349.18 596.15 345.74 588.37 C 344.64 585.61 343.09 583.04 340.85 581.06 C 335.49 575.95 331.17 569.40 329.97 561.99 C 329.37 558.78 329.36 555.29 327.47 552.49 C 324.96 548.37 322.81 543.96 321.75 539.23 C 320.71 533.86 321.13 528.36 320.97 522.94 C 320.87 519.15 319.35 515.62 318.83 511.90 C 317.97 505.87 318.55 499.61 320.75 493.91 C 322.88 489.10 320.15 483.91 321.25 478.92 C 321.80 471.60 325.45 465.17 328.66 458.77 C 329.79 451.95 331.07 444.92 335.16 439.15 C 337.86 434.30 343.32 431.59 345.38 426.34 C 348.52 418.43 355.20 412.03 363.18 409.10 C 366.56 408.19 368.95 405.63 371.40 403.31 C 376.24 398.78 383.06 397.83 389.42 397.69 C 389.47 393.48 389.86 389.21 391.53 385.30 C 393.43 380.04 398.73 376.99 400.67 371.73 C 403.84 363.87 409.81 357.07 417.72 353.78 C 422.19 352.27 425.04 348.37 428.50 345.42 C 433.86 340.61 441.03 338.23 448.12 337.62 C 451.17 337.53 453.49 335.36 455.99 333.91 C 461.36 330.62 467.78 329.53 474.00 329.47 C 478.32 329.36 482.77 329.93 486.97 328.56 M 488.10 331.56 C 498.01 337.64 508.62 342.49 519.00 347.72 C 524.32 350.56 530.35 351.65 536.34 351.83 C 530.91 345.96 524.44 341.16 518.15 336.26 C 509.76 329.89 497.99 327.44 488.10 331.56 M 426.87 351.12 C 430.84 351.45 434.84 351.69 438.83 351.35 C 444.09 351.84 449.38 351.43 454.66 351.49 C 458.33 352.77 462.28 352.09 466.04 351.64 C 470.34 350.93 474.73 349.92 478.43 347.51 C 471.48 344.77 464.21 343.00 456.98 341.21 C 446.11 338.46 434.19 342.82 426.87 351.12 M 550.92 341.10 C 561.24 354.41 569.61 369.21 580.72 381.89 C 580.47 375.62 578.74 369.56 577.20 363.52 C 574.03 351.80 563.26 341.80 550.92 341.10 M 475.58 352.33 C 469.93 354.34 463.89 354.35 458.00 354.95 C 455.36 355.06 453.44 357.03 451.46 358.50 C 446.07 362.85 439.57 365.49 433.10 367.77 C 429.51 368.65 428.01 372.36 425.90 374.98 C 422.00 380.91 416.62 385.62 412.23 391.12 C 411.94 395.83 411.98 400.57 411.13 405.24 C 414.56 403.49 417.34 400.81 420.41 398.54 C 421.57 397.56 423.24 397.65 424.48 398.44 C 431.35 402.91 435.80 410.30 442.58 414.82 C 442.69 414.92 442.91 415.12 443.02 415.22 C 446.83 420.91 452.48 425.10 456.84 430.39 C 451.96 434.44 446.57 437.84 441.48 441.63 C 430.45 431.48 420.21 420.50 409.29 410.23 C 406.89 412.56 404.61 414.99 402.40 417.49 C 412.27 428.47 423.26 438.39 433.13 449.37 C 430.06 454.56 426.25 459.26 422.70 464.12 C 418.23 461.08 414.59 457.06 410.73 453.33 C 403.37 446.06 396.03 438.76 389.10 431.09 C 391.36 426.91 394.93 423.62 397.03 419.36 C 392.61 419.98 388.24 420.89 383.93 421.99 C 380.05 422.86 377.38 426.00 374.39 428.35 C 370.37 431.75 365.98 434.68 361.96 438.09 C 358.95 440.49 358.57 444.57 357.05 447.89 C 354.70 454.05 350.49 459.20 346.83 464.59 C 345.84 469.68 346.33 475.00 344.96 480.05 C 344.15 484.18 341.98 487.86 340.98 491.92 C 340.83 496.32 342.14 500.64 342.02 505.05 C 342.31 510.42 341.07 515.69 340.83 521.03 C 341.51 524.44 343.44 527.44 344.29 530.81 C 346.18 536.85 345.95 543.24 346.76 549.45 C 348.17 551.88 350.20 553.89 351.75 556.24 C 355.34 561.33 357.67 567.15 359.57 573.05 C 359.98 575.15 361.91 576.23 363.51 577.37 C 370.31 581.86 376.37 587.34 382.23 592.96 C 386.47 593.44 390.74 593.61 395.00 593.48 C 393.23 590.19 391.07 587.14 389.09 583.98 C 399.56 572.49 410.46 561.35 422.07 551.01 C 425.45 556.14 428.95 561.19 432.50 566.21 C 424.38 575.18 415.60 583.52 407.24 592.26 C 406.41 593.19 405.69 594.21 405.02 595.26 C 404.64 595.62 403.88 596.32 403.50 596.67 L 402.90 596.12 C 404.90 599.37 407.71 602.01 410.18 604.91 C 417.65 597.49 425.01 589.97 432.55 582.62 C 435.31 580.05 437.86 577.15 441.11 575.17 C 446.34 577.68 450.82 581.83 455.68 585.08 C 452.78 589.62 448.64 593.13 444.92 596.96 C 437.67 604.04 430.76 611.50 423.09 618.13 C 419.21 615.63 415.59 612.76 411.59 610.46 C 412.34 615.23 413.12 620.03 414.44 624.69 C 416.78 628.21 420.20 630.91 422.73 634.33 C 425.88 637.84 427.95 642.33 431.66 645.31 C 436.47 647.52 441.64 648.96 446.16 651.82 C 449.76 653.60 452.55 656.63 456.01 658.58 C 461.68 659.32 467.51 659.17 473.03 660.87 C 476.84 661.75 480.20 663.83 483.90 664.99 C 490.87 664.12 497.90 662.67 504.95 663.82 C 508.28 664.07 511.84 665.80 515.05 664.12 C 522.24 660.81 530.11 658.99 538.03 658.92 C 542.38 659.27 545.10 655.40 548.48 653.39 C 554.07 649.38 560.73 647.49 567.04 645.03 C 569.81 641.74 571.79 637.85 574.60 634.57 C 577.50 630.57 581.31 627.35 584.43 623.55 C 585.30 619.84 585.02 615.96 585.11 612.18 C 582.01 613.97 579.32 616.48 576.01 617.88 C 570.98 614.00 566.78 609.18 562.16 604.85 C 555.77 598.34 549.15 592.02 543.20 585.10 C 548.24 581.71 553.19 578.18 558.07 574.55 C 567.03 582.32 575.12 591.00 583.65 599.22 C 585.07 600.49 586.33 602.06 588.10 602.89 C 590.75 601.68 592.57 599.10 594.34 596.87 C 595.35 595.82 593.61 594.76 593.10 593.95 C 584.12 584.71 574.80 575.79 566.21 566.19 C 570.03 561.22 573.51 556.01 577.19 550.94 C 584.30 557.14 590.83 563.96 597.49 570.65 C 598.38 571.57 599.47 572.24 600.62 572.85 C 600.71 572.94 600.91 573.11 601.01 573.19 C 603.38 577.37 607.36 580.27 610.29 584.02 C 608.23 587.07 605.97 589.99 604.21 593.23 C 609.29 592.88 614.92 592.46 618.89 588.86 C 623.22 585.16 627.56 581.46 632.20 578.15 C 634.42 576.38 637.24 574.82 638.04 571.88 C 640.16 565.29 643.13 558.92 647.48 553.50 C 648.65 551.81 650.49 550.28 650.43 548.05 C 650.84 541.54 651.53 534.95 653.73 528.77 C 654.68 525.61 657.18 522.67 656.35 519.21 C 654.94 511.17 654.98 502.87 656.32 494.83 C 656.93 492.42 655.64 490.19 654.80 488.04 C 652.11 481.67 651.05 474.75 650.79 467.88 C 650.99 463.95 647.80 461.21 645.89 458.13 C 641.53 452.19 639.03 445.21 636.69 438.30 C 630.89 434.54 625.22 430.51 620.24 425.70 C 618.35 424.00 616.72 421.97 614.54 420.64 C 610.64 420.30 606.72 420.50 602.81 420.33 C 604.90 424.08 607.99 427.17 609.96 430.99 C 609.46 432.59 607.97 433.64 606.92 434.89 C 597.01 444.90 587.19 455.02 576.84 464.59 C 569.95 457.54 566.48 447.75 558.54 441.67 C 552.68 438.98 547.70 434.66 542.38 431.05 C 546.40 425.58 551.49 421.06 556.14 416.16 C 562.66 409.62 569.20 403.09 576.02 396.85 C 579.03 398.95 581.93 401.21 585.15 403.00 C 584.94 397.10 584.43 390.37 580.05 385.93 C 576.49 382.14 573.17 378.13 570.24 373.84 C 568.43 371.39 566.75 368.41 563.60 367.54 C 555.56 364.99 548.18 360.73 541.61 355.48 C 536.27 354.01 530.45 354.84 525.08 353.18 C 520.52 352.47 516.60 349.32 512.01 349.05 C 503.89 350.52 495.57 350.65 487.42 349.39 C 483.18 348.45 479.48 351.20 475.58 352.33 M 405.16 376.57 C 397.96 378.53 393.65 385.92 392.54 392.89 C 392.59 394.51 391.88 397.48 394.14 397.90 C 403.28 394.26 410.75 387.45 417.51 380.47 C 420.38 377.73 422.65 374.45 424.78 371.12 C 417.95 371.70 411.64 374.56 405.16 376.57 M 599.37 381.49 C 599.21 388.34 599.03 395.20 599.54 402.04 C 603.87 401.07 605.13 395.79 604.54 391.94 C 603.88 388.10 602.39 384.11 599.37 381.49 M 372.69 406.50 C 379.52 406.70 386.42 406.80 393.22 406.09 C 393.41 405.82 393.80 405.28 393.99 405.01 C 388.85 397.73 377.85 400.88 372.69 406.50 M 607.29 401.62 C 609.92 408.46 614.37 414.39 619.10 419.91 C 623.74 424.88 628.60 429.92 634.83 432.86 C 633.34 426.34 631.16 420.00 629.12 413.65 C 626.54 404.80 616.07 399.05 607.29 401.62 M 588.33 411.81 C 578.67 421.87 568.64 431.55 558.88 441.50 C 561.16 443.63 563.37 445.83 565.50 448.12 C 568.23 445.30 571.05 442.56 574.10 440.08 C 581.47 433.03 588.45 425.58 595.85 418.57 L 596.38 419.00 C 594.38 416.08 591.76 413.57 588.55 412.03 L 588.33 411.81 M 355.87 428.02 C 348.69 429.77 342.60 434.47 338.06 440.17 C 335.14 444.15 333.65 448.93 332.30 453.62 C 332.83 453.56 333.91 453.46 334.44 453.41 C 339.83 448.82 346.43 445.72 351.40 440.71 L 351.68 440.52 C 353.70 439.79 355.51 438.61 357.23 437.35 C 362.87 433.17 368.80 429.34 373.94 424.53 C 367.83 425.11 361.83 426.58 355.87 428.02 M 654.65 435.92 C 654.55 442.72 653.72 449.51 654.30 456.31 C 653.76 460.73 653.83 465.24 654.22 469.68 C 653.73 475.31 655.25 480.79 657.03 486.07 C 657.33 486.23 657.94 486.54 658.25 486.69 C 661.03 477.60 664.03 468.45 665.13 458.97 C 664.96 450.35 661.57 441.37 654.65 435.92 M 338.94 472.52 C 338.83 476.59 333.40 477.23 333.00 481.06 C 331.47 482.50 329.19 483.58 329.00 485.95 C 327.17 488.87 324.78 491.57 324.03 495.04 C 323.11 497.00 321.99 498.89 321.32 500.96 C 320.65 506.30 321.69 511.64 322.35 516.93 C 322.86 516.90 323.88 516.83 324.39 516.80 C 329.47 505.12 336.22 494.22 341.14 482.45 C 342.68 478.23 343.45 473.74 343.50 469.25 C 341.95 470.29 340.37 471.30 338.94 472.52 M 666.01 510.81 C 661.92 518.88 657.09 526.73 654.89 535.59 C 654.24 538.61 653.31 541.75 654.20 544.83 C 660.05 537.83 666.21 531.03 671.30 523.43 C 676.48 515.62 676.90 505.59 674.36 496.77 C 670.64 500.83 668.73 506.11 666.01 510.81 M 338.92 526.96 C 336.82 533.55 335.09 540.24 333.32 546.92 C 330.50 557.99 333.83 570.54 342.46 578.20 C 342.98 574.31 342.90 570.39 342.66 566.50 C 343.53 560.36 342.95 554.10 342.94 547.92 C 344.02 540.80 343.03 533.02 338.92 526.96 M 626.20 586.57 C 625.28 587.37 624.68 588.46 624.00 589.45 C 633.30 587.56 643.30 586.65 651.35 581.18 C 658.45 576.15 664.05 568.13 664.49 559.25 C 651.94 568.65 638.65 577.04 626.20 586.57 M 362.35 581.08 C 363.95 587.08 365.80 593.00 367.65 598.93 C 368.72 602.82 371.07 606.26 374.27 608.72 C 378.49 612.60 384.61 613.30 390.08 612.44 C 387.64 605.68 383.10 599.89 378.46 594.49 C 373.39 589.70 369.05 583.69 362.35 581.08 M 601.99 607.88 C 603.59 609.55 605.02 611.71 607.34 612.44 C 613.27 613.42 620.28 612.44 624.32 607.54 C 616.88 607.25 609.37 606.75 601.99 607.88 M 393.71 616.13 C 393.10 621.11 393.33 626.60 396.75 630.60 L 396.74 631.72 C 398.76 630.99 398.30 628.69 398.38 627.05 C 398.20 621.89 398.47 616.60 397.02 611.60 C 395.85 613.02 394.08 614.18 393.71 616.13 M 599.25 617.67 C 592.81 621.24 587.04 625.94 581.81 631.10 C 580.72 632.10 579.86 633.30 579.18 634.61 C 579.08 634.72 578.89 634.94 578.79 635.04 C 576.01 637.02 574.17 639.94 572.80 643.00 C 579.46 641.50 585.97 639.44 592.42 637.23 C 600.72 634.45 605.77 625.16 604.34 616.63 C 602.61 615.44 600.84 617.01 599.25 617.67 M 416.31 631.95 C 417.57 640.37 418.81 649.02 422.53 656.77 C 424.38 659.65 426.05 663.12 429.34 664.58 L 429.57 664.78 C 433.45 669.73 439.88 672.07 445.92 672.98 C 441.82 666.12 436.87 659.84 432.44 653.20 C 427.17 646.04 422.55 638.33 416.31 631.95 M 461.73 662.37 C 464.23 666.13 468.15 668.56 471.48 671.53 C 477.88 676.62 484.33 682.77 492.88 683.62 C 498.24 683.91 503.92 684.55 508.95 682.26 C 502.70 677.72 495.37 675.07 488.69 671.26 C 480.23 667.04 471.52 661.94 461.73 662.37 M 527.72 663.01 C 524.74 663.73 521.24 664.14 519.04 666.49 C 522.52 668.01 526.25 668.79 529.86 669.94 C 535.46 671.51 541.11 673.39 547.00 673.36 C 555.49 673.50 563.70 669.50 569.62 663.56 C 569.04 662.75 567.99 662.78 567.12 662.75 C 554.00 662.49 540.81 661.69 527.72 663.01 Z" />
<path fill="#e91138" opacity="1.00" d=" M 492.58 376.57 C 494.17 376.60 495.75 376.64 497.35 376.69 C 497.37 378.95 497.37 381.21 497.37 383.48 C 495.87 383.70 494.47 383.48 493.18 382.81 C 491.64 381.05 492.58 378.64 492.58 376.57 Z" />
<path fill="#e91138" opacity="1.00" d=" M 502.49 376.45 C 503.55 376.49 505.68 376.57 506.75 376.61 C 506.71 378.88 506.67 381.16 506.61 383.44 C 505.57 383.50 503.47 383.61 502.43 383.67 C 501.38 381.28 501.36 378.80 502.49 376.45 Z" />
<path fill="#e91138" opacity="1.00" d=" M 491.14 387.88 C 494.55 384.66 499.61 385.05 503.94 385.38 C 507.84 385.81 510.29 389.57 511.40 393.00 C 511.97 396.27 511.93 399.63 511.64 402.93 C 511.14 407.98 507.14 412.64 501.98 413.26 C 498.05 413.83 493.07 414.06 490.36 410.57 C 487.74 407.70 487.34 403.70 486.50 400.08 C 487.16 395.78 487.49 390.86 491.14 387.88 M 496.07 405.13 C 496.56 407.21 498.94 407.31 500.64 407.69 C 501.64 406.16 503.03 404.72 503.31 402.85 C 503.72 398.45 504.16 393.14 500.16 390.19 C 494.31 392.60 494.27 400.01 496.07 405.13 Z" />
<path fill="#e91138" opacity="1.00" d=" M 398.48 490.43 C 401.14 489.92 403.83 489.66 406.53 489.61 C 405.15 498.95 402.17 507.94 399.74 517.03 C 397.34 517.08 394.94 517.12 392.54 517.19 C 391.63 513.30 390.70 509.40 389.40 505.62 C 387.73 509.45 387.55 513.92 385.07 517.38 C 383.04 517.80 380.95 517.55 379.01 516.90 L 378.66 516.05 C 376.64 507.47 373.63 499.13 372.13 490.43 C 374.90 490.33 377.69 490.28 380.47 490.25 C 381.15 494.35 381.83 498.47 383.00 502.48 C 383.15 501.91 383.44 500.77 383.58 500.20 L 383.86 499.23 C 384.78 496.23 385.67 493.22 386.59 490.22 C 388.62 490.17 390.65 490.12 392.68 490.08 C 393.51 493.02 394.25 495.99 394.86 498.99 L 395.19 499.17 L 395.47 499.83 C 395.75 500.85 396.02 501.90 396.29 502.94 C 398.36 499.07 397.59 494.59 398.48 490.43 Z" />
<path fill="#e91138" opacity="1.00" d=" M 598.22 490.26 C 604.79 490.43 611.51 489.11 617.98 490.71 C 620.63 491.88 623.55 494.28 622.86 497.53 C 623.00 499.92 621.61 501.86 619.63 503.06 C 619.63 503.38 619.63 504.02 619.62 504.34 C 622.33 508.29 624.64 512.70 624.97 517.57 C 621.89 517.57 618.83 517.33 615.79 517.03 C 614.40 513.86 613.39 510.47 611.36 507.65 C 610.55 506.50 608.98 506.83 607.80 506.57 C 607.24 510.03 607.25 513.53 607.59 517.02 C 604.82 516.89 601.74 518.33 599.21 516.79 C 598.99 516.40 598.54 515.63 598.32 515.25 C 598.03 506.92 598.49 498.58 598.22 490.26 M 607.09 500.86 C 609.14 500.73 611.24 500.78 613.23 500.17 C 613.93 499.12 613.87 497.76 613.50 496.61 C 612.28 496.33 611.05 496.11 609.83 495.94 L 608.56 495.34 C 607.28 496.91 607.28 498.94 607.09 500.86 Z" />
<path fill="#e91138" opacity="1.00" d=" M 494.54 615.33 C 496.03 610.70 497.36 606.01 499.45 601.60 C 499.58 603.53 499.68 605.46 499.73 607.41 C 499.68 608.52 499.66 609.65 499.64 610.78 C 499.55 613.08 499.48 615.42 498.80 617.65 C 497.04 618.37 495.91 616.04 494.54 615.33 Z" />
<path fill="#e91138" opacity="1.00" d=" M 501.49 619.64 C 502.49 618.14 503.50 616.67 504.52 615.21 C 509.28 616.76 514.02 618.35 518.83 619.76 L 518.26 621.09 C 512.74 619.91 507.06 620.39 501.49 619.64 Z" />
<path fill="#e91138" opacity="1.00" d=" M 480.99 619.86 C 486.31 620.23 491.63 620.57 496.95 620.85 C 495.99 622.35 495.67 625.73 493.09 624.68 C 488.94 623.48 484.43 622.64 480.99 619.86 Z" />
<path fill="#e91138" opacity="1.00" d=" M 500.51 622.62 C 501.79 623.34 503.05 624.10 504.29 624.91 C 503.50 628.61 502.87 632.74 500.18 635.60 C 499.49 631.29 499.53 626.88 500.51 622.62 Z" />
</g>
</svg>
