<?xml version="1.0" encoding="UTF-8" ?>
<!DOCTYPE svg PUBLIC "-//W3C//DTD SVG 1.1//EN" "http://www.w3.org/Graphics/SVG/1.1/DTD/svg11.dtd">
<svg width="693pt" height="693pt" viewBox="0 0 693 693" version="1.1" xmlns="http://www.w3.org/2000/svg">
<g id="#97b6e7f9">
<path fill="#97b6e7" opacity="0.98" d=" M 236.45 0.00 L 456.00 0.00 C 456.00 26.35 456.00 52.70 456.00 79.04 C 456.01 82.51 455.90 85.99 456.23 89.46 C 456.58 138.30 456.18 187.15 456.53 236.00 C 486.02 236.00 515.51 236.00 544.99 236.00 C 560.68 236.20 576.39 235.52 592.05 236.48 C 625.70 236.44 659.35 236.46 693.00 236.42 L 693.00 456.00 C 679.69 456.23 666.34 455.45 653.06 456.58 C 595.04 456.60 537.02 456.54 479.00 456.53 C 471.50 456.32 464.06 457.37 456.56 457.00 C 456.54 499.67 456.59 542.34 456.60 585.00 C 456.54 592.01 456.88 599.04 456.06 606.02 C 455.92 634.68 456.04 663.34 456.00 692.00 L 454.81 691.95 C 455.22 619.98 454.77 547.99 454.97 476.01 C 455.00 470.35 455.43 464.63 454.32 459.04 C 454.29 457.92 454.28 456.81 454.27 455.70 C 456.99 455.54 459.71 455.33 462.44 455.13 C 478.28 455.87 494.15 455.26 510.01 455.36 C 570.48 455.30 630.94 455.32 691.41 455.25 C 691.53 382.69 691.40 310.14 691.47 237.58 C 612.47 237.28 533.46 237.54 454.46 237.36 C 455.66 226.61 455.08 215.80 455.17 205.02 C 455.08 137.02 454.92 69.03 454.96 1.03 C 382.36 1.06 309.75 1.02 237.15 1.05 C 237.19 76.41 237.02 151.77 237.10 227.13 C 236.62 230.54 236.25 233.97 235.67 237.37 C 217.80 237.09 199.92 237.01 182.04 237.44 C 121.73 237.35 61.42 237.57 1.11 237.41 C 0.89 310.03 1.07 382.64 1.02 455.26 C 66.67 455.34 132.32 455.25 197.97 455.42 C 207.62 455.12 217.35 456.16 226.94 454.84 C 229.99 455.30 233.07 455.56 236.14 455.85 C 236.22 459.45 236.50 463.04 237.11 466.59 C 237.02 521.71 237.15 576.83 237.10 631.95 C 237.20 651.94 236.88 671.95 237.33 691.94 L 238.00 693.00 L 236.75 693.00 C 236.29 688.35 235.82 683.69 235.98 679.02 C 236.02 629.33 235.99 579.65 236.00 529.97 C 235.98 526.03 236.13 522.09 235.66 518.17 C 235.71 497.93 235.44 477.68 235.77 457.43 L 235.29 456.96 L 234.30 456.81 C 228.58 455.99 222.80 456.51 217.05 456.42 C 173.88 456.27 130.71 456.50 87.55 456.25 C 58.38 455.67 29.18 456.16 0.00 456.00 L 0.00 236.43 C 59.00 236.46 118.00 236.43 177.00 236.48 C 196.45 235.50 215.95 236.22 235.42 236.00 C 235.63 221.33 234.85 206.63 236.00 192.00 C 235.99 141.00 236.02 90.00 235.98 39.00 C 236.94 26.03 236.27 13.00 236.45 0.00 Z" />
<path fill="#97b6e7" opacity="0.98" d=" M 335.20 170.53 C 343.62 167.56 353.37 168.57 361.00 173.23 C 367.93 177.47 374.09 182.82 380.17 188.17 C 381.36 189.18 382.29 190.44 383.12 191.76 C 381.37 191.54 379.37 191.79 377.92 190.57 C 379.40 190.63 380.87 190.72 382.35 190.84 C 375.36 185.45 369.02 179.20 361.73 174.23 C 356.74 170.85 350.68 169.92 344.79 169.78 C 341.63 169.99 338.45 170.16 335.38 171.01 C 344.20 176.84 354.21 180.62 363.48 185.70 C 367.87 188.31 372.80 189.64 377.78 190.56 C 373.44 191.29 369.34 189.06 365.44 187.45 C 355.22 182.58 345.06 177.50 335.34 171.69 C 335.30 171.40 335.24 170.82 335.20 170.53 Z" />
<path fill="#97b6e7" opacity="0.98" d=" M 273.40 190.68 C 279.46 182.85 289.89 179.59 299.47 179.34 C 307.89 182.34 317.16 183.06 325.13 187.34 C 315.95 191.99 305.27 192.51 295.25 191.06 C 304.78 190.90 314.92 191.64 323.66 187.10 C 315.53 184.38 307.23 182.12 298.88 180.19 C 289.80 180.16 280.84 183.96 274.23 190.14 C 277.99 190.56 281.80 190.28 285.54 190.87 C 281.51 191.52 277.43 190.96 273.40 190.68 Z" />
<path fill="#97b6e7" opacity="0.98" d=" M 397.14 180.36 C 410.17 181.01 421.71 191.88 424.35 204.50 C 425.57 209.80 427.13 215.09 427.47 220.54 C 426.02 221.88 425.25 219.38 424.30 218.61 C 414.88 206.12 406.24 193.08 397.14 180.36 M 398.45 180.82 C 406.90 192.68 415.03 204.76 423.57 216.56 C 424.42 217.63 425.40 218.59 426.51 219.43 C 426.09 215.74 425.35 212.10 424.59 208.48 C 423.69 204.90 422.95 201.22 421.19 197.93 C 416.93 189.03 408.21 182.39 398.45 180.82 Z" />
<path fill="#97b6e7" opacity="0.98" d=" M 251.78 215.76 C 258.23 213.60 264.67 211.26 271.39 210.05 C 269.56 214.61 266.12 218.26 262.81 221.80 C 257.07 227.44 250.77 232.65 243.61 236.37 C 242.48 236.85 241.37 237.63 240.11 237.58 C 238.52 237.02 239.27 234.95 238.87 233.72 C 239.35 234.88 239.83 236.05 240.32 237.22 C 249.57 233.14 257.18 226.23 264.17 219.07 C 266.69 216.68 268.61 213.76 270.47 210.84 C 263.43 212.75 256.35 214.68 249.59 217.44 C 243.24 220.21 240.75 227.31 238.95 233.47 C 239.13 225.79 244.24 217.98 251.78 215.76 Z" />
<path fill="#97b6e7" opacity="0.98" d=" M 282.34 228.30 C 300.90 218.23 321.83 212.30 343.02 212.40 C 371.24 211.37 399.71 219.95 422.70 236.33 C 411.34 246.89 400.48 258.00 389.73 269.17 C 389.35 269.59 388.59 270.41 388.21 270.82 C 369.47 261.17 347.50 258.00 326.85 262.45 C 318.51 263.94 310.79 267.48 303.04 270.76 C 302.39 269.24 301.45 267.88 300.30 266.72 C 292.64 258.70 284.77 250.90 276.95 243.04 C 274.81 240.86 272.45 238.91 269.98 237.12 C 272.71 232.58 278.01 230.88 282.34 228.30 M 310.33 218.20 C 296.81 222.40 283.69 228.13 271.89 235.99 C 277.12 242.43 283.71 247.60 288.92 254.05 C 294.57 258.43 298.87 264.30 304.59 268.60 C 312.48 264.70 320.97 262.27 329.57 260.55 C 332.04 260.22 334.48 259.65 336.97 259.46 C 345.14 259.47 353.36 259.07 361.44 260.57 C 364.75 261.25 368.11 261.69 371.34 262.73 C 377.06 264.27 382.61 266.39 387.91 269.05 C 399.09 258.44 409.76 247.25 420.78 236.44 C 403.18 224.65 382.78 216.71 361.67 214.39 C 344.52 212.43 326.99 213.64 310.33 218.20 Z" />
<path fill="#97b6e7" opacity="0.98" d=" M 340.52 223.66 C 336.20 222.31 337.63 215.48 341.69 214.70 C 345.58 216.40 345.61 221.32 342.87 223.99 C 345.10 224.27 347.37 223.90 349.62 223.99 C 348.58 223.02 347.90 221.81 347.30 220.56 C 347.34 220.06 347.44 219.07 347.48 218.58 C 347.68 217.93 348.08 216.61 348.29 215.96 C 349.68 215.47 351.17 214.73 352.65 215.41 C 353.49 216.43 354.10 217.61 354.79 218.74 C 354.42 220.13 354.07 221.51 353.73 222.91 C 353.00 223.13 351.53 223.58 350.79 223.81 C 356.15 226.21 359.57 232.12 359.05 237.95 C 359.29 243.80 356.68 250.30 351.01 252.69 C 346.63 253.99 341.43 254.26 337.49 251.59 C 330.24 244.36 330.79 228.84 341.18 224.75 C 341.02 224.48 340.69 223.93 340.52 223.66 M 339.07 218.02 C 339.09 219.57 338.81 221.22 339.35 222.71 C 340.59 222.87 342.42 223.23 343.28 222.08 C 343.82 220.21 343.52 218.23 343.60 216.32 C 342.24 216.76 339.00 215.69 339.07 218.02 M 348.74 216.56 C 348.70 218.34 348.22 220.24 349.15 221.90 C 350.32 222.72 351.62 222.98 353.07 222.68 C 353.09 220.57 353.10 218.47 353.11 216.37 C 351.65 216.42 350.19 216.49 348.74 216.56 M 343.09 225.08 C 337.71 225.79 334.12 230.93 333.68 236.08 C 333.03 241.46 334.19 247.76 338.58 251.35 C 341.60 253.39 345.55 252.84 348.96 252.34 C 354.02 251.72 357.58 246.89 358.05 242.03 C 358.53 236.99 358.46 231.15 354.69 227.29 C 351.65 224.31 347.00 224.60 343.09 225.08 Z" />
<path fill="#97b6e7" opacity="0.98" d=" M 445.52 221.33 C 447.48 220.93 448.10 223.58 449.03 224.85 C 452.15 230.34 452.59 238.67 446.40 242.21 C 445.09 235.35 445.03 228.27 445.52 221.33 M 446.76 222.62 C 446.60 225.11 446.60 227.62 446.21 230.09 C 445.59 233.78 446.87 237.42 446.64 241.13 C 452.67 236.58 450.68 227.88 446.76 222.62 Z" />
<path fill="#97b6e7" opacity="0.98" d=" M 344.53 230.77 C 346.31 229.21 348.77 230.42 349.40 232.49 C 350.66 236.33 350.70 240.67 349.38 244.51 C 348.69 246.71 346.05 247.87 343.99 246.80 C 341.91 245.28 341.75 242.42 341.53 240.07 C 341.46 236.85 341.47 232.72 344.53 230.77 M 345.35 230.75 C 341.15 234.18 341.35 240.09 343.17 244.71 C 343.95 246.66 346.12 245.90 347.74 245.93 C 349.93 242.40 349.70 238.06 349.14 234.12 C 348.83 232.15 347.31 230.83 345.35 230.75 Z" />
<path fill="#97b6e7" opacity="0.98" d=" M 227.76 240.79 C 232.64 239.16 238.81 240.59 241.20 245.50 C 234.11 246.36 226.94 246.34 219.81 246.17 C 221.07 242.93 224.78 241.85 227.76 240.79 M 220.64 245.31 C 227.17 245.50 233.73 245.71 240.21 244.79 C 235.29 238.50 225.91 240.67 220.64 245.31 Z" />
<path fill="#97b6e7" opacity="0.98" d=" M 453.65 240.72 C 462.28 238.67 472.50 243.51 475.42 252.11 C 477.81 258.75 479.87 265.50 481.69 272.32 C 479.99 271.72 478.26 271.12 476.83 270.00 C 470.17 265.18 464.54 259.06 459.76 252.40 C 457.26 248.78 454.74 245.04 453.65 240.72 M 454.40 241.56 C 457.21 248.28 461.79 254.03 466.40 259.60 C 470.69 263.95 474.98 268.58 480.53 271.35 C 478.97 265.20 477.11 259.13 475.09 253.12 C 472.62 244.64 462.81 239.51 454.40 241.56 Z" />
<path fill="#97b6e7" opacity="0.98" d=" M 249.06 257.16 C 250.66 254.12 253.44 251.96 255.91 249.65 C 264.76 257.92 273.16 266.68 281.85 275.13 C 284.02 277.18 285.94 279.61 288.69 280.92 C 285.73 283.70 282.83 286.55 279.81 289.28 C 270.08 278.09 258.74 268.38 249.06 257.16 M 249.55 257.44 C 259.15 266.51 268.30 276.05 277.70 285.33 C 278.52 286.11 279.44 286.78 280.36 287.45 C 282.27 285.31 284.30 283.28 286.41 281.34 C 276.36 271.15 266.32 260.93 256.02 251.01 C 253.20 252.35 251.44 255.08 249.55 257.44 Z" />
<path fill="#97b6e7" opacity="0.98" d=" M 429.20 256.19 C 431.06 254.43 432.82 252.50 435.01 251.11 C 438.11 252.95 441.72 255.20 442.66 258.93 L 442.15 258.29 C 440.13 255.58 437.49 253.46 434.88 251.37 C 425.15 261.34 415.21 271.10 405.41 280.99 C 407.58 283.20 409.78 285.40 411.98 287.59 C 414.71 284.78 417.54 282.06 420.57 279.58 C 427.25 273.20 433.57 266.46 440.25 260.10 C 431.78 270.76 420.78 279.18 412.15 289.67 C 409.23 287.01 406.43 284.23 403.71 281.38 C 412.24 273.02 420.57 264.45 429.20 256.19 Z" />
<path fill="#97b6e7" opacity="0.98" d=" M 213.37 265.46 C 215.49 263.99 218.11 263.98 220.59 263.85 C 217.99 267.27 214.25 269.48 210.85 272.01 C 200.29 279.42 189.78 286.92 179.12 294.18 C 179.21 286.49 183.59 279.16 189.35 274.23 C 195.78 268.42 204.61 265.89 213.10 265.48 C 208.04 267.02 202.66 267.49 197.79 269.66 C 188.60 273.86 181.31 282.41 179.78 292.55 C 182.05 291.26 184.24 289.84 186.35 288.32 C 197.22 280.63 208.38 273.31 218.74 264.93 C 216.95 265.10 215.16 265.28 213.37 265.46 Z" />
<path fill="#97b6e7" opacity="0.98" d=" M 456.76 270.35 C 461.51 276.57 465.16 283.54 468.49 290.60 C 475.65 306.43 480.52 323.55 480.90 341.01 C 481.25 352.75 480.71 364.61 477.88 376.05 C 473.86 393.01 467.16 409.60 456.78 423.68 C 450.89 416.59 444.01 410.41 437.60 403.81 C 432.87 399.30 428.47 394.41 423.29 390.41 C 426.99 381.87 430.65 373.19 432.15 363.95 C 434.30 350.65 433.88 336.84 430.31 323.82 C 428.52 317.05 425.36 310.79 422.83 304.30 C 430.67 297.30 437.98 289.71 445.46 282.33 C 449.30 278.41 453.36 274.68 456.76 270.35 M 456.83 272.48 C 454.95 274.41 453.09 276.36 451.18 278.26 C 441.74 286.46 433.20 295.65 424.39 304.52 C 429.15 315.15 433.79 326.27 434.09 338.09 C 434.70 344.02 434.93 350.05 434.18 355.98 C 434.16 367.97 429.57 379.34 424.96 390.22 C 430.79 395.99 436.56 401.82 442.37 407.61 C 446.95 412.48 452.41 416.40 456.78 421.50 C 460.77 416.90 462.97 411.12 465.78 405.79 C 469.55 398.71 472.37 391.18 474.60 383.49 C 476.28 377.61 477.72 371.66 478.61 365.60 C 480.00 356.81 479.18 347.90 479.43 339.04 C 479.63 334.02 478.76 329.04 477.83 324.13 C 474.15 305.81 467.26 288.02 456.83 272.48 Z" />
<path fill="#97b6e7" opacity="0.98" d=" M 235.77 271.01 C 245.59 280.94 255.35 290.93 265.40 300.63 C 266.64 301.83 268.12 302.72 269.61 303.56 C 266.71 310.12 263.43 316.58 261.58 323.56 C 257.13 340.16 257.13 358.07 262.38 374.49 C 264.05 379.97 266.60 385.11 268.58 390.48 C 257.12 401.11 246.13 412.25 235.41 423.63 C 233.59 421.39 231.89 419.06 230.45 416.56 C 218.26 396.23 211.45 372.67 211.04 348.97 C 210.73 322.09 218.64 295.16 233.58 272.82 C 234.04 272.52 234.97 271.92 235.44 271.62 L 235.77 271.01 M 213.40 330.40 C 211.65 346.48 212.24 362.95 216.26 378.67 C 220.23 393.92 226.41 408.76 235.42 421.73 C 246.02 411.27 256.46 400.65 267.05 390.18 C 264.57 384.75 262.25 379.24 260.53 373.51 C 256.40 359.58 256.55 344.84 258.54 330.57 C 260.14 321.45 263.55 312.83 267.59 304.55 C 256.95 293.82 246.50 282.87 235.38 272.63 C 223.51 289.70 216.26 309.85 213.40 330.40 Z" />
<path fill="#97b6e7" opacity="0.98" d=" M 501.09 274.96 C 507.46 279.97 511.08 287.92 511.67 295.90 C 512.12 301.39 510.54 306.74 509.17 312.00 C 507.81 316.94 506.61 321.95 504.74 326.73 C 500.83 321.96 500.34 315.34 500.64 309.42 C 501.23 314.81 502.24 320.18 504.13 325.28 C 506.46 320.03 507.66 314.39 509.11 308.86 C 510.15 304.17 511.57 299.35 510.76 294.50 C 509.66 287.75 506.79 281.11 501.71 276.39 C 501.60 279.23 501.59 282.10 501.11 284.91 C 500.36 281.63 500.72 278.26 501.09 274.96 Z" />
<path fill="#97b6e7" opacity="0.98" d=" M 500.71 295.07 C 499.34 293.72 499.47 292.76 501.11 292.19 C 501.31 293.19 501.17 294.15 500.71 295.07 Z" />
<path fill="#97b6e7" opacity="0.98" d=" M 174.57 326.62 C 179.46 320.36 184.01 313.69 190.09 308.50 C 190.48 315.44 188.22 322.15 185.09 328.24 C 180.17 338.05 175.48 348.01 169.91 357.47 C 165.28 347.47 167.84 335.08 174.57 326.62 M 179.87 320.88 C 175.51 326.16 171.00 331.68 169.36 338.49 C 167.16 344.15 168.03 350.24 169.98 355.82 C 173.68 349.97 176.56 343.67 179.70 337.51 C 184.50 328.94 188.75 319.81 189.62 309.88 C 185.87 313.09 183.05 317.15 179.87 320.88 Z" />
<path fill="#97b6e7" opacity="0.98" d=" M 217.96 330.14 C 220.52 327.78 225.19 327.81 227.64 330.29 C 228.39 333.25 228.79 336.29 229.43 339.27 C 231.62 335.53 230.66 329.57 235.85 328.18 C 237.05 328.67 238.27 329.16 239.50 329.63 C 240.99 332.99 241.21 336.75 242.73 340.11 C 243.07 338.26 243.36 336.41 243.53 334.55 C 244.04 332.75 244.57 330.95 245.12 329.17 C 247.97 328.41 251.22 327.83 253.68 329.96 C 251.38 339.03 249.77 348.41 246.09 357.04 C 243.56 357.00 241.03 357.01 238.50 356.97 C 237.76 353.61 236.98 350.24 235.86 346.98 C 234.04 350.14 234.71 354.36 232.01 357.08 C 229.72 357.92 225.66 358.34 224.84 355.29 C 222.69 349.50 221.34 343.46 219.60 337.55 C 218.93 335.11 217.95 332.70 217.96 330.14 M 218.81 330.02 C 220.42 339.04 223.29 347.78 225.79 356.57 C 227.90 356.83 230.04 356.78 232.14 356.44 C 233.07 353.56 234.11 350.66 234.24 347.61 C 234.84 346.74 235.44 345.88 236.03 345.02 C 237.57 348.66 238.30 352.57 239.09 356.43 C 241.41 356.44 243.74 356.43 246.07 356.41 C 248.34 347.50 251.22 338.72 252.80 329.65 C 250.50 329.88 247.54 329.01 245.66 330.62 C 243.86 334.29 244.30 338.68 242.49 342.39 C 241.01 338.27 240.07 333.98 239.12 329.71 C 237.14 329.73 235.16 329.80 233.18 329.92 C 232.03 333.98 231.20 338.16 229.55 342.07 C 228.02 338.15 227.60 333.94 226.93 329.83 C 224.22 329.80 221.51 329.84 218.81 330.02 Z" />
<path fill="#97b6e7" opacity="0.98" d=" M 444.67 329.08 C 451.71 328.65 458.92 328.52 465.85 330.00 C 468.12 331.63 470.52 333.97 470.03 337.05 C 470.12 339.63 468.26 341.62 466.46 343.21 C 469.07 347.47 471.53 352.00 472.23 357.02 C 468.93 358.13 465.49 357.25 462.16 356.91 C 460.54 353.71 459.12 350.43 457.64 347.17 C 456.96 347.11 455.62 346.97 454.94 346.91 C 453.23 350.03 454.36 353.54 454.72 356.85 C 452.90 356.98 451.05 356.97 449.31 357.54 C 447.81 357.53 446.26 357.67 444.85 357.11 C 444.33 354.74 444.67 352.30 444.36 349.91 C 443.28 342.98 444.71 336.03 444.67 329.08 M 445.01 329.86 C 444.95 338.75 444.64 347.64 444.94 356.53 C 447.87 356.75 450.81 356.69 453.75 356.53 C 453.85 353.38 453.52 350.18 454.13 347.08 C 454.60 345.30 457.08 345.95 457.98 347.01 C 460.20 349.80 461.10 353.35 462.53 356.56 C 465.49 356.67 468.47 356.74 471.45 356.63 C 470.54 351.75 468.25 347.25 465.41 343.24 C 467.06 341.43 469.28 339.70 469.28 337.00 C 469.95 333.66 466.59 331.27 463.84 330.28 C 457.65 328.94 451.27 329.81 445.01 329.86 Z" />
<path fill="#97b6e7" opacity="0.98" d=" M 276.59 333.64 C 282.02 329.98 289.76 330.97 294.03 335.98 C 300.92 343.49 307.95 351.79 318.03 354.97 C 324.34 357.00 331.07 353.98 335.62 349.62 C 338.40 346.99 339.61 342.93 338.70 339.22 C 337.88 336.85 335.26 335.96 333.40 334.62 C 337.37 330.99 344.26 329.80 348.53 333.60 C 357.66 340.77 364.29 351.85 376.07 355.11 C 381.68 357.17 387.59 354.38 391.93 350.86 C 395.20 348.35 397.29 344.19 396.80 340.03 C 396.24 337.00 392.89 336.05 390.66 334.54 C 393.58 331.94 397.69 330.84 401.53 331.47 C 405.48 332.21 408.52 335.06 411.13 337.93 C 416.64 344.06 422.08 350.41 428.99 355.03 C 432.30 356.89 430.10 361.35 429.47 364.20 C 429.12 366.66 426.37 365.23 424.94 364.91 C 417.48 362.46 410.67 358.42 404.28 353.92 C 398.45 359.85 391.50 365.19 383.13 366.71 C 376.15 368.28 369.26 365.60 362.84 363.13 C 357.14 360.95 352.20 357.32 347.00 354.20 C 340.96 359.68 334.32 365.14 326.08 366.71 C 318.36 368.58 310.82 365.20 303.88 362.22 C 298.90 360.16 294.40 357.18 289.98 354.13 C 282.74 361.46 272.97 366.99 262.44 366.81 C 261.38 363.41 260.67 359.88 260.97 356.31 C 267.80 355.29 275.18 353.36 279.58 347.59 C 282.12 344.64 282.90 339.27 279.14 336.92 C 278.31 335.83 275.18 335.31 276.59 333.64 M 278.19 334.24 C 279.79 335.44 281.32 336.75 282.65 338.26 C 284.03 343.46 281.39 349.08 277.01 351.99 C 272.59 355.08 267.36 357.06 261.94 357.31 C 262.14 360.00 262.66 362.64 263.15 365.29 C 273.34 365.78 282.38 359.56 289.41 352.76 C 294.50 354.56 298.44 358.64 303.49 360.62 C 309.77 363.11 316.18 366.63 323.16 365.93 C 328.19 365.29 332.86 363.09 337.10 360.38 C 340.59 358.10 343.40 354.89 347.10 352.89 C 348.73 353.35 350.09 354.44 351.53 355.30 C 357.58 359.49 364.36 362.51 371.32 364.84 C 379.67 367.72 388.66 364.58 395.57 359.68 C 398.52 357.62 400.94 354.87 403.98 352.95 L 405.10 353.01 C 412.42 357.37 419.73 362.57 428.26 364.16 C 428.56 361.37 430.86 357.33 427.46 355.65 C 422.45 352.37 418.51 347.82 414.29 343.64 C 410.59 339.69 407.37 334.64 401.96 332.92 C 399.08 331.85 396.14 333.00 393.45 334.03 C 396.21 335.99 399.49 339.21 398.22 342.93 C 397.37 349.09 391.94 353.02 386.92 355.86 C 383.50 357.12 379.73 356.39 376.17 356.51 C 371.57 355.63 367.53 352.97 363.86 350.18 C 358.23 344.76 352.97 338.90 346.76 334.13 C 343.92 331.89 339.70 332.10 336.78 334.04 C 336.93 335.90 338.91 336.87 340.02 338.19 C 341.22 342.74 339.46 347.87 336.19 351.17 C 332.12 354.29 327.29 357.18 322.00 357.05 C 314.12 356.45 307.35 351.41 301.78 346.17 C 296.65 341.60 292.92 334.97 286.02 332.80 C 283.31 331.80 280.69 333.37 278.19 334.24 Z" />
<path fill="#97b6e7" opacity="0.98" d=" M 454.09 335.12 C 456.27 335.30 460.09 334.49 460.53 337.52 C 460.65 340.53 456.48 340.73 454.30 340.62 C 452.83 339.17 454.01 336.88 454.09 335.12 M 454.57 335.60 C 454.59 336.76 454.62 339.09 454.64 340.26 C 456.55 339.75 458.39 339.04 460.18 338.20 C 459.04 336.03 456.74 335.72 454.57 335.60 Z" />
<path fill="#97b6e7" opacity="0.98" d=" M 512.67 349.51 C 515.27 344.83 517.45 339.85 520.78 335.61 C 523.87 344.79 523.03 355.45 517.71 363.65 C 513.62 369.49 508.91 374.87 504.40 380.39 C 503.20 381.92 501.79 383.26 500.14 384.29 C 499.77 371.49 507.12 360.47 512.67 349.51 M 517.53 341.84 C 513.10 350.08 508.68 358.34 504.74 366.83 C 502.39 371.96 501.13 377.55 500.93 383.19 C 506.01 377.15 511.26 371.24 515.88 364.83 C 520.30 358.74 523.14 350.98 521.61 343.40 C 521.32 341.38 521.02 339.36 520.71 337.35 C 519.44 338.69 518.38 340.20 517.53 341.84 Z" />
<path fill="#97b6e7" opacity="0.98" d=" M 290.44 358.85 C 299.32 365.09 309.32 370.06 320.13 371.76 C 329.10 372.77 338.11 368.63 344.19 362.16 C 345.65 361.10 347.10 358.28 349.12 359.85 C 356.86 364.72 364.96 369.52 374.11 371.12 C 381.77 372.68 390.10 371.16 396.44 366.49 C 399.52 364.42 401.75 361.31 404.92 359.38 C 407.47 360.11 409.55 361.84 411.82 363.16 C 416.79 366.31 422.31 368.46 427.81 370.50 C 427.31 372.24 427.45 375.29 425.07 375.46 C 418.19 374.14 412.32 370.08 405.99 367.37 C 401.96 369.41 398.84 372.92 394.60 374.61 C 384.98 379.59 373.42 378.23 363.70 374.25 C 358.51 372.54 353.79 369.78 348.91 367.40 C 345.38 368.79 342.79 371.81 339.38 373.47 C 331.83 377.94 322.48 379.10 314.06 376.66 C 305.87 374.81 298.52 370.68 290.98 367.18 C 284.37 372.42 276.42 376.23 268.01 377.27 C 265.25 377.97 263.35 374.62 264.36 372.35 C 268.59 370.73 273.21 370.33 277.34 368.37 C 282.44 366.35 286.67 362.76 290.44 358.85 M 290.64 360.66 C 286.21 365.56 280.29 368.92 274.10 371.10 C 271.17 372.13 267.94 372.21 265.16 373.67 C 265.42 376.79 268.27 376.02 270.45 375.70 C 277.56 373.73 284.29 370.51 290.21 366.10 C 290.56 365.98 291.26 365.76 291.61 365.65 C 299.21 369.76 307.08 373.53 315.48 375.70 C 323.97 377.77 333.10 375.84 340.47 371.29 C 343.13 369.68 345.36 367.42 348.17 366.05 C 350.26 365.57 351.90 367.51 353.72 368.25 C 363.59 373.28 374.59 378.03 385.93 376.10 C 392.00 374.68 397.86 372.00 402.50 367.76 C 404.15 365.93 406.98 366.04 409.00 367.17 C 413.96 369.57 418.75 372.45 424.12 373.86 C 425.40 374.16 426.14 373.60 426.35 372.17 C 422.68 369.74 418.41 368.51 414.60 366.36 C 411.32 364.48 408.09 362.50 404.89 360.51 C 399.81 367.04 392.17 371.73 383.95 372.92 C 370.85 374.12 358.34 367.90 347.95 360.49 C 342.33 366.96 334.81 372.14 326.09 372.99 C 313.17 373.86 301.09 367.63 290.64 360.66 Z" />
<path fill="#97b6e7" opacity="0.98" d=" M 185.34 366.18 C 189.77 371.71 190.15 379.22 189.99 386.01 C 189.71 396.69 190.32 407.45 189.00 418.07 C 180.70 410.45 176.38 398.09 179.45 387.07 C 181.26 380.06 182.99 373.03 185.34 366.18 M 185.55 367.70 C 183.62 373.90 182.03 380.21 180.38 386.49 C 177.77 397.03 180.55 408.63 188.15 416.48 C 189.82 413.16 188.47 409.28 189.34 405.76 C 189.78 398.18 189.65 390.56 188.99 383.00 C 189.35 377.71 188.50 372.21 185.55 367.70 Z" />
<path fill="#97b6e7" opacity="0.98" d=" M 283.31 378.20 C 286.54 376.53 289.05 373.81 292.10 371.87 C 295.42 372.98 298.23 375.15 301.40 376.61 C 310.08 380.75 319.72 383.90 329.45 382.66 C 335.99 381.63 341.93 378.20 346.81 373.83 C 348.09 372.80 349.80 371.06 351.40 372.62 C 359.47 377.86 368.69 381.31 378.21 382.71 C 386.38 383.92 394.70 381.05 401.26 376.25 C 403.23 374.91 404.70 372.74 407.02 371.99 C 412.26 374.33 417.18 377.39 422.51 379.60 C 425.43 380.53 423.40 384.89 421.07 385.15 C 416.45 383.89 412.43 381.14 407.92 379.62 C 406.31 379.70 405.17 381.04 403.86 381.81 C 397.34 386.69 389.14 389.20 381.02 389.05 C 372.05 388.38 363.36 385.54 355.26 381.72 C 353.57 380.97 351.88 380.15 350.06 379.82 C 346.28 381.67 343.01 384.44 339.10 386.05 C 329.55 390.14 318.59 389.49 308.94 386.07 C 303.38 384.55 298.45 381.47 293.05 379.57 C 286.45 383.32 279.68 387.59 271.91 388.20 C 269.51 388.13 268.85 385.24 268.07 383.43 C 273.18 381.77 278.59 380.88 283.31 378.20 M 404.39 375.38 C 400.35 379.50 394.94 381.82 389.54 383.57 C 375.47 385.96 361.40 380.68 349.73 373.13 C 345.05 377.66 339.46 381.37 333.14 383.15 C 328.79 384.45 324.20 384.01 319.73 383.94 C 310.01 382.21 300.65 378.52 292.37 373.15 C 286.29 379.33 278.01 382.66 269.63 384.25 C 270.50 386.28 272.24 387.63 274.48 386.72 C 279.83 385.06 284.93 382.69 289.76 379.86 C 291.14 378.99 292.70 378.48 294.31 378.25 C 305.76 384.28 318.65 389.25 331.80 387.06 C 338.58 385.85 344.15 381.68 349.86 378.15 C 360.35 382.03 370.60 387.55 382.04 387.90 C 390.15 387.40 398.33 384.81 404.62 379.52 C 405.80 378.52 407.21 377.35 408.84 378.23 C 412.89 379.84 416.43 382.80 420.85 383.45 C 421.40 383.02 422.49 382.16 423.04 381.73 C 418.23 378.77 412.86 376.84 408.03 373.91 C 406.57 372.67 405.42 374.56 404.39 375.38 Z" />
<path fill="#97b6e7" opacity="0.98" d=" M 475.06 424.00 C 486.94 415.37 499.02 407.01 511.08 398.64 C 510.57 410.89 500.75 421.73 489.15 424.99 C 482.84 426.82 476.42 428.48 469.84 428.92 C 471.31 427.01 473.06 425.35 475.06 424.00 M 476.23 424.03 C 474.47 425.22 472.80 426.55 471.34 428.10 C 478.80 426.70 486.59 426.06 493.51 422.70 C 502.28 418.41 508.75 409.99 510.63 400.40 C 498.73 407.61 487.59 416.01 476.23 424.03 Z" />
<path fill="#97b6e7" opacity="0.98" d=" M 250.13 435.28 C 259.73 425.26 269.78 415.67 279.20 405.48 C 282.47 408.37 285.38 411.62 288.55 414.61 C 286.46 414.91 285.05 416.60 283.57 417.92 C 274.48 426.60 265.66 435.54 256.79 444.44 C 254.58 442.17 252.43 439.84 250.16 437.64 C 250.15 437.05 250.14 435.87 250.13 435.28 M 251.27 434.73 C 251.03 435.57 250.82 436.41 250.62 437.27 C 252.90 438.75 254.61 440.86 256.05 443.13 C 266.74 434.11 276.25 423.83 286.21 414.02 C 283.91 411.69 281.58 409.41 279.33 407.05 C 269.92 416.22 260.96 425.87 251.27 434.73 Z" />
<path fill="#97b6e7" opacity="0.98" d=" M 404.19 414.06 C 406.89 411.41 409.35 408.53 412.16 405.99 C 412.53 406.24 413.26 406.74 413.63 406.99 C 416.89 409.82 419.66 413.15 422.78 416.14 C 429.05 422.68 435.83 428.76 441.61 435.76 C 439.41 438.35 437.10 440.86 434.52 443.08 C 424.24 433.59 415.04 422.91 404.19 414.06 M 412.68 407.62 C 410.63 409.79 408.51 411.89 406.43 414.02 C 415.82 423.35 424.97 432.94 434.70 441.92 C 436.77 439.83 438.87 437.77 440.98 435.71 C 431.46 426.44 422.25 416.84 412.68 407.62 Z" />
<path fill="#97b6e7" opacity="0.98" d=" M 208.74 420.39 C 217.30 424.06 223.51 431.50 229.11 438.69 C 232.07 442.87 235.52 447.04 236.61 452.17 C 231.97 452.50 226.82 452.75 222.83 449.94 C 219.36 447.58 215.92 444.63 214.69 440.47 C 212.56 433.82 210.03 427.26 208.74 420.39 M 209.91 421.40 C 210.95 425.80 212.13 430.17 213.40 434.51 C 214.46 440.77 218.32 446.09 223.44 449.69 C 227.37 451.49 231.91 452.59 236.16 451.34 C 232.50 444.20 227.93 437.44 222.10 431.90 C 218.21 428.20 214.84 423.81 209.91 421.40 Z" />
<path fill="#97b6e7" opacity="0.98" d=" M 302.10 424.23 C 304.57 425.38 307.11 426.39 309.61 427.50 C 324.63 434.34 341.59 436.32 357.91 434.42 C 369.00 433.10 379.58 429.23 389.59 424.39 C 399.82 435.84 411.17 446.23 421.82 457.27 C 420.74 458.69 419.77 460.29 418.19 461.23 C 402.52 470.88 385.02 477.59 366.82 480.47 C 336.31 485.37 304.27 478.93 277.67 463.32 C 275.03 461.58 271.13 460.55 270.44 457.03 C 278.55 449.29 286.41 441.28 294.35 433.37 C 297.11 430.48 300.23 427.83 302.10 424.23 M 360.38 435.46 C 355.26 435.99 350.11 436.13 344.99 436.55 C 340.88 435.88 336.69 436.17 332.58 435.44 C 322.17 434.09 312.18 430.55 302.76 426.00 C 295.84 433.03 288.71 439.85 281.90 446.98 C 279.04 451.07 274.70 453.86 271.97 458.04 C 273.81 459.89 276.25 461.03 278.49 462.36 C 288.46 467.58 298.64 472.62 309.54 475.62 C 312.43 476.49 315.38 477.13 318.33 477.82 C 319.68 478.09 321.05 478.36 322.42 478.60 C 324.39 479.00 326.38 479.32 328.38 479.62 C 340.40 481.31 352.59 481.42 364.62 479.61 C 378.10 477.64 391.24 473.57 403.52 467.67 C 409.35 464.76 415.31 461.93 420.44 457.87 C 417.04 453.51 412.94 449.79 409.07 445.87 C 402.43 439.24 395.80 432.59 389.15 425.97 C 380.20 430.76 370.34 433.66 360.38 435.46 Z" />
<path fill="#97b6e7" opacity="0.98" d=" M 345.82 440.03 C 349.14 444.09 349.47 449.63 351.70 454.26 C 352.89 454.91 354.22 455.23 355.51 455.65 C 358.72 456.53 362.10 457.19 364.96 459.00 C 364.96 459.37 364.96 460.10 364.95 460.46 C 361.98 461.56 359.03 463.10 355.79 463.06 C 356.83 462.08 357.93 461.17 359.06 460.29 C 355.09 460.82 351.00 460.76 347.21 459.35 C 347.80 457.78 348.68 456.34 349.48 454.87 C 348.65 452.18 347.97 449.46 347.31 446.73 C 346.82 450.68 346.59 454.65 346.20 458.61 C 343.38 457.73 340.80 456.07 337.71 456.48 C 338.41 455.87 339.13 455.27 339.86 454.69 C 342.45 450.05 342.99 444.56 345.82 440.03 M 341.32 454.99 C 342.64 455.99 343.96 456.98 345.31 457.95 C 346.01 452.58 346.20 447.14 345.90 441.73 C 343.70 445.88 342.64 450.50 341.32 454.99 M 350.92 454.88 C 349.94 456.27 348.98 457.66 348.04 459.07 C 353.68 459.56 359.38 459.29 364.95 460.42 C 361.18 456.90 355.53 456.82 350.92 454.88 Z" />
<path fill="#97b6e7" opacity="0.98" d=" M 448.66 447.09 C 455.12 446.71 461.85 445.79 468.18 447.37 C 461.89 447.81 455.58 447.34 449.28 447.68 C 450.83 448.99 452.36 450.43 454.25 451.28 C 456.81 451.61 459.42 451.55 462.00 451.29 C 465.22 450.91 467.71 448.64 470.54 447.27 L 471.27 446.88 C 467.39 451.54 460.88 452.93 455.10 452.28 C 452.08 452.10 449.99 449.55 448.66 447.09 Z" />
<path fill="#97b6e7" opacity="0.98" d=" M 238.87 458.95 C 238.62 455.19 241.13 452.03 243.89 449.81 C 244.91 457.23 245.49 464.81 244.68 472.29 C 240.54 469.29 239.08 463.81 238.87 458.95 M 240.43 454.79 C 239.19 460.40 240.00 466.63 243.95 471.04 C 244.01 465.30 244.05 459.57 243.95 453.84 C 243.71 453.29 243.22 452.21 242.98 451.66 C 242.02 452.62 241.17 453.66 240.43 454.79 Z" />
<path fill="#97b6e7" opacity="0.98" d=" M 439.16 461.11 C 442.68 458.81 446.20 455.84 450.53 455.39 C 453.20 463.93 447.55 474.07 439.11 476.90 C 432.58 479.19 425.95 481.27 419.14 482.56 C 423.31 473.51 431.34 466.96 439.16 461.11 M 432.91 467.05 C 428.00 471.54 423.18 476.31 419.82 482.11 C 422.71 481.31 425.59 480.43 428.48 479.61 C 434.39 477.46 441.42 476.77 445.64 471.60 C 449.83 467.59 451.09 461.27 449.95 455.74 C 443.51 458.22 438.16 462.71 432.91 467.05 Z" />
<path fill="#97b6e7" opacity="0.98" d=" M 326.03 460.22 C 327.53 458.19 329.99 457.64 332.33 457.14 C 332.71 458.56 333.65 459.30 335.14 459.37 C 338.17 459.56 341.27 459.20 344.23 460.09 C 343.95 462.11 342.93 464.22 340.97 465.06 C 335.85 463.93 330.87 462.20 326.03 460.22 M 327.98 459.60 C 331.94 461.99 336.49 463.52 341.03 464.27 C 341.95 463.20 342.70 461.99 343.48 460.83 C 338.36 460.00 333.16 459.71 327.98 459.60 Z" />
<path fill="#97b6e7" opacity="0.98" d=" M 346.22 461.81 C 348.31 462.31 350.59 462.74 351.87 464.68 C 350.11 468.25 349.93 472.45 347.69 475.77 C 348.48 471.96 349.70 468.25 350.88 464.55 C 349.56 463.78 348.23 463.02 346.91 462.27 C 346.50 466.77 346.04 471.44 347.69 475.77 C 348.00 476.99 347.20 480.15 345.49 478.72 C 345.27 473.07 345.39 467.41 346.22 461.81 Z" />
<path fill="#97b6e7" opacity="0.98" d=" M 262.66 471.17 C 269.93 478.17 274.93 487.10 280.88 495.17 C 284.68 501.18 289.75 506.43 292.48 513.06 C 280.70 510.84 269.93 502.37 266.45 490.69 C 264.71 484.29 263.26 477.78 262.66 471.17 M 263.35 472.89 C 264.08 476.41 264.71 479.96 265.39 483.50 C 266.47 487.64 267.46 491.84 269.18 495.77 C 274.03 504.12 282.31 510.35 291.84 512.25 C 287.13 504.97 281.96 498.01 277.10 490.84 C 272.55 484.83 268.72 478.22 263.35 472.89 Z" />
<path fill="#97b6e7" opacity="0.98" d=" M 308.34 501.63 C 315.32 501.28 322.01 503.93 328.14 507.03 C 337.29 511.77 346.76 515.98 355.53 521.43 C 352.32 524.07 347.90 523.79 343.98 523.79 C 337.56 523.72 331.11 521.74 326.07 517.70 C 319.89 512.93 313.62 508.17 308.17 502.56 C 308.21 502.33 308.29 501.86 308.34 501.63 M 309.16 502.69 C 314.82 507.93 320.82 512.82 327.02 517.42 C 334.21 522.98 344.15 524.15 352.83 522.24 C 355.73 522.19 352.96 520.49 352.12 520.03 C 345.58 516.34 338.66 513.36 332.16 509.59 C 324.87 506.39 317.43 501.89 309.16 502.69 Z" />
<path fill="#97b6e7" opacity="0.98" d=" M 378.95 501.90 C 391.39 501.89 403.86 501.50 416.29 502.34 C 415.28 504.80 412.97 506.25 410.87 507.68 C 405.36 511.37 398.66 513.48 392.00 512.95 C 385.81 512.47 379.84 510.62 373.89 508.98 C 370.84 508.05 367.57 507.47 364.99 505.48 C 369.30 503.23 374.04 501.73 378.95 501.90 M 366.34 505.55 C 370.27 507.30 374.46 508.31 378.54 509.63 C 385.29 512.06 392.53 512.59 399.61 511.65 C 405.79 510.89 410.82 506.84 415.60 503.18 C 411.10 502.56 406.55 502.56 402.05 502.00 C 390.12 502.07 377.64 500.91 366.34 505.55 Z" />
<path fill="#97b6e7" opacity="0.98" d=" M 268.98 691.72 C 281.98 691.42 294.98 691.71 307.98 691.64 C 318.37 691.74 328.77 691.39 339.16 691.87 L 337.43 693.00 L 269.00 693.00 L 268.98 691.72 Z" />
</g>
<g id="#1b5badff">
<path fill="#1b5bad" opacity="1.00" d=" M 237.15 1.05 C 309.75 1.02 382.36 1.06 454.96 1.03 C 454.92 69.03 455.08 137.02 455.17 205.02 C 455.08 215.80 455.66 226.61 454.46 237.36 C 533.46 237.54 612.47 237.28 691.47 237.58 C 691.40 310.14 691.53 382.69 691.41 455.25 C 630.94 455.32 570.48 455.30 510.01 455.36 C 494.15 455.26 478.28 455.87 462.44 455.13 C 465.38 454.02 468.40 452.94 470.99 451.13 C 473.78 449.18 475.82 446.19 479.07 444.92 C 483.78 443.01 488.42 440.66 492.02 436.99 C 494.97 434.08 496.64 430.23 498.56 426.62 C 501.04 421.64 506.05 418.61 508.83 413.81 C 512.33 409.02 513.62 403.15 514.65 397.43 C 515.69 391.49 519.85 386.75 521.25 380.93 C 522.66 375.71 522.07 370.27 522.25 364.94 C 522.29 360.11 524.86 355.76 525.04 350.96 C 525.23 347.62 525.23 344.27 524.90 340.95 C 524.46 335.90 521.37 331.24 522.39 326.06 C 523.63 317.94 521.48 309.65 517.34 302.65 C 513.94 297.35 514.41 290.75 511.95 285.09 C 509.93 279.89 506.39 275.46 502.29 271.73 C 499.45 269.27 498.53 265.51 496.61 262.42 C 493.49 257.05 488.83 252.60 483.28 249.81 C 480.86 248.53 478.17 247.72 476.02 245.98 C 473.43 243.91 471.17 241.36 468.15 239.88 C 463.87 237.71 458.93 238.01 454.29 237.61 C 453.97 233.52 454.10 229.27 452.54 225.40 C 450.41 219.95 445.05 216.58 443.01 211.06 C 440.05 203.42 434.21 196.85 426.65 193.56 C 420.42 191.08 416.68 185.15 411.01 181.83 C 406.86 179.11 402.03 177.61 397.11 177.24 C 391.95 177.07 388.06 173.33 383.44 171.56 C 374.79 167.62 364.93 170.59 356.01 167.82 C 351.77 166.56 347.33 166.06 342.92 166.34 C 336.82 166.46 331.16 169.52 324.99 168.99 C 316.60 168.64 307.66 169.54 300.65 174.59 C 296.46 177.97 290.76 176.92 285.99 178.82 C 280.02 180.50 275.08 184.41 270.87 188.82 C 267.53 192.54 262.44 193.62 258.51 196.51 C 253.29 200.02 249.72 205.43 247.22 211.10 C 244.75 217.03 238.72 220.73 237.10 227.13 C 237.02 151.77 237.19 76.41 237.15 1.05 Z" />
<path fill="#1b5bad" opacity="1.00" d=" M 323.56 191.31 C 326.60 190.33 329.55 188.29 332.88 188.78 C 339.67 189.74 346.61 190.16 353.44 189.30 C 356.23 188.96 359.20 187.80 361.90 189.23 C 367.93 191.96 374.40 193.82 381.05 194.03 C 383.78 194.42 387.01 193.72 389.23 195.75 C 395.32 200.75 402.40 204.50 409.89 206.96 C 413.15 207.77 414.90 210.83 416.74 213.35 C 419.69 217.65 423.02 221.67 426.59 225.48 C 431.00 229.85 431.17 236.52 431.89 242.31 C 428.38 241.07 425.67 238.46 422.70 236.33 C 399.71 219.95 371.24 211.37 343.02 212.40 C 321.83 212.30 300.90 218.23 282.34 228.30 C 278.01 230.88 272.71 232.58 269.98 237.12 C 264.96 237.85 262.25 242.88 257.69 244.70 C 258.32 240.49 258.58 236.24 258.59 231.98 C 258.41 230.02 260.24 228.79 261.34 227.44 C 266.11 222.74 270.36 217.54 274.15 212.02 C 275.41 210.44 276.48 208.41 278.49 207.68 C 285.32 205.25 292.27 202.61 297.97 197.99 C 300.01 196.41 302.08 194.47 304.82 194.40 C 311.13 193.91 317.59 193.68 323.56 191.31 Z" />
<path fill="#1b5bad" opacity="1.00" d=" M 1.11 237.41 C 61.42 237.57 121.73 237.35 182.04 237.44 C 199.92 237.01 217.80 237.09 235.67 237.37 C 231.06 237.83 226.11 237.53 221.98 240.00 C 217.55 242.12 214.95 246.84 210.19 248.39 C 201.97 251.31 195.10 257.77 191.85 265.89 C 190.13 270.19 186.09 272.76 183.35 276.31 C 180.59 279.84 178.49 283.89 177.20 288.18 C 175.84 292.61 176.14 297.55 173.60 301.59 C 170.08 307.46 167.82 314.14 167.56 321.01 C 167.47 324.02 168.16 327.00 168.06 330.01 C 167.60 333.11 166.22 335.99 165.63 339.07 C 164.46 344.79 164.84 350.77 166.42 356.38 C 168.36 362.74 166.99 369.45 167.85 375.96 C 168.38 381.77 171.07 387.08 173.99 392.03 C 175.84 394.99 175.92 398.55 176.55 401.88 C 177.58 407.71 180.53 413.08 184.44 417.49 C 186.80 420.19 189.79 422.47 191.26 425.85 C 193.58 430.81 196.43 435.73 200.84 439.13 C 203.93 441.67 207.56 443.43 211.23 444.97 C 214.14 446.11 216.17 448.56 218.53 450.49 C 220.98 452.52 223.97 453.75 226.94 454.84 C 217.35 456.16 207.62 455.12 197.97 455.42 C 132.32 455.25 66.67 455.34 1.02 455.26 C 1.07 382.64 0.89 310.03 1.11 237.41 Z" />
<path fill="#1b5bad" opacity="1.00" d=" M 230.57 261.45 C 234.89 260.41 239.22 259.40 243.64 258.87 C 241.43 263.20 237.49 266.40 235.77 271.01 L 235.44 271.62 C 234.97 271.92 234.04 272.52 233.58 272.82 C 218.64 295.16 210.73 322.09 211.04 348.97 C 211.45 372.67 218.26 396.23 230.45 416.56 C 231.89 419.06 233.59 421.39 235.41 423.63 C 237.72 426.57 239.70 429.74 241.59 432.96 C 237.29 433.10 232.98 432.97 228.71 432.44 C 222.42 426.33 215.76 420.58 208.43 415.74 C 206.25 414.54 205.94 411.93 205.13 409.83 C 203.01 403.27 199.69 397.11 195.27 391.81 C 194.48 390.63 193.19 389.61 193.10 388.11 C 192.55 381.36 192.45 374.44 190.04 368.02 C 188.96 364.72 186.63 361.56 187.48 357.91 C 188.37 351.70 188.97 345.39 188.16 339.14 C 187.79 335.58 186.63 331.78 188.42 328.40 C 190.82 322.93 192.42 317.10 192.61 311.11 C 193.03 308.21 192.30 304.82 194.38 302.45 C 198.29 297.37 201.92 291.97 204.12 285.91 C 205.28 282.98 205.86 279.53 208.54 277.52 C 212.74 274.00 217.31 270.93 221.48 267.36 C 224.29 265.09 226.88 262.21 230.57 261.45 Z" />
<path fill="#1b5bad" opacity="1.00" d=" M 449.32 259.89 C 453.39 260.14 457.65 259.49 461.61 260.42 C 467.19 265.52 472.56 270.94 479.02 274.97 C 480.65 276.23 482.98 277.06 483.66 279.19 C 485.73 284.93 487.72 290.79 491.21 295.87 C 493.05 298.96 495.72 301.60 497.04 304.98 C 497.54 312.42 498.15 320.00 501.05 326.96 C 501.85 329.24 503.44 331.47 502.85 334.02 C 501.49 342.26 501.44 350.73 502.88 358.97 C 503.47 361.24 502.27 363.34 501.42 365.37 C 498.31 372.16 497.44 379.70 496.97 387.08 C 497.17 390.02 494.61 391.88 493.14 394.09 C 488.77 399.68 486.26 406.37 483.86 412.97 C 481.35 416.41 477.30 418.32 474.13 421.09 C 470.72 423.68 467.60 426.63 464.23 429.27 C 460.36 432.09 455.34 432.38 450.73 432.74 C 452.42 429.51 454.63 426.61 456.78 423.68 C 467.16 409.60 473.86 393.01 477.88 376.05 C 480.71 364.61 481.25 352.75 480.90 341.01 C 480.52 323.55 475.65 306.43 468.49 290.60 C 465.16 283.54 461.51 276.57 456.76 270.35 C 454.17 266.95 451.58 263.53 449.32 259.89 Z" />
<path fill="#1b5bad" opacity="1.00" d=" M 326.85 262.45 C 347.50 258.00 369.47 261.17 388.21 270.82 C 388.59 270.41 389.35 269.59 389.73 269.17 C 389.65 269.61 389.49 270.50 389.41 270.94 C 393.98 274.69 399.45 277.25 403.71 281.38 C 406.43 284.23 409.23 287.01 412.15 289.67 C 416.14 294.18 419.50 299.30 422.83 304.30 C 425.36 310.79 428.52 317.05 430.31 323.82 C 433.88 336.84 434.30 350.65 432.15 363.95 C 430.65 373.19 426.99 381.87 423.29 390.41 C 420.37 395.69 416.58 400.44 412.96 405.26 C 413.13 405.69 413.46 406.56 413.63 406.99 C 413.26 406.74 412.53 406.24 412.16 405.99 C 409.35 408.53 406.89 411.41 404.19 414.06 C 399.63 417.90 394.76 421.42 389.59 424.39 C 379.58 429.23 369.00 433.10 357.91 434.42 C 341.59 436.32 324.63 434.34 309.61 427.50 C 307.11 426.39 304.57 425.38 302.10 424.23 C 297.42 421.27 292.86 418.07 288.55 414.61 C 285.38 411.62 282.47 408.37 279.20 405.48 C 275.11 400.91 272.07 395.51 268.58 390.48 C 266.60 385.11 264.05 379.97 262.38 374.49 C 257.13 358.07 257.13 340.16 261.58 323.56 C 263.43 316.58 266.71 310.12 269.61 303.56 C 272.69 298.60 276.26 293.91 279.81 289.28 C 282.83 286.55 285.73 283.70 288.69 280.92 C 293.22 277.20 297.95 273.67 303.04 270.76 C 310.79 267.48 318.51 263.94 326.85 262.45 M 276.59 333.64 C 275.18 335.31 278.31 335.83 279.14 336.92 C 282.90 339.27 282.12 344.64 279.58 347.59 C 275.18 353.36 267.80 355.29 260.97 356.31 C 260.67 359.88 261.38 363.41 262.44 366.81 C 272.97 366.99 282.74 361.46 289.98 354.13 C 294.40 357.18 298.90 360.16 303.88 362.22 C 310.82 365.20 318.36 368.58 326.08 366.71 C 334.32 365.14 340.96 359.68 347.00 354.20 C 352.20 357.32 357.14 360.95 362.84 363.13 C 369.26 365.60 376.15 368.28 383.13 366.71 C 391.50 365.19 398.45 359.85 404.28 353.92 C 410.67 358.42 417.48 362.46 424.94 364.91 C 426.37 365.23 429.12 366.66 429.47 364.20 C 430.10 361.35 432.30 356.89 428.99 355.03 C 422.08 350.41 416.64 344.06 411.13 337.93 C 408.52 335.06 405.48 332.21 401.53 331.47 C 397.69 330.84 393.58 331.94 390.66 334.54 C 392.89 336.05 396.24 337.00 396.80 340.03 C 397.29 344.19 395.20 348.35 391.93 350.86 C 387.59 354.38 381.68 357.17 376.07 355.11 C 364.29 351.85 357.66 340.77 348.53 333.60 C 344.26 329.80 337.37 330.99 333.40 334.62 C 335.26 335.96 337.88 336.85 338.70 339.22 C 339.61 342.93 338.40 346.99 335.62 349.62 C 331.07 353.98 324.34 357.00 318.03 354.97 C 307.95 351.79 300.92 343.49 294.03 335.98 C 289.76 330.97 282.02 329.98 276.59 333.64 M 290.44 358.85 C 286.67 362.76 282.44 366.35 277.34 368.37 C 273.21 370.33 268.59 370.73 264.36 372.35 C 263.35 374.62 265.25 377.97 268.01 377.27 C 276.42 376.23 284.37 372.42 290.98 367.18 C 298.52 370.68 305.87 374.81 314.06 376.66 C 322.48 379.10 331.83 377.94 339.38 373.47 C 342.79 371.81 345.38 368.79 348.91 367.40 C 353.79 369.78 358.51 372.54 363.70 374.25 C 373.42 378.23 384.98 379.59 394.60 374.61 C 398.84 372.92 401.96 369.41 405.99 367.37 C 412.32 370.08 418.19 374.14 425.07 375.46 C 427.45 375.29 427.31 372.24 427.81 370.50 C 422.31 368.46 416.79 366.31 411.82 363.16 C 409.55 361.84 407.47 360.11 404.92 359.38 C 401.75 361.31 399.52 364.42 396.44 366.49 C 390.10 371.16 381.77 372.68 374.11 371.12 C 364.96 369.52 356.86 364.72 349.12 359.85 C 347.10 358.28 345.65 361.10 344.19 362.16 C 338.11 368.63 329.10 372.77 320.13 371.76 C 309.32 370.06 299.32 365.09 290.44 358.85 M 283.31 378.20 C 278.59 380.88 273.18 381.77 268.07 383.43 C 268.85 385.24 269.51 388.13 271.91 388.20 C 279.68 387.59 286.45 383.32 293.05 379.57 C 298.45 381.47 303.38 384.55 308.94 386.07 C 318.59 389.49 329.55 390.14 339.10 386.05 C 343.01 384.44 346.28 381.67 350.06 379.82 C 351.88 380.15 353.57 380.97 355.26 381.72 C 363.36 385.54 372.05 388.38 381.02 389.05 C 389.14 389.20 397.34 386.69 403.86 381.81 C 405.17 381.04 406.31 379.70 407.92 379.62 C 412.43 381.14 416.45 383.89 421.07 385.15 C 423.40 384.89 425.43 380.53 422.51 379.60 C 417.18 377.39 412.26 374.33 407.02 371.99 C 404.70 372.74 403.23 374.91 401.26 376.25 C 394.70 381.05 386.38 383.92 378.21 382.71 C 368.69 381.31 359.47 377.86 351.40 372.62 C 349.80 371.06 348.09 372.80 346.81 373.83 C 341.93 378.20 335.99 381.63 329.45 382.66 C 319.72 383.90 310.08 380.75 301.40 376.61 C 298.23 375.15 295.42 372.98 292.10 371.87 C 289.05 373.81 286.54 376.53 283.31 378.20 Z" />
<path fill="#1b5bad" opacity="1.00" d=" M 258.03 449.84 C 261.93 452.18 265.52 454.97 269.30 457.50 C 269.58 457.38 270.15 457.15 270.44 457.03 C 271.13 460.55 275.03 461.58 277.67 463.32 C 304.27 478.93 336.31 485.37 366.82 480.47 C 385.02 477.59 402.52 470.88 418.19 461.23 C 419.77 460.29 420.74 458.69 421.82 457.27 C 425.62 456.58 428.25 453.36 431.66 451.77 C 431.32 455.65 432.14 459.95 430.55 463.56 C 424.21 469.97 418.39 476.91 413.72 484.65 C 405.31 487.15 397.04 490.59 390.32 496.35 C 387.57 499.03 383.54 498.30 380.07 498.62 C 373.69 499.27 367.42 500.92 361.59 503.59 C 358.29 505.41 354.66 503.50 351.20 503.28 C 344.12 502.13 337.06 503.76 330.07 504.46 C 324.27 501.90 318.33 499.42 311.94 498.94 C 308.48 498.28 304.66 499.04 301.45 497.52 C 295.42 492.50 288.52 488.51 281.03 486.10 C 276.54 484.98 274.45 480.52 271.83 477.17 C 268.69 472.67 264.69 468.89 261.19 464.70 C 259.52 459.92 258.96 454.81 258.03 449.84 Z" />
<path fill="#1b5bad" opacity="1.00" d=" M 454.32 459.04 C 455.43 464.63 455.00 470.35 454.97 476.01 C 454.77 547.99 455.22 619.98 454.81 691.95 C 416.26 691.65 377.71 691.95 339.16 691.87 C 328.77 691.39 318.37 691.74 307.98 691.64 C 294.98 691.71 281.98 691.42 268.98 691.72 C 258.43 692.09 247.88 691.60 237.33 691.94 C 236.88 671.95 237.20 651.94 237.10 631.95 C 237.15 576.83 237.02 521.71 237.11 466.59 C 238.68 470.20 241.18 473.28 243.81 476.17 C 246.20 478.77 247.33 482.17 248.85 485.29 C 251.90 491.54 257.31 496.55 263.70 499.27 C 270.38 501.78 273.70 508.92 280.27 511.69 C 286.98 515.81 295.56 514.46 302.05 519.01 C 308.93 523.18 317.19 524.00 325.06 523.51 C 330.62 523.08 335.61 526.11 341.07 526.52 C 346.89 526.99 352.73 526.00 358.30 524.33 C 361.09 523.44 364.04 523.58 366.93 523.83 C 372.78 524.34 378.72 523.29 384.16 521.13 C 387.90 519.67 391.03 516.76 395.08 516.06 C 399.61 515.23 404.25 514.55 408.40 512.41 C 412.79 510.40 416.39 507.10 419.76 503.71 C 423.00 500.33 427.67 499.10 431.41 496.44 C 435.11 493.84 438.36 490.54 440.72 486.68 C 442.31 484.11 443.03 481.13 444.53 478.52 C 446.13 476.17 448.42 474.40 450.03 472.06 C 452.71 468.25 453.61 463.55 454.32 459.04 Z" />
</g>
<g id="#7d6483b3">
<path fill="#7d6483" opacity="0.70" d=" M 456.23 89.46 L 456.42 90.71 C 456.72 92.77 456.78 94.86 456.77 96.95 C 456.58 143.30 456.79 189.65 456.53 236.00 C 456.18 187.15 456.58 138.30 456.23 89.46 Z" />
<path fill="#7d6483" opacity="0.70" d=" M 87.55 456.25 C 130.71 456.50 173.88 456.27 217.05 456.42 C 222.80 456.51 228.58 455.99 234.30 456.81 C 223.90 456.33 213.48 456.76 203.07 456.65 C 169.38 456.70 135.68 456.73 101.99 456.71 C 97.18 456.68 92.33 456.98 87.55 456.25 Z" />
<path fill="#7d6483" opacity="0.70" d=" M 235.29 456.96 L 235.77 457.43 C 235.44 477.68 235.71 497.93 235.66 518.17 C 235.04 513.14 235.29 508.07 235.28 503.02 C 235.28 487.66 235.39 472.31 235.29 456.96 Z" />
<path fill="#7d6483" opacity="0.70" d=" M 237.33 691.94 C 247.88 691.60 258.43 692.09 268.98 691.72 L 269.00 693.00 L 238.00 693.00 L 237.33 691.94 Z" />
<path fill="#7d6483" opacity="0.70" d=" M 339.16 691.87 C 377.71 691.95 416.26 691.65 454.81 691.95 L 456.00 692.00 L 456.00 693.00 L 337.43 693.00 L 339.16 691.87 Z" />
</g>
<g id="#e91138ff">
<path fill="#e91138" opacity="1.00" d=" M 324.99 168.99 C 331.16 169.52 336.82 166.46 342.92 166.34 C 347.33 166.06 351.77 166.56 356.01 167.82 C 364.93 170.59 374.79 167.62 383.44 171.56 C 388.06 173.33 391.95 177.07 397.11 177.24 C 402.03 177.61 406.86 179.11 411.01 181.83 C 416.68 185.15 420.42 191.08 426.65 193.56 C 434.21 196.85 440.05 203.42 443.01 211.06 C 445.05 216.58 450.41 219.95 452.54 225.40 C 454.10 229.27 453.97 233.52 454.29 237.61 C 458.93 238.01 463.87 237.71 468.15 239.88 C 471.17 241.36 473.43 243.91 476.02 245.98 C 478.17 247.72 480.86 248.53 483.28 249.81 C 488.83 252.60 493.49 257.05 496.61 262.42 C 498.53 265.51 499.45 269.27 502.29 271.73 C 506.39 275.46 509.93 279.89 511.95 285.09 C 514.41 290.75 513.94 297.35 517.34 302.65 C 521.48 309.65 523.63 317.94 522.39 326.06 C 521.37 331.24 524.46 335.90 524.90 340.95 C 525.23 344.27 525.23 347.62 525.04 350.96 C 524.86 355.76 522.29 360.11 522.25 364.94 C 522.07 370.27 522.66 375.71 521.25 380.93 C 519.85 386.75 515.69 391.49 514.65 397.43 C 513.62 403.15 512.33 409.02 508.83 413.81 C 506.05 418.61 501.04 421.64 498.56 426.62 C 496.64 430.23 494.97 434.08 492.02 436.99 C 488.42 440.66 483.78 443.01 479.07 444.92 C 475.82 446.19 473.78 449.18 470.99 451.13 C 468.40 452.94 465.38 454.02 462.44 455.13 C 459.71 455.33 456.99 455.54 454.27 455.70 C 454.28 456.81 454.29 457.92 454.32 459.04 C 453.61 463.55 452.71 468.25 450.03 472.06 C 448.42 474.40 446.13 476.17 444.53 478.52 C 443.03 481.13 442.31 484.11 440.72 486.68 C 438.36 490.54 435.11 493.84 431.41 496.44 C 427.67 499.10 423.00 500.33 419.76 503.71 C 416.39 507.10 412.79 510.40 408.40 512.41 C 404.25 514.55 399.61 515.23 395.08 516.06 C 391.03 516.76 387.90 519.67 384.16 521.13 C 378.72 523.29 372.78 524.34 366.93 523.83 C 364.04 523.58 361.09 523.44 358.30 524.33 C 352.73 526.00 346.89 526.99 341.07 526.52 C 335.61 526.11 330.62 523.08 325.06 523.51 C 317.19 524.00 308.93 523.18 302.05 519.01 C 295.56 514.46 286.98 515.81 280.27 511.69 C 273.70 508.92 270.38 501.78 263.70 499.27 C 257.31 496.55 251.90 491.54 248.85 485.29 C 247.33 482.17 246.20 478.77 243.81 476.17 C 241.18 473.28 238.68 470.20 237.11 466.59 C 236.50 463.04 236.22 459.45 236.14 455.85 C 233.07 455.56 229.99 455.30 226.94 454.84 C 223.97 453.75 220.98 452.52 218.53 450.49 C 216.17 448.56 214.14 446.11 211.23 444.97 C 207.56 443.43 203.93 441.67 200.84 439.13 C 196.43 435.73 193.58 430.81 191.26 425.85 C 189.79 422.47 186.80 420.19 184.44 417.49 C 180.53 413.08 177.58 407.71 176.55 401.88 C 175.92 398.55 175.84 394.99 173.99 392.03 C 171.07 387.08 168.38 381.77 167.85 375.96 C 166.99 369.45 168.36 362.74 166.42 356.38 C 164.84 350.77 164.46 344.79 165.63 339.07 C 166.22 335.99 167.60 333.11 168.06 330.01 C 168.16 327.00 167.47 324.02 167.56 321.01 C 167.82 314.14 170.08 307.46 173.60 301.59 C 176.14 297.55 175.84 292.61 177.20 288.18 C 178.49 283.89 180.59 279.84 183.35 276.31 C 186.09 272.76 190.13 270.19 191.85 265.89 C 195.10 257.77 201.97 251.31 210.19 248.39 C 214.95 246.84 217.55 242.12 221.98 240.00 C 226.11 237.53 231.06 237.83 235.67 237.37 C 236.25 233.97 236.62 230.54 237.10 227.13 C 238.72 220.73 244.75 217.03 247.22 211.10 C 249.72 205.43 253.29 200.02 258.51 196.51 C 262.44 193.62 267.53 192.54 270.87 188.82 C 275.08 184.41 280.02 180.50 285.99 178.82 C 290.76 176.92 296.46 177.97 300.65 174.59 C 307.66 169.54 316.60 168.64 324.99 168.99 M 335.20 170.53 C 335.24 170.82 335.30 171.40 335.34 171.69 C 345.06 177.50 355.22 182.58 365.44 187.45 C 369.34 189.06 373.44 191.29 377.78 190.56 L 377.92 190.57 C 379.37 191.79 381.37 191.54 383.12 191.76 C 382.29 190.44 381.36 189.18 380.17 188.17 C 374.09 182.82 367.93 177.47 361.00 173.23 C 353.37 168.57 343.62 167.56 335.20 170.53 M 273.40 190.68 C 277.43 190.96 281.51 191.52 285.54 190.87 C 288.77 191.21 292.02 191.07 295.25 191.06 C 305.27 192.51 315.95 191.99 325.13 187.34 C 317.16 183.06 307.89 182.34 299.47 179.34 C 289.89 179.59 279.46 182.85 273.40 190.68 M 397.14 180.36 C 406.24 193.08 414.88 206.12 424.30 218.61 C 425.25 219.38 426.02 221.88 427.47 220.54 C 427.13 215.09 425.57 209.80 424.35 204.50 C 421.71 191.88 410.17 181.01 397.14 180.36 M 323.56 191.31 C 317.59 193.68 311.13 193.91 304.82 194.40 C 302.08 194.47 300.01 196.41 297.97 197.99 C 292.27 202.61 285.32 205.25 278.49 207.68 C 276.48 208.41 275.41 210.44 274.15 212.02 C 270.36 217.54 266.11 222.74 261.34 227.44 C 260.24 228.79 258.41 230.02 258.59 231.98 C 258.58 236.24 258.32 240.49 257.69 244.70 C 262.25 242.88 264.96 237.85 269.98 237.12 C 272.45 238.91 274.81 240.86 276.95 243.04 C 284.77 250.90 292.64 258.70 300.30 266.72 C 301.45 267.88 302.39 269.24 303.04 270.76 C 297.95 273.67 293.22 277.20 288.69 280.92 C 285.94 279.61 284.02 277.18 281.85 275.13 C 273.16 266.68 264.76 257.92 255.91 249.65 C 253.44 251.96 250.66 254.12 249.06 257.16 C 258.74 268.38 270.08 278.09 279.81 289.28 C 276.26 293.91 272.69 298.60 269.61 303.56 C 268.12 302.72 266.64 301.83 265.40 300.63 C 255.35 290.93 245.59 280.94 235.77 271.01 C 237.49 266.40 241.43 263.20 243.64 258.87 C 239.22 259.40 234.89 260.41 230.57 261.45 C 226.88 262.21 224.29 265.09 221.48 267.36 C 217.31 270.93 212.74 274.00 208.54 277.52 C 205.86 279.53 205.28 282.98 204.12 285.91 C 201.92 291.97 198.29 297.37 194.38 302.45 C 192.30 304.82 193.03 308.21 192.61 311.11 C 192.42 317.10 190.82 322.93 188.42 328.40 C 186.63 331.78 187.79 335.58 188.16 339.14 C 188.97 345.39 188.37 351.70 187.48 357.91 C 186.63 361.56 188.96 364.72 190.04 368.02 C 192.45 374.44 192.55 381.36 193.10 388.11 C 193.19 389.61 194.48 390.63 195.27 391.81 C 199.69 397.11 203.01 403.27 205.13 409.83 C 205.94 411.93 206.25 414.54 208.43 415.74 C 215.76 420.58 222.42 426.33 228.71 432.44 C 232.98 432.97 237.29 433.10 241.59 432.96 C 239.70 429.74 237.72 426.57 235.41 423.63 C 246.13 412.25 257.12 401.11 268.58 390.48 C 272.07 395.51 275.11 400.91 279.20 405.48 C 269.78 415.67 259.73 425.26 250.13 435.28 C 250.14 435.87 250.15 437.05 250.16 437.64 C 252.43 439.84 254.58 442.17 256.79 444.44 C 265.66 435.54 274.48 426.60 283.57 417.92 C 285.05 416.60 286.46 414.91 288.55 414.61 C 292.86 418.07 297.42 421.27 302.10 424.23 C 300.23 427.83 297.11 430.48 294.35 433.37 C 286.41 441.28 278.55 449.29 270.44 457.03 C 270.15 457.15 269.58 457.38 269.30 457.50 C 265.52 454.97 261.93 452.18 258.03 449.84 C 258.96 454.81 259.52 459.92 261.19 464.70 C 264.69 468.89 268.69 472.67 271.83 477.17 C 274.45 480.52 276.54 484.98 281.03 486.10 C 288.52 488.51 295.42 492.50 301.45 497.52 C 304.66 499.04 308.48 498.28 311.94 498.94 C 318.33 499.42 324.27 501.90 330.07 504.46 C 337.06 503.76 344.12 502.13 351.20 503.28 C 354.66 503.50 358.29 505.41 361.59 503.59 C 367.42 500.92 373.69 499.27 380.07 498.62 C 383.54 498.30 387.57 499.03 390.32 496.35 C 397.04 490.59 405.31 487.15 413.72 484.65 C 418.39 476.91 424.21 469.97 430.55 463.56 C 432.14 459.95 431.32 455.65 431.66 451.77 C 428.25 453.36 425.62 456.58 421.82 457.27 C 411.17 446.23 399.82 435.84 389.59 424.39 C 394.76 421.42 399.63 417.90 404.19 414.06 C 415.04 422.91 424.24 433.59 434.52 443.08 C 437.10 440.86 439.41 438.35 441.61 435.76 C 435.83 428.76 429.05 422.68 422.78 416.14 C 419.66 413.15 416.89 409.82 413.63 406.99 C 413.46 406.56 413.13 405.69 412.96 405.26 C 416.58 400.44 420.37 395.69 423.29 390.41 C 428.47 394.41 432.87 399.30 437.60 403.81 C 444.01 410.41 450.89 416.59 456.78 423.68 C 454.63 426.61 452.42 429.51 450.73 432.74 C 455.34 432.38 460.36 432.09 464.23 429.27 C 467.60 426.63 470.72 423.68 474.13 421.09 C 477.30 418.32 481.35 416.41 483.86 412.97 C 486.26 406.37 488.77 399.68 493.14 394.09 C 494.61 391.88 497.17 390.02 496.97 387.08 C 497.44 379.70 498.31 372.16 501.42 365.37 C 502.27 363.34 503.47 361.24 502.88 358.97 C 501.44 350.73 501.49 342.26 502.85 334.02 C 503.44 331.47 501.85 329.24 501.05 326.96 C 498.15 320.00 497.54 312.42 497.04 304.98 C 495.72 301.60 493.05 298.96 491.21 295.87 C 487.72 290.79 485.73 284.93 483.66 279.19 C 482.98 277.06 480.65 276.23 479.02 274.97 C 472.56 270.94 467.19 265.52 461.61 260.42 C 457.65 259.49 453.39 260.14 449.32 259.89 C 451.58 263.53 454.17 266.95 456.76 270.35 C 453.36 274.68 449.30 278.41 445.46 282.33 C 437.98 289.71 430.67 297.30 422.83 304.30 C 419.50 299.30 416.14 294.18 412.15 289.67 C 420.78 279.18 431.78 270.76 440.25 260.10 C 440.72 259.65 441.67 258.74 442.15 258.29 L 442.66 258.93 C 441.72 255.20 438.11 252.95 435.01 251.11 C 432.82 252.50 431.06 254.43 429.20 256.19 C 420.57 264.45 412.24 273.02 403.71 281.38 C 399.45 277.25 393.98 274.69 389.41 270.94 C 389.49 270.50 389.65 269.61 389.73 269.17 C 400.48 258.00 411.34 246.89 422.70 236.33 C 425.67 238.46 428.38 241.07 431.89 242.31 C 431.17 236.52 431.00 229.85 426.59 225.48 C 423.02 221.67 419.69 217.65 416.74 213.35 C 414.90 210.83 413.15 207.77 409.89 206.96 C 402.40 204.50 395.32 200.75 389.23 195.75 C 387.01 193.72 383.78 194.42 381.05 194.03 C 374.40 193.82 367.93 191.96 361.90 189.23 C 359.20 187.80 356.23 188.96 353.44 189.30 C 346.61 190.16 339.67 189.74 332.88 188.78 C 329.55 188.29 326.60 190.33 323.56 191.31 M 251.78 215.76 C 244.24 217.98 239.13 225.79 238.95 233.47 L 238.87 233.72 C 239.27 234.95 238.52 237.02 240.11 237.58 C 241.37 237.63 242.48 236.85 243.61 236.37 C 250.77 232.65 257.07 227.44 262.81 221.80 C 266.12 218.26 269.56 214.61 271.39 210.05 C 264.67 211.26 258.23 213.60 251.78 215.76 M 445.52 221.33 C 445.03 228.27 445.09 235.35 446.40 242.21 C 452.59 238.67 452.15 230.34 449.03 224.85 C 448.10 223.58 447.48 220.93 445.52 221.33 M 227.76 240.79 C 224.78 241.85 221.07 242.93 219.81 246.17 C 226.94 246.34 234.11 246.36 241.20 245.50 C 238.81 240.59 232.64 239.16 227.76 240.79 M 453.65 240.72 C 454.74 245.04 457.26 248.78 459.76 252.40 C 464.54 259.06 470.17 265.18 476.83 270.00 C 478.26 271.12 479.99 271.72 481.69 272.32 C 479.87 265.50 477.81 258.75 475.42 252.11 C 472.50 243.51 462.28 238.67 453.65 240.72 M 213.37 265.46 C 213.30 265.46 213.17 265.48 213.10 265.48 C 204.61 265.89 195.78 268.42 189.35 274.23 C 183.59 279.16 179.21 286.49 179.12 294.18 C 189.78 286.92 200.29 279.42 210.85 272.01 C 214.25 269.48 217.99 267.27 220.59 263.85 C 218.11 263.98 215.49 263.99 213.37 265.46 M 501.09 274.96 C 500.72 278.26 500.36 281.63 501.11 284.91 C 500.83 287.32 500.88 289.77 501.11 292.19 C 499.47 292.76 499.34 293.72 500.71 295.07 C 500.29 299.82 500.41 304.65 500.64 309.42 C 500.34 315.34 500.83 321.96 504.74 326.73 C 506.61 321.95 507.81 316.94 509.17 312.00 C 510.54 306.74 512.12 301.39 511.67 295.90 C 511.08 287.92 507.46 279.97 501.09 274.96 M 174.57 326.62 C 167.84 335.08 165.28 347.47 169.91 357.47 C 175.48 348.01 180.17 338.05 185.09 328.24 C 188.22 322.15 190.48 315.44 190.09 308.50 C 184.01 313.69 179.46 320.36 174.57 326.62 M 512.67 349.51 C 507.12 360.47 499.77 371.49 500.14 384.29 C 501.79 383.26 503.20 381.92 504.40 380.39 C 508.91 374.87 513.62 369.49 517.71 363.65 C 523.03 355.45 523.87 344.79 520.78 335.61 C 517.45 339.85 515.27 344.83 512.67 349.51 M 185.34 366.18 C 182.99 373.03 181.26 380.06 179.45 387.07 C 176.38 398.09 180.70 410.45 189.00 418.07 C 190.32 407.45 189.71 396.69 189.99 386.01 C 190.15 379.22 189.77 371.71 185.34 366.18 M 475.06 424.00 C 473.06 425.35 471.31 427.01 469.84 428.92 C 476.42 428.48 482.84 426.82 489.15 424.99 C 500.75 421.73 510.57 410.89 511.08 398.64 C 499.02 407.01 486.94 415.37 475.06 424.00 M 208.74 420.39 C 210.03 427.26 212.56 433.82 214.69 440.47 C 215.92 444.63 219.36 447.58 222.83 449.94 C 226.82 452.75 231.97 452.50 236.61 452.17 C 235.52 447.04 232.07 442.87 229.11 438.69 C 223.51 431.50 217.30 424.06 208.74 420.39 M 448.66 447.09 C 449.99 449.55 452.08 452.10 455.10 452.28 C 460.88 452.93 467.39 451.54 471.27 446.88 L 470.54 447.27 C 469.95 447.29 468.77 447.35 468.18 447.37 C 461.85 445.79 455.12 446.71 448.66 447.09 M 238.87 458.95 C 239.08 463.81 240.54 469.29 244.68 472.29 C 245.49 464.81 244.91 457.23 243.89 449.81 C 241.13 452.03 238.62 455.19 238.87 458.95 M 439.16 461.11 C 431.34 466.96 423.31 473.51 419.14 482.56 C 425.95 481.27 432.58 479.19 439.11 476.90 C 447.55 474.07 453.20 463.93 450.53 455.39 C 446.20 455.84 442.68 458.81 439.16 461.11 M 262.66 471.17 C 263.26 477.78 264.71 484.29 266.45 490.69 C 269.93 502.37 280.70 510.84 292.48 513.06 C 289.75 506.43 284.68 501.18 280.88 495.17 C 274.93 487.10 269.93 478.17 262.66 471.17 M 308.34 501.63 C 308.29 501.86 308.21 502.33 308.17 502.56 C 313.62 508.17 319.89 512.93 326.07 517.70 C 331.11 521.74 337.56 523.72 343.98 523.79 C 347.90 523.79 352.32 524.07 355.53 521.43 C 346.76 515.98 337.29 511.77 328.14 507.03 C 322.01 503.93 315.32 501.28 308.34 501.63 M 378.95 501.90 C 374.04 501.73 369.30 503.23 364.99 505.48 C 367.57 507.47 370.84 508.05 373.89 508.98 C 379.84 510.62 385.81 512.47 392.00 512.95 C 398.66 513.48 405.36 511.37 410.87 507.68 C 412.97 506.25 415.28 504.80 416.29 502.34 C 403.86 501.50 391.39 501.89 378.95 501.90 Z" />
<path fill="#e91138" opacity="1.00" d=" M 339.07 218.02 C 339.00 215.69 342.24 216.76 343.60 216.32 C 343.52 218.23 343.82 220.21 343.28 222.08 C 342.42 223.23 340.59 222.87 339.35 222.71 C 338.81 221.22 339.09 219.57 339.07 218.02 Z" />
<path fill="#e91138" opacity="1.00" d=" M 348.74 216.56 C 350.19 216.49 351.65 216.42 353.11 216.37 C 353.10 218.47 353.09 220.57 353.07 222.68 C 351.62 222.98 350.32 222.72 349.15 221.90 C 348.22 220.24 348.70 218.34 348.74 216.56 Z" />
<path fill="#e91138" opacity="1.00" d=" M 343.09 225.08 C 347.00 224.60 351.65 224.31 354.69 227.29 C 358.46 231.15 358.53 236.99 358.05 242.03 C 357.58 246.89 354.02 251.72 348.96 252.34 C 345.55 252.84 341.60 253.39 338.58 251.35 C 334.19 247.76 333.03 241.46 333.68 236.08 C 334.12 230.93 337.71 225.79 343.09 225.08 M 344.53 230.77 C 341.47 232.72 341.46 236.85 341.53 240.07 C 341.75 242.42 341.91 245.28 343.99 246.80 C 346.05 247.87 348.69 246.71 349.38 244.51 C 350.70 240.67 350.66 236.33 349.40 232.49 C 348.77 230.42 346.31 229.21 344.53 230.77 Z" />
<path fill="#e91138" opacity="1.00" d=" M 218.81 330.02 C 221.51 329.84 224.22 329.80 226.93 329.83 C 227.60 333.94 228.02 338.15 229.55 342.07 C 231.20 338.16 232.03 333.98 233.18 329.92 C 235.16 329.80 237.14 329.73 239.12 329.71 C 240.07 333.98 241.01 338.27 242.49 342.39 C 244.30 338.68 243.86 334.29 245.66 330.62 C 247.54 329.01 250.50 329.88 252.80 329.65 C 251.22 338.72 248.34 347.50 246.07 356.41 C 243.74 356.43 241.41 356.44 239.09 356.43 C 238.30 352.57 237.57 348.66 236.03 345.02 C 235.44 345.88 234.84 346.74 234.24 347.61 C 234.11 350.66 233.07 353.56 232.14 356.44 C 230.04 356.78 227.90 356.83 225.79 356.57 C 223.29 347.78 220.42 339.04 218.81 330.02 Z" />
<path fill="#e91138" opacity="1.00" d=" M 445.01 329.86 C 451.27 329.81 457.65 328.94 463.84 330.28 C 466.59 331.27 469.95 333.66 469.28 337.00 C 469.28 339.70 467.06 341.43 465.41 343.24 C 468.25 347.25 470.54 351.75 471.45 356.63 C 468.47 356.74 465.49 356.67 462.53 356.56 C 461.10 353.35 460.20 349.80 457.98 347.01 C 457.08 345.95 454.60 345.30 454.13 347.08 C 453.52 350.18 453.85 353.38 453.75 356.53 C 450.81 356.69 447.87 356.75 444.94 356.53 C 444.64 347.64 444.95 338.75 445.01 329.86 M 454.09 335.12 C 454.01 336.88 452.83 339.17 454.30 340.62 C 456.48 340.73 460.65 340.53 460.53 337.52 C 460.09 334.49 456.27 335.30 454.09 335.12 Z" />
<path fill="#e91138" opacity="1.00" d=" M 341.32 454.99 C 342.64 450.50 343.70 445.88 345.90 441.73 C 346.20 447.14 346.01 452.58 345.31 457.95 C 343.96 456.98 342.64 455.99 341.32 454.99 Z" />
<path fill="#e91138" opacity="1.00" d=" M 350.92 454.88 C 355.53 456.82 361.18 456.90 364.95 460.42 C 359.38 459.29 353.68 459.56 348.04 459.07 C 348.98 457.66 349.94 456.27 350.92 454.88 Z" />
<path fill="#e91138" opacity="1.00" d=" M 327.98 459.60 C 333.16 459.71 338.36 460.00 343.48 460.83 C 342.70 461.99 341.95 463.20 341.03 464.27 C 336.49 463.52 331.94 461.99 327.98 459.60 Z" />
<path fill="#e91138" opacity="1.00" d=" M 346.91 462.27 C 348.23 463.02 349.56 463.78 350.88 464.55 C 349.70 468.25 348.48 471.96 347.69 475.77 C 346.04 471.44 346.50 466.77 346.91 462.27 Z" />
</g>
</svg>
