<?xml version="1.0" standalone="no"?>
<!DOCTYPE svg PUBLIC "-//W3C//DTD SVG 20010904//EN"
 "http://www.w3.org/TR/2001/REC-SVG-20010904/DTD/svg10.dtd">
<svg version="1.0" xmlns="http://www.w3.org/2000/svg"
 width="1386.000000pt" height="1386.000000pt" viewBox="0 0 1386.000000 1386.000000"
 preserveAspectRatio="xMidYMid meet">
<metadata>
Created by potrace 1.11, written by Peter Selinger 2001-2013
</metadata>
<g transform="translate(0.000000,1386.000000) scale(0.100000,-0.100000)"
fill="#000000" stroke="none">
<path d="M4739 13858 c0 -2 -4 -1062 -9 -2356 -4 -1294 -11 -2356 -14 -2359
-3 -3 -1063 -8 -2356 -11 l-2350 -5 0 -2193 0 -2194 693 -1 c1930 -4 4006 -15
4012 -20 3 -4 9 -1062 13 -2352 4 -1290 11 -2349 15 -2354 8 -7 4376 -7 4384
0 1 2 5 1061 9 2353 l7 2351 180 6 c99 4 921 7 1826 7 905 0 1886 3 2179 7
l532 6 0 2192 0 2192 -1592 6 c-875 4 -1937 7 -2360 7 l-768 0 0 1008 c0 555
-3 1617 -7 2360 l-6 1352 -2194 0 c-1206 0 -2193 -1 -2194 -2z m2321 -3409
c117 -19 272 -122 536 -357 l59 -52 -45 6 c-167 22 -185 28 -537 204 -189 94
-343 175 -343 180 0 16 20 22 93 29 77 8 149 5 237 -10z m-829 -255 c108 -29
210 -59 225 -65 l29 -11 -28 -14 c-15 -8 -62 -25 -105 -37 -73 -21 -96 -22
-454 -21 -243 0 -382 4 -388 10 -13 13 78 82 161 124 100 51 237 82 318 73 25
-3 133 -29 242 -59z m1862 19 c68 -21 187 -104 246 -170 62 -70 113 -165 140
-263 22 -78 61 -269 61 -297 0 -39 -51 28 -384 505 -196 281 -191 266 -63 225z
m-2683 -581 c0 -33 -170 -218 -300 -326 -110 -92 -256 -186 -289 -186 -5 0
-14 14 -20 31 -23 65 41 222 123 304 47 47 62 54 191 98 125 42 267 84 288 86
4 1 7 -3 7 -7z m1765 -52 c278 -26 517 -85 780 -195 160 -66 453 -225 462
-250 2 -6 -143 -156 -321 -334 l-325 -325 -68 32 c-133 61 -271 103 -433 134
-155 29 -483 36 -616 14 -180 -31 -358 -82 -487 -140 -32 -14 -62 -26 -68 -26
-20 0 -649 628 -649 648 0 19 269 166 430 235 263 113 519 181 785 206 120 12
386 12 510 1z m1842 -347 c8 -73 -3 -114 -41 -158 l-33 -39 -6 83 c-4 45 -4
133 0 194 l6 112 34 -71 c18 -39 36 -93 40 -121z m-4291 -204 c17 -5 43 -22
58 -38 l27 -28 -62 -7 c-34 -3 -123 -6 -198 -6 -152 1 -155 5 -44 57 87 40
140 46 219 22z m4514 0 c75 -12 129 -41 193 -103 54 -52 63 -72 126 -276 74
-240 74 -234 -5 -180 -131 91 -340 331 -420 483 -48 91 -37 99 106 76z m-3802
-492 l302 -302 -65 -65 -65 -64 -306 305 -306 306 59 61 c32 34 63 62 68 62 6
0 146 -136 313 -303z m3348 229 l72 -63 -232 -229 c-127 -126 -264 -261 -304
-299 l-72 -70 -68 68 -67 67 295 295 c162 162 297 295 300 295 3 0 37 -29 76
-64z m-4416 -219 c-67 -54 -288 -214 -500 -362 -286 -199 -285 -198 -230 -57
36 93 68 141 145 214 110 105 197 144 425 192 132 28 184 32 160 13z m714
-496 l280 -280 -48 -106 c-104 -231 -140 -383 -156 -650 -18 -314 25 -569 146
-853 l46 -105 -314 -314 c-172 -172 -316 -313 -320 -313 -27 0 -226 383 -292
561 -125 341 -173 632 -163 1008 7 294 42 491 139 776 65 193 199 472 287 596
l26 37 45 -38 c25 -21 171 -165 324 -319z m4124 266 c186 -309 326 -700 378
-1051 22 -148 15 -635 -10 -771 -54 -285 -130 -510 -267 -785 -59 -118 -120
-230 -136 -248 l-28 -34 -319 314 -318 313 45 110 c49 119 108 311 128 415 20
105 17 554 -4 662 -27 136 -63 251 -125 397 l-56 135 323 318 c178 174 327
315 332 312 4 -2 30 -42 57 -87z m951 -140 c68 -145 83 -248 57 -388 -20 -106
-93 -374 -111 -409 l-13 -25 -11 29 c-7 16 -21 70 -33 120 -19 78 -22 122 -22
301 -1 116 3 282 8 370 l8 160 44 -48 c24 -27 57 -76 73 -110z m-6373 -616
c-9 -49 -27 -121 -41 -158 -44 -115 -319 -653 -334 -653 -16 0 -44 163 -38
225 8 88 58 226 110 304 75 113 304 387 315 377 2 -2 -4 -45 -12 -95z m1994
-378 c37 -19 90 -65 179 -155 145 -149 225 -212 337 -265 71 -34 87 -38 159
-38 73 0 88 3 155 37 41 20 92 51 112 68 52 43 89 124 91 198 2 55 0 62 -35
100 -21 23 -38 46 -38 51 0 15 104 34 143 27 47 -9 108 -58 281 -226 213 -207
291 -250 453 -250 111 0 142 11 235 84 66 52 107 117 120 187 11 59 -6 103
-59 149 l-34 30 28 11 c56 23 116 22 170 -1 41 -17 83 -55 214 -192 90 -94
192 -193 228 -220 36 -27 70 -56 74 -64 4 -8 3 -42 -4 -75 l-12 -61 -38 5
c-49 6 -242 99 -346 166 -44 28 -86 51 -94 51 -8 0 -55 -34 -104 -76 -150
-126 -313 -192 -447 -181 -124 11 -320 91 -501 205 -102 64 -90 66 -213 -34
-137 -112 -284 -174 -409 -174 -109 0 -349 95 -515 204 -47 31 -92 56 -100 56
-8 0 -49 -29 -90 -65 -41 -36 -109 -83 -150 -104 -81 -43 -204 -81 -258 -81
-38 0 -46 15 -57 103 -8 64 -14 58 80 76 74 14 187 67 240 113 55 48 90 120
90 184 0 60 -15 92 -55 119 -17 11 -30 23 -30 26 0 12 75 38 111 38 19 1 59
-11 89 -26z m4660 -169 c24 -165 -5 -288 -99 -430 -83 -124 -305 -388 -310
-367 -6 31 21 168 50 247 28 76 220 460 293 584 21 34 41 60 46 57 4 -3 13
-44 20 -91z m-4536 -417 c33 -22 105 -61 160 -88 342 -163 608 -141 826 67
l78 75 88 -57 c237 -155 502 -224 692 -179 110 26 257 115 324 196 l34 41 95
-58 c52 -31 149 -83 217 -115 114 -54 122 -60 112 -79 -6 -11 -17 -20 -25 -20
-25 0 -136 45 -242 99 -132 66 -151 66 -231 1 -65 -51 -149 -96 -242 -127 -43
-14 -85 -18 -185 -18 -123 1 -136 3 -240 38 -60 21 -170 68 -243 104 l-133 66
-32 -17 c-18 -9 -66 -40 -108 -70 -190 -134 -392 -160 -627 -81 -62 21 -175
68 -251 105 l-139 68 -58 -40 c-87 -58 -198 -112 -292 -142 -96 -30 -147 -33
-156 -10 -14 35 -5 42 72 59 144 32 317 121 396 204 16 17 34 27 40 24 6 -4
38 -25 70 -46z m-2143 -173 c16 -44 24 -99 31 -219 11 -177 3 -638 -11 -663
-7 -12 -18 -2 -56 49 -95 128 -129 241 -122 404 4 92 13 142 56 299 29 104 54
194 58 199 9 15 22 -5 44 -69z m2229 -102 c72 -40 229 -97 332 -122 93 -22
236 -26 320 -9 79 16 224 90 298 152 l65 54 84 -48 c102 -59 197 -99 317 -135
108 -32 299 -44 385 -24 84 19 228 93 291 149 31 28 59 51 63 51 20 0 315
-155 315 -165 0 -7 -7 -18 -15 -25 -21 -17 -64 -4 -179 55 -49 25 -96 45 -106
45 -10 0 -40 -18 -67 -39 -102 -81 -259 -142 -403 -156 -122 -11 -297 32 -530
131 -70 30 -136 54 -147 54 -10 0 -57 -25 -103 -55 -47 -31 -121 -70 -165 -88
-79 -32 -82 -32 -240 -31 -151 0 -166 2 -264 33 -57 18 -158 57 -224 87 -66
29 -127 54 -136 54 -9 0 -79 -31 -156 -70 -77 -39 -170 -78 -207 -87 -64 -17
-67 -17 -87 1 -12 11 -21 25 -21 32 0 14 7 16 90 34 80 17 247 101 305 153
l50 45 40 -23 c22 -12 65 -36 95 -53z m4226 -499 c-45 -186 -193 -358 -373
-433 -62 -26 -344 -91 -391 -90 -13 1 -11 6 9 24 66 58 734 525 753 526 4 0 5
-12 2 -27z m-4746 -506 c-146 -144 -282 -275 -304 -292 -37 -28 -38 -28 -49
-9 -6 10 -32 42 -58 69 l-48 50 292 292 292 293 70 -71 70 -70 -265 -262z
m3298 -234 l-61 -62 -76 69 c-42 38 -170 163 -286 279 l-210 211 65 65 65 65
282 -282 283 -283 -62 -62z m-4369 193 c67 -67 151 -158 186 -204 73 -98 151
-230 140 -240 -13 -14 -141 -5 -195 13 -62 21 -156 102 -196 170 -20 35 -98
285 -119 383 l-7 34 34 -18 c18 -9 89 -71 157 -138z m1767 20 c104 -45 218
-85 319 -110 242 -60 569 -66 824 -15 119 24 334 95 424 140 l61 31 314 -316
c274 -275 313 -318 301 -332 -35 -43 -344 -203 -538 -278 -378 -148 -832 -205
-1241 -156 -198 24 -466 90 -640 157 -96 37 -480 229 -514 257 l-29 25 25 33
c23 30 586 608 593 608 1 0 47 -20 101 -44z m3229 -392 c-68 -52 -109 -68
-191 -72 -102 -5 -118 -1 -169 40 l-39 33 194 5 c107 3 202 6 210 8 10 1 9 -3
-5 -14z m-4506 -289 l1 -180 -29 44 c-41 61 -54 117 -50 210 4 72 7 83 34 111
26 27 30 29 37 13 3 -10 7 -99 7 -198z m4127 100 c9 -35 -12 -169 -33 -208 -9
-18 -43 -59 -77 -93 -58 -58 -66 -62 -186 -102 -174 -57 -301 -94 -306 -89
-22 22 249 305 383 400 88 63 181 117 200 117 7 0 15 -11 19 -25z m-3633 -438
c138 -184 460 -648 453 -654 -6 -7 -88 19 -160 51 -67 30 -180 127 -239 206
-55 72 -94 184 -132 376 -14 69 -25 130 -25 135 0 19 20 -3 103 -114z m2897
-475 l45 -7 -74 -53 c-144 -101 -210 -122 -390 -122 -82 0 -128 6 -201 25
-155 42 -320 97 -315 105 8 14 73 32 180 51 87 16 138 18 405 14 168 -3 325
-8 350 -13z m-1870 -28 c119 -40 680 -323 680 -344 0 -31 -216 -40 -333 -14
-93 21 -146 49 -254 131 -124 94 -303 246 -303 257 0 16 124 -1 210 -30z"/>
<path d="M6817 9553 c-21 -6 -47 -53 -47 -88 0 -58 47 -95 95 -73 52 23 51
133 -1 156 -13 7 -26 11 -27 11 -1 -1 -10 -3 -20 -6z"/>
<path d="M7002 9550 c-47 -19 -54 -117 -11 -152 21 -18 20 -18 -38 -18 -162 0
-260 -84 -282 -244 -13 -89 0 -163 42 -239 40 -72 82 -99 170 -105 184 -14
292 88 304 283 3 45 0 98 -6 122 -18 65 -70 135 -119 160 l-44 22 35 15 c29
12 36 21 42 54 6 40 -14 102 -34 102 -5 0 -15 2 -23 4 -7 3 -23 1 -36 -4z
m-20 -350 c12 -24 18 -59 18 -110 0 -116 -41 -176 -101 -146 -28 14 -47 70
-48 143 -2 127 86 203 131 113z"/>
<path d="M4411 7282 c-48 -15 -48 -29 3 -214 67 -242 94 -325 112 -343 16 -16
99 -21 121 -7 16 10 52 91 53 117 0 11 5 38 11 60 11 38 12 39 21 16 5 -14 18
-62 30 -108 l20 -83 73 0 c49 0 76 4 84 14 12 14 101 334 125 447 8 39 12 77
9 85 -6 18 -80 28 -123 17 -31 -8 -37 -15 -52 -63 -9 -30 -20 -76 -23 -102 -3
-27 -10 -48 -15 -48 -4 0 -16 35 -25 77 -10 42 -22 87 -28 100 -14 32 -69 49
-108 33 -35 -15 -52 -44 -69 -120 -19 -90 -21 -94 -30 -80 -5 7 -14 48 -21 92
-8 47 -19 84 -29 93 -20 18 -103 28 -139 17z"/>
<path d="M8955 7281 l-50 -6 -8 -120 c-10 -162 1 -421 19 -436 9 -7 40 -9 99
-4 l86 7 -7 78 c-7 90 3 120 42 120 22 0 31 -12 71 -99 l46 -100 73 -6 c91 -9
124 -2 124 26 0 28 -53 158 -84 208 -31 48 -31 53 -8 68 26 16 52 74 52 115 0
19 -10 49 -24 69 -43 63 -76 72 -316 82 -36 2 -87 1 -115 -2z m232 -152 c26
-22 15 -47 -24 -58 -56 -16 -63 -14 -63 18 0 51 9 64 43 57 17 -3 36 -11 44
-17z"/>
<path d="M6907 5023 c-8 -16 -27 -66 -42 -113 -34 -103 -51 -138 -79 -162 -21
-17 -21 -17 18 -18 21 0 54 -9 73 -21 46 -28 63 -14 64 55 1 28 4 76 7 106 l7
55 23 -82 23 -83 -23 -39 c-12 -22 -20 -43 -16 -46 13 -13 85 -25 158 -25 72
-1 74 -1 48 -16 -29 -15 -37 -34 -15 -34 32 0 152 50 155 64 5 23 -27 37 -195
86 l-71 20 -33 98 c-42 126 -66 182 -78 182 -6 0 -17 -12 -24 -27z"/>
<path d="M6581 4692 c-19 -9 -36 -22 -38 -29 -4 -12 60 -39 198 -80 l91 -27
29 32 c52 58 31 82 -74 82 -87 0 -127 9 -120 26 8 20 -44 18 -86 -4z"/>
<path d="M6935 4610 c-4 -7 -10 -84 -13 -171 -4 -137 -3 -159 10 -159 10 0 24
26 41 73 40 114 67 200 67 214 0 28 -91 65 -105 43z"/>
</g>
</svg>
